<svg width="350" height="295" viewBox="0 0 350 295" fill="none" xmlns="http://www.w3.org/2000/svg">
<path fill-rule="evenodd" clip-rule="evenodd" d="M184.86 139.825C184.86 139.825 190.361 133.887 197.56 134.835C204.758 135.784 210.43 139.932 213.098 145.867C213.098 145.867 214.93 149.625 217.181 155.237C220.675 163.92 225.178 177.049 225.46 187.573C225.582 191.779 225.023 195.566 223.459 198.49C222.747 199.864 221.746 201.068 220.524 202.019C219.303 202.969 217.89 203.645 216.383 203.999C206.608 206.554 201.267 204.664 198.357 201.744C194.645 198.025 194.871 192.629 194.871 192.629L194.771 192.622C194.635 194.63 194.272 196.616 193.69 198.542C192.964 201.031 191.634 203.301 189.817 205.15C186.667 208.242 181.684 210.021 173.935 209.051C171.413 208.775 168.976 207.973 166.783 206.696C166.046 206.258 165.348 205.758 164.697 205.201C160.319 201.478 158.286 195.558 157.602 189.05C157.602 189.05 147.408 192.629 139.774 188.839C132.14 185.048 134.673 162.612 134.673 162.612L134.67 162.598C136.592 162.075 138.316 161.571 139.774 161.127V161.131L143.619 165.848H147.66C147.66 165.848 161.05 129.968 174.694 131.991C179.512 132.706 182.723 135.938 184.86 139.825ZM180.903 138.612C181.158 138.45 181.496 138.524 181.659 138.778C186.459 146.287 195.425 168.194 193.227 196.173C193.204 196.474 192.94 196.699 192.64 196.675C192.339 196.652 192.114 196.388 192.137 196.088C194.315 168.358 185.416 146.686 180.737 139.368C180.575 139.113 180.649 138.775 180.903 138.612ZM205.344 139.671C205.171 139.423 204.83 139.363 204.582 139.536C204.335 139.709 204.275 140.05 204.448 140.298C207.461 144.607 211.933 152.388 215.524 161.687C219.115 170.99 221.808 181.771 221.303 192.093C221.288 192.395 221.52 192.651 221.822 192.666C222.124 192.681 222.381 192.448 222.395 192.146C222.911 181.614 220.165 170.673 216.544 161.293C212.922 151.911 208.408 144.052 205.344 139.671Z" fill="#171717"/>
<path d="M267.801 103.44C288.14 104.832 284.728 124.748 284.728 124.748H245.312C245.312 124.748 247.46 102.051 267.801 103.44Z" fill="url(#paint0_linear_27_667)"/>
<path d="M239.932 212.991C241.293 215.307 241.901 217.275 241.565 218.423C240.555 221.899 232.301 229.433 222.365 229.77C212.429 230.107 199.12 212.084 197.099 209.317C196.036 207.864 196.441 205.845 197.06 204.256C197.06 204.256 215.247 226.866 221.819 226.358C228.391 225.85 241.5 218.446 239.932 212.991Z" fill="url(#paint1_linear_27_667)"/>
<path d="M209.816 113.799L209.837 114.368L154.987 116.58L148.812 143.347L148.382 143.246L135.508 145.487L136.291 131.993L115.646 138.289V138.293L113.552 138.93L107.865 127.633L103.193 118.348C107.049 116.659 110.877 115.176 114.678 113.9C122.846 111.145 131.244 109.129 139.773 107.876C147.527 106.731 155.358 106.19 163.197 106.258C172.702 106.325 182.183 107.244 191.525 109.007C202.947 111.161 209.816 113.799 209.816 113.799Z" fill="url(#paint2_linear_27_667)"/>
<path d="M165.195 67.167C165.388 67.0813 172.916 63.6845 174.258 65.9216C175.618 68.1907 170.632 70.4566 166.777 71.251C162.922 72.0455 147.395 70.5711 143.994 72.1567C142.068 73.055 142.18 82.6836 142.637 90.8627C142.637 90.8627 139.119 96.1885 137.194 94.9395C135.311 93.7225 137.97 89.5885 138.096 89.3949C137.97 89.4882 132.121 93.9908 134.699 90.0679C137.304 86.0983 138.553 69.7763 141.045 67.0561C143.537 64.336 158.419 65.0145 158.419 65.0145C158.419 65.0145 160.656 57.6481 163.037 58.328C165.417 59.008 162.696 65.2398 162.696 65.2398C162.696 65.2398 167.912 59.7991 169.952 61.1594C171.963 62.5032 165.375 67.0452 165.195 67.167Z" fill="#171717"/>
<path d="M166.784 206.698C166.784 206.698 164.966 224.212 171.033 226.235C177.1 228.257 194.675 231.661 195.595 221.427C195.928 224.158 195.817 226.592 194.872 228.088C191.464 233.479 174.528 231.793 168.127 229.266C161.725 226.739 164.697 205.204 164.697 205.204C165.349 205.761 166.047 206.261 166.784 206.698Z" fill="url(#paint3_linear_27_667)"/>
<path d="M163.198 106.254V106.257C155.359 106.189 147.528 106.73 139.774 107.875V104.199L163.198 103.44V106.254Z" fill="url(#paint4_linear_27_667)"/>
<path d="M115.646 138.293L113.552 138.93L107.865 127.633L103.193 118.348C107.049 116.659 110.877 115.176 114.678 113.9C122.846 111.145 131.244 109.129 139.773 107.876C147.527 106.731 155.358 106.19 163.197 106.258C172.702 106.325 182.183 107.244 191.525 109.007C202.947 111.162 209.816 113.8 209.816 113.8" stroke="#171717" stroke-width="3" stroke-linecap="round" stroke-linejoin="round"/>
<path d="M135.508 145.487L136.291 131.993L115.646 138.289" stroke="#171717" stroke-width="3" stroke-linecap="round" stroke-linejoin="round"/>
<path d="M148.383 143.246L135.508 145.487L125.933 147.151L133.027 153.058" stroke="#171717" stroke-width="3" stroke-linecap="round" stroke-linejoin="round"/>
<path d="M103.193 118.349C100.454 120.332 97.8295 122.468 95.3324 124.749C86.1263 133.103 73.3408 148.015 83.4835 159.533C90.3807 167.368 104.054 167.93 116.75 166.273C122.797 165.443 128.783 164.217 134.668 162.601C136.59 162.078 138.314 161.573 139.773 161.13C142.976 160.145 144.909 159.436 144.909 159.436" stroke="#171717" stroke-width="3" stroke-linecap="round" stroke-linejoin="round"/>
<path d="M147.101 149.565L142.101 151.952C142.101 151.952 145.637 148.92 144.628 147.023C143.618 145.126 135.783 150.935 135.783 150.935L133.027 153.058L129.215 155.997C125.132 157.697 120.873 158.937 116.515 159.694V159.698C108.791 160.986 99.617 160.553 95.3575 152.965C95.0994 152.509 94.865 152.039 94.6561 151.558C88.6069 137.856 107.864 127.633 107.864 127.633" stroke="#171717" stroke-width="3" stroke-linecap="round" stroke-linejoin="round"/>
<path d="M139.774 161.133L143.618 165.851L145.09 159.476L147.362 149.625L148.812 143.347L154.987 116.58L209.837 114.368L223.965 113.799L222.172 124.748L218.213 148.956L217.182 155.238L217.143 155.488" stroke="#171717" stroke-width="3" stroke-linecap="round" stroke-linejoin="round"/>
<path d="M134.674 162.615C134.674 162.615 132.143 185.051 139.774 188.841C147.405 192.632 157.602 189.052 157.602 189.052" stroke="#171717" stroke-width="3" stroke-linecap="round" stroke-linejoin="round"/>
<path d="M162.063 154.479C162.063 154.479 155.96 173.446 157.603 189.052C158.287 195.56 160.32 201.48 164.697 205.203C165.348 205.761 166.047 206.261 166.784 206.698C168.977 207.976 171.413 208.778 173.936 209.053C181.685 210.023 186.668 208.245 189.817 205.152C191.634 203.303 192.965 201.033 193.69 198.545C194.273 196.618 194.635 194.632 194.771 192.624C195.036 188.215 194.656 183.791 193.644 179.492" stroke="#171717" stroke-width="3" stroke-linecap="round" stroke-linejoin="round"/>
<path d="M143.619 165.851H147.66C147.66 165.851 161.05 129.971 174.695 131.993C179.512 132.706 182.723 135.938 184.86 139.825C188.779 146.941 189.583 155.297 189.583 155.297" stroke="#171717" stroke-width="3" stroke-linecap="round" stroke-linejoin="round"/>
<path d="M184.86 139.825C184.86 139.825 190.361 133.887 197.56 134.835C204.758 135.784 210.429 139.932 213.098 145.867C213.098 145.867 214.93 149.625 217.181 155.237C220.675 163.92 225.178 177.049 225.46 187.573C225.582 191.779 225.023 195.566 223.459 198.49C222.747 199.864 221.745 201.068 220.524 202.019C219.302 202.97 217.89 203.645 216.383 203.999C206.608 206.554 201.267 204.664 198.357 201.744C194.645 198.025 194.871 192.629 194.871 192.629" stroke="#171717" stroke-width="3" stroke-linecap="round" stroke-linejoin="round"/>
<path d="M164.697 205.203C164.697 205.203 161.727 226.74 168.127 229.265C174.526 231.79 191.464 233.478 194.872 228.087C195.817 226.593 195.929 224.157 195.595 221.426C194.732 214.325 190.866 205.202 190.866 205.202" stroke="#171717" stroke-width="3" stroke-linecap="round" stroke-linejoin="round"/>
<path d="M198.358 201.745C197.842 202.537 197.406 203.379 197.058 204.258C196.439 205.847 196.035 207.867 197.098 209.319C199.12 212.085 212.425 230.111 222.363 229.771C232.302 229.432 240.554 221.9 241.563 218.425C241.9 217.276 241.291 215.307 239.931 212.992C237.182 208.314 231.344 202.219 223.962 198.614" stroke="#171717" stroke-width="3" stroke-linecap="round" stroke-linejoin="round"/>
<path d="M139.774 107.872V104.199L163.198 103.44V106.254" stroke="#171717" stroke-width="3" stroke-linecap="round" stroke-linejoin="round"/>
<path d="M138.099 89.3879C138.099 89.389 138.099 89.3905 138.098 89.3916C138.098 89.3927 138.097 89.3938 138.096 89.3949C137.97 89.5885 135.311 93.7225 137.194 94.9394C139.12 96.1885 142.638 90.8627 142.638 90.8627" stroke="#171717" stroke-width="3" stroke-linecap="round" stroke-linejoin="round"/>
<path d="M165.195 67.1669C165.374 67.0451 171.963 62.5032 169.952 61.1608C167.91 59.8005 162.697 65.2412 162.697 65.2412C162.697 65.2412 165.417 59.0097 163.037 58.3294C160.657 57.6491 158.419 65.0159 158.419 65.0159C158.419 65.0159 143.54 64.3356 141.045 67.0575C138.55 69.7795 137.305 86.0997 134.699 90.0693C132.122 93.9922 137.97 89.4896 138.096 89.3963" stroke="#171717" stroke-width="3" stroke-linecap="round" stroke-linejoin="round"/>
<path d="M143.54 102.535C143.54 102.535 142.985 97.1229 142.637 90.8626C142.18 82.6836 142.068 73.0549 143.994 72.1566C147.395 70.571 162.922 72.0421 166.777 71.251C170.632 70.4598 175.618 68.1906 174.258 65.9215C172.916 63.6844 165.388 67.0812 165.195 67.1669L165.191 67.1705" stroke="#171717" stroke-width="3" stroke-linecap="round" stroke-linejoin="round"/>
<path d="M155.33 103.44C155.33 103.44 154.875 99.3596 156.351 98.3395C157.826 97.3194 161.112 98.3395 162.697 95.0535C164.283 91.7675 165.869 77.3391 164.623 71.462" stroke="#171717" stroke-width="3" stroke-linecap="round" stroke-linejoin="round"/>
<path d="M116.755 166.298L117.088 174.691L121.981 183.601L160.799 254.279L168.885 252.053L247.964 230.272L262.622 226.235L225.465 187.573" stroke="#171717" stroke-width="3" stroke-linecap="round" stroke-linejoin="round"/>
<path d="M115.646 138.29V138.293L116.125 150.227L116.504 159.641" stroke="#171717" stroke-width="3" stroke-linecap="round" stroke-linejoin="round"/>
<path d="M191.525 109.003L189.098 48.6151L112.191 51.142L114.679 113.9" stroke="#171717" stroke-width="3" stroke-linecap="round" stroke-linejoin="round"/>
<path d="M145.809 90.5184C145.809 90.5184 145.05 94.9784 150.57 94.7494" stroke="#171717" stroke-width="3" stroke-linecap="round" stroke-linejoin="round"/>
<path d="M151.55 88.1772C151.55 88.1772 154.271 88.3132 154.951 87.4506C155.631 86.588 154.951 73.9708 154.951 73.9708H161.751" stroke="#171717" stroke-width="3" stroke-linecap="round" stroke-linejoin="round"/>
<path d="M147.169 78.7315C147.169 78.7315 148.905 76.3122 151.096 78.7315" stroke="#171717" stroke-width="3" stroke-linecap="round" stroke-linejoin="round"/>
<path d="M158.051 79.4872C158.051 79.4872 159.786 77.4456 161.295 79.4872" stroke="#171717" stroke-width="3" stroke-linecap="round" stroke-linejoin="round"/>
<path d="M222.172 124.748H245.312H284.728H335.341" stroke="#171717" stroke-width="3" stroke-linecap="round" stroke-linejoin="round"/>
<path d="M27.0127 124.748H95.3324" stroke="#171717" stroke-width="3" stroke-linecap="round" stroke-linejoin="round"/>
<path d="M218.213 148.956C254.948 150.037 294.593 152.925 335.341 158.649" stroke="#171717" stroke-width="3" stroke-linecap="round" stroke-linejoin="round"/>
<path d="M94.656 151.558C101.468 151.075 108.621 150.631 116.118 150.226" stroke="#171717" stroke-width="3" stroke-linecap="round" stroke-linejoin="round"/>
<path d="M14.5065 160.255C14.5065 160.255 39.1577 156.092 79.7548 152.708" stroke="#171717" stroke-width="3" stroke-linecap="round" stroke-linejoin="round"/>
<path d="M245.312 124.748C245.312 124.748 247.46 102.051 267.801 103.44C288.143 104.829 284.728 124.748 284.728 124.748" stroke="#171717" stroke-width="3" stroke-linecap="round" stroke-linejoin="round"/>
<path d="M267.547 87.7772L266.663 94.7247" stroke="#171717" stroke-width="3" stroke-linecap="round" stroke-linejoin="round"/>
<path d="M256.809 97.5024L245.821 76.7419" stroke="#171717" stroke-width="3" stroke-linecap="round" stroke-linejoin="round"/>
<path d="M246.955 103.379L242.281 99.399" stroke="#171717" stroke-width="3" stroke-linecap="round" stroke-linejoin="round"/>
<path d="M243.039 113.799L220.679 105.656" stroke="#171717" stroke-width="3" stroke-linecap="round" stroke-linejoin="round"/>
<path d="M280.183 100.283L291.805 84.3655" stroke="#171717" stroke-width="3" stroke-linecap="round" stroke-linejoin="round"/>
<path d="M287.005 107.872L292.31 104.958" stroke="#171717" stroke-width="3" stroke-linecap="round" stroke-linejoin="round"/>
<path d="M290.287 115.063L309.49 114.064" stroke="#171717" stroke-width="3" stroke-linecap="round" stroke-linejoin="round"/>
<path d="M166.784 206.698C166.784 206.698 164.966 224.212 171.033 226.235C177.1 228.257 194.675 231.661 195.595 221.427" stroke="#171717" stroke-width="3" stroke-linecap="round" stroke-linejoin="round"/>
<path d="M197.057 204.257C197.057 204.257 215.244 226.868 221.816 226.36C228.388 225.851 241.5 218.446 239.932 212.991" stroke="#171717" stroke-width="3" stroke-linecap="round" stroke-linejoin="round"/>
<path d="M116.504 202.231L121.981 183.601" stroke="#171717" stroke-width="3" stroke-linecap="round" stroke-linejoin="round"/>
<path d="M168.885 281.064V252.053" stroke="#171717" stroke-width="3" stroke-linecap="round" stroke-linejoin="round"/>
<path d="M253.273 256.806L247.964 230.272" stroke="#171717" stroke-width="3" stroke-linecap="round" stroke-linejoin="round"/>
<path d="M84.6074 45.1243C80.1616 48.0096 76.4323 51.8709 73.7038 56.4143C70.9756 60.9581 69.3197 66.0645 68.8621 71.3444C68.4939 76.0315 69.4819 81.4269 73.4559 83.9385C77.0149 86.1873 82.3036 84.9805 84.5345 81.4098C86.248 78.67 85.7274 74.3763 82.7932 73.0244C80.2579 71.8555 77.0448 73.4838 75.8738 76.018C74.7027 78.5522 75.2405 81.6099 76.5796 84.0599C77.9187 86.5099 79.9677 88.4809 81.9634 90.4332C83.9591 92.3856 85.9695 94.409 87.1985 96.9159C89.7626 102.147 88.1249 109.085 83.4921 112.616C81.7494 113.945 79.575 114.823 77.3919 114.632C75.2088 114.441 73.0738 113.022 72.4219 110.93C71.77 108.838 72.9662 106.236 75.0903 105.697C77.2143 105.158 79.6436 107.278 79.1062 109.403" stroke="#171717" stroke-width="3" stroke-linecap="round" stroke-linejoin="round"/>
<path d="M58.0275 96.5867L55.2527 91.2783" stroke="#171717" stroke-width="3" stroke-linecap="round" stroke-linejoin="round"/>
<path d="M54.1228 95.7878L58.9933 92.3494" stroke="#171717" stroke-width="3" stroke-linecap="round" stroke-linejoin="round"/>
<path d="M98.3905 55.4371L96.3693 51.142" stroke="#171717" stroke-width="3" stroke-linecap="round" stroke-linejoin="round"/>
<path d="M95.0797 54.8812L99.3705 52.5981" stroke="#171717" stroke-width="3" stroke-linecap="round" stroke-linejoin="round"/>
<path d="M153.725 41.0325L147.693 33.6785" stroke="#171717" stroke-width="3" stroke-linecap="round" stroke-linejoin="round"/>
<path d="M161.415 40.506L159.585 11.2325" stroke="#171717" stroke-width="3" stroke-linecap="round" stroke-linejoin="round"/>
<path d="M169.823 39.4739L173.64 33.1736" stroke="#171717" stroke-width="3" stroke-linecap="round" stroke-linejoin="round"/>
<path d="M246.6 128.222C259.799 126.525 273.164 126.57 286.351 128.357" stroke="#171717" stroke-width="3" stroke-linecap="round" stroke-linejoin="round"/>
<path d="M252.515 131.714L280.308 131.653" stroke="#171717" stroke-width="3" stroke-linecap="round" stroke-linejoin="round"/>
<path d="M259.252 135.835L271.043 135.823" stroke="#171717" stroke-width="3" stroke-linecap="round" stroke-linejoin="round"/>
<path d="M310.844 54.3707C307.958 61.0495 307.085 68.4261 308.334 75.5938C308.737 77.8783 309.38 80.1799 310.74 82.0605C312.1 83.941 314.284 85.3468 316.602 85.2725C319.525 85.1784 321.906 82.8447 323.392 80.3258C324.415 78.5918 325.12 76.253 323.866 74.6769C322.474 72.9269 319.534 73.4257 317.909 74.965C315.131 77.5972 315.033 81.9843 315.737 85.746C316.245 88.4615 317.367 91.4609 319.943 92.4606C322.218 93.3432 324.941 92.3512 327.145 93.3957C327.847 93.7541 328.449 94.2802 328.898 94.9277C329.347 95.5752 329.629 96.3241 329.719 97.1068C329.876 98.6884 329.411 100.269 328.422 101.513C327.35 102.902 325.553 103.895 323.852 103.467C322.15 103.038 321.027 100.769 322.109 99.388" stroke="#171717" stroke-width="3" stroke-linecap="round" stroke-linejoin="round"/>
<path d="M210.798 94.8206L205.913 85.7242" stroke="#171717" stroke-width="3" stroke-linecap="round" stroke-linejoin="round"/>
<path d="M205.155 92.9612L212.463 87.4895" stroke="#171717" stroke-width="3" stroke-linecap="round" stroke-linejoin="round"/>
<path d="M221.709 76.9957L221.553 72.6156" stroke="#171717" stroke-width="3" stroke-linecap="round" stroke-linejoin="round"/>
<path d="M219.669 75.1429L224.217 74.4691" stroke="#171717" stroke-width="3" stroke-linecap="round" stroke-linejoin="round"/>
<path d="M327.984 67.5595L325.824 63.6683" stroke="#171717" stroke-width="3" stroke-linecap="round" stroke-linejoin="round"/>
<path d="M325.051 66.6368L329.319 63.5138" stroke="#171717" stroke-width="3" stroke-linecap="round" stroke-linejoin="round"/>
<path d="M182.64 112.925L181.492 111.036" stroke="#171717" stroke-width="3" stroke-linecap="round" stroke-linejoin="round"/>
<path d="M168.123 111.145L169.512 109.25" stroke="#171717" stroke-width="3" stroke-linecap="round" stroke-linejoin="round"/>
<path d="M156.372 114.309L154.982 112.288" stroke="#171717" stroke-width="3" stroke-linecap="round" stroke-linejoin="round"/>
<path d="M145.888 126.68C146.694 126.207 147.391 125.568 147.931 124.805" stroke="#171717" stroke-width="3" stroke-linecap="round" stroke-linejoin="round"/>
<path d="M139.672 115.599L138.177 114.062" stroke="#171717" stroke-width="3" stroke-linecap="round" stroke-linejoin="round"/>
<path d="M142.859 140.077L144.375 138.182" stroke="#171717" stroke-width="3" stroke-linecap="round" stroke-linejoin="round"/>
<path d="M131.329 128.864L129.576 126.956" stroke="#171717" stroke-width="3" stroke-linecap="round" stroke-linejoin="round"/>
<path d="M122.802 120.266L124.437 118.115" stroke="#171717" stroke-width="3" stroke-linecap="round" stroke-linejoin="round"/>
<path d="M118.708 131.898L115.459 129.575" stroke="#171717" stroke-width="3" stroke-linecap="round" stroke-linejoin="round"/>
<path d="M109.382 122.012L110.645 120.244" stroke="#171717" stroke-width="3" stroke-linecap="round" stroke-linejoin="round"/>
<path d="M172.543 220.027C177.954 218.996 183.481 218.713 188.968 219.188" stroke="#171717" stroke-width="3" stroke-linecap="round" stroke-linejoin="round"/>
<path d="M172.922 214.441C177.742 213.838 182.607 213.666 187.459 213.925" stroke="#171717" stroke-width="3" stroke-linecap="round" stroke-linejoin="round"/>
<path d="M216.877 215.73C221.371 213.03 226.141 210.817 231.104 209.128" stroke="#171717" stroke-width="3" stroke-linecap="round" stroke-linejoin="round"/>
<path d="M213.026 210.769C217.099 207.849 221.704 205.753 226.58 204.598" stroke="#171717" stroke-width="3" stroke-linecap="round" stroke-linejoin="round"/>
<path d="M76.8513 143.874C77.9185 140.503 79.6798 137.393 82.0211 134.744" stroke="#171717" stroke-width="3" stroke-linecap="round" stroke-linejoin="round"/>
<g opacity="0.1">
<path d="M145.693 103.103C146.47 99.3366 146.042 95.2912 145.993 91.4726C145.941 87.4822 145.778 83.4477 145.986 79.4607C146.062 77.9932 146.257 76.245 147.602 75.3576C148.947 74.4702 150.972 74.5953 152.502 74.4826L158.537 74.036C160.445 73.8946 162.528 74.086 163.823 72.4384C164.297 71.8336 164.446 70.9768 163.823 70.384C162.13 68.7718 159.958 69.3205 157.826 69.4853C155.507 69.6639 153.18 69.8039 150.865 70.0245C146.86 70.4055 143.537 72.0888 142.546 76.2458C141.582 80.289 142.172 84.8769 142.315 88.9883C142.475 93.5573 142.248 98.7103 143.682 103.103C143.98 104.016 145.472 104.17 145.692 103.103H145.693Z" fill="#171717"/>
</g>
<g opacity="0.1">
<path d="M136.318 129.737L136.228 129.562C135.806 128.739 134.869 128.545 134.046 128.674C127.606 129.681 121.249 131.751 115.108 133.898C112.22 134.909 113.463 139.533 116.38 138.513C122.57 136.348 128.903 134.602 135.073 132.4C135.477 132.279 135.831 132.034 136.086 131.699C136.341 131.365 136.483 130.958 136.492 130.537C136.499 130.26 136.44 129.985 136.318 129.737Z" fill="#171717"/>
</g>
<g opacity="0.1">
<path d="M88.5285 132.889C87.4563 133.901 86.2834 134.607 85.3632 135.791C84.4404 136.981 83.5957 138.231 82.8337 139.53C81.289 142.069 80.2481 144.882 79.7687 147.815C78.9013 153.682 81.0917 158.798 85.8681 162.31C90.6445 165.823 96.748 166.627 102.53 166.611C109.118 166.591 115.711 165.805 122.194 164.675C129.541 163.394 136.78 161.584 143.982 159.661C147.273 158.783 145.877 153.678 142.573 154.553C128.703 158.226 114.054 161.984 99.5783 161.156C93.9455 160.835 87.2503 158.828 84.7033 153.222C83.2304 149.977 83.712 146.275 85.1298 143.107C85.8543 141.548 86.7078 140.053 87.6819 138.637C88.6663 137.161 89.2434 135.625 90.0853 134.09C90.1997 133.882 90.2362 133.64 90.1877 133.407C90.1396 133.175 90.0098 132.967 89.8217 132.822C89.6339 132.677 89.4002 132.604 89.1632 132.616C88.9259 132.627 88.7009 132.724 88.5285 132.887V132.889Z" fill="#171717"/>
</g>
<g opacity="0.1">
<path d="M144.215 105.954L144.219 105.713C144.219 105.351 144.123 104.995 143.942 104.682C143.76 104.369 143.499 104.109 143.185 103.929C142.871 103.749 142.516 103.654 142.154 103.656C141.792 103.657 141.436 103.754 141.124 103.937L140.884 104.043C140.549 104.239 140.271 104.519 140.078 104.856C139.886 105.193 139.785 105.575 139.786 105.963C139.788 106.352 139.891 106.733 140.087 107.068C140.282 107.404 140.562 107.682 140.899 107.876C141.236 108.069 141.617 108.17 142.006 108.169C142.394 108.168 142.775 108.066 143.111 107.871C143.447 107.676 143.726 107.397 143.92 107.06C144.114 106.724 144.215 106.343 144.215 105.954Z" fill="#171717"/>
</g>
<defs>
<linearGradient id="paint0_linear_27_667" x1="265.128" y1="103.379" x2="265.128" y2="124.748" gradientUnits="userSpaceOnUse">
<stop stop-color="#42E670"/>
<stop offset="1" stop-color="#07AA50"/>
</linearGradient>
<linearGradient id="paint1_linear_27_667" x1="219.049" y1="204.256" x2="219.049" y2="229.775" gradientUnits="userSpaceOnUse">
<stop stop-color="#42E670"/>
<stop offset="1" stop-color="#07AA50"/>
</linearGradient>
<linearGradient id="paint2_linear_27_667" x1="156.515" y1="106.253" x2="156.515" y2="145.487" gradientUnits="userSpaceOnUse">
<stop stop-color="#42E670"/>
<stop offset="1" stop-color="#07AA50"/>
</linearGradient>
<linearGradient id="paint3_linear_27_667" x1="179.887" y1="205.204" x2="179.887" y2="231.649" gradientUnits="userSpaceOnUse">
<stop stop-color="#42E670"/>
<stop offset="1" stop-color="#07AA50"/>
</linearGradient>
<linearGradient id="paint4_linear_27_667" x1="151.486" y1="103.44" x2="151.486" y2="107.875" gradientUnits="userSpaceOnUse">
<stop stop-color="#42E670"/>
<stop offset="1" stop-color="#07AA50"/>
</linearGradient>
</defs>
</svg>
