<svg width="350" height="350" viewBox="0 0 350 350" fill="none" xmlns="http://www.w3.org/2000/svg">
<path fill-rule="evenodd" clip-rule="evenodd" d="M99.987 143.027C100.839 142.245 100.798 140.903 100.609 139.756C100.015 136.145 98.6275 132.735 96.9326 129.48C96.335 128.334 95.7043 127.208 95.0535 126.098C87.5938 113.349 69.4929 90.6216 63.2327 93.1273L62.9133 93.2367C60.6044 95.2102 60.8293 100.406 65.7629 111.334C67.9755 116.229 71.4074 120.464 74.7951 124.645C74.9741 124.866 75.1527 125.086 75.3314 125.307C78.8073 129.609 82.5414 133.867 86.8157 137.339C89.6354 139.688 92.7847 141.61 96.1629 143.044C97.4116 143.56 98.9921 143.941 99.987 143.027ZM69.1415 97.7244C68.9059 97.4801 68.5173 97.4728 68.273 97.7083C68.0288 97.9435 68.0215 98.3325 68.257 98.5768C79.5729 110.323 89.1327 123.642 96.6394 138.122C96.7955 138.423 97.1663 138.541 97.4674 138.385C97.7685 138.228 97.8859 137.858 97.7299 137.557C90.1688 122.972 80.5398 109.555 69.1415 97.7244Z" fill="url(#paint0_linear_85_235)"/>
<path fill-rule="evenodd" clip-rule="evenodd" d="M107.353 91.4889C100.262 86.1911 92.1591 82.4202 83.9953 78.9932L83.6636 79.2185C83.8357 79.4682 84.0034 79.7139 84.1671 79.9597C90.5815 89.4994 95.1888 100.595 96.9617 112.071L97.4776 111.989C103.196 114.75 108.917 117.512 114.641 120.276C116.974 121.402 119.779 122.522 122.035 121.246C124.975 119.581 124.684 115.248 123.538 112.071C120.528 103.743 114.445 96.7866 107.353 91.4889ZM95.483 86.6286C95.1716 86.4937 94.81 86.6363 94.6751 86.9473C94.5398 87.2586 94.6824 87.6203 94.9937 87.7552C100.92 90.3291 106.213 94.1631 110.507 98.9909C114.801 103.818 117.991 109.524 119.856 115.709C119.954 116.034 120.297 116.218 120.621 116.12C120.946 116.022 121.13 115.68 121.032 115.355C119.116 108.998 115.837 103.136 111.425 98.1746C107.013 93.2137 101.573 89.2737 95.483 86.6286Z" fill="url(#paint1_linear_85_235)"/>
<path fill-rule="evenodd" clip-rule="evenodd" d="M51.0416 46.5956L51.462 46.0469C44.3749 40.5483 37.7216 36.4784 32.9215 35.0803C29.3716 34.0427 25.2365 34.4477 22.3785 36.7938C17.1912 41.0557 18.4071 49.2144 20.4994 55.5946C22.2743 61.0087 24.3409 66.3225 26.6901 71.513L26.8333 71.4478C32.303 69.0984 37.256 65.6943 41.4097 61.4301C45.5634 57.1656 48.8366 52.1249 51.0416 46.5956ZM28.8531 37.4868C28.5151 37.4588 28.2182 37.71 28.19 38.0479C28.1619 38.3859 28.413 38.6827 28.751 38.7111C31.5592 38.9452 38.6691 40.7739 44.2327 46.1949C44.4759 46.4319 44.8645 46.4268 45.1011 46.184C45.3381 45.9408 45.333 45.5522 45.0902 45.3155C39.2787 39.6532 31.8782 37.7391 28.8531 37.4868Z" fill="url(#paint2_linear_85_235)"/>
<path d="M246.495 141.495C246.878 141.547 247.227 141.742 247.471 142.042C247.715 142.341 247.836 142.722 247.811 143.107C247.785 143.493 247.613 143.854 247.331 144.118C247.049 144.382 246.677 144.528 246.291 144.529C246.223 144.528 246.156 144.524 246.09 144.516L231.445 142.548C231.061 142.497 230.711 142.302 230.465 142.003C230.22 141.704 230.097 141.323 230.122 140.937C230.147 140.551 230.318 140.189 230.6 139.923C230.882 139.658 231.254 139.511 231.641 139.51C231.711 139.511 231.781 139.517 231.85 139.526L246.495 141.495Z" fill="#171717"/>
<path d="M222.143 136.698C222.668 136.769 223.16 136.994 223.557 137.345C223.953 137.696 224.237 138.156 224.372 138.669C224.507 139.18 224.487 139.721 224.315 140.222C224.142 140.722 223.825 141.161 223.404 141.481C222.983 141.802 222.476 141.99 221.947 142.023C221.419 142.055 220.893 141.93 220.435 141.664C219.977 141.397 219.61 141.001 219.377 140.525C219.145 140.049 219.059 139.515 219.13 138.99C219.177 138.642 219.292 138.306 219.469 138.002C219.646 137.698 219.881 137.432 220.161 137.219C220.441 137.006 220.76 136.85 221.1 136.761C221.441 136.671 221.795 136.65 222.143 136.698Z" fill="#171717"/>
<path d="M226.708 283.682C242.893 249.511 270.975 187.979 284.114 154.901C284.855 153.039 285.546 151.269 286.186 149.591C286.829 147.914 288.683 144.424 287.484 141.971C288.319 143.437 291.701 149.419 292.333 151.396C293.057 153.657 291.792 157.361 291.792 157.361C291.792 157.361 222.587 306.692 217.461 315.285C212.507 323.593 203.36 320.239 201.96 319.916C177.761 314.315 120.626 301.729 113.666 300.016C106.8 298.317 106.755 295.393 106.755 295.315L105.273 287.377C105.842 289.054 107.406 290.578 110.685 291.655C120.626 294.91 197.983 312.622 197.983 312.622C197.983 312.622 209.733 316.417 214.974 307.561C216.338 305.259 220.702 296.349 226.708 283.682Z" fill="#171717"/>
<path d="M82.5497 155.442C82.9307 158.193 83.082 161.53 80.8362 163.159C78.1382 165.108 74.437 162.971 71.964 160.743C55.6522 146.074 45.7359 124.526 45.2036 102.589C53.4115 113.432 62.9694 123.185 73.6459 131.609C75.5442 133.14 77.6034 134.461 79.7873 135.546L79.734 135.653C79.8241 136.304 79.9141 136.951 80.0086 137.593C80.8507 143.613 81.6984 149.361 82.5497 155.442Z" fill="url(#paint3_linear_85_235)"/>
<path d="M173.594 148.539C172.607 150.41 171.69 152.148 170.54 154.357" stroke="#171717" stroke-width="3.369" stroke-linecap="round" stroke-linejoin="round"/>
<path d="M287.296 141.644C286.464 140.317 284.598 139.363 280.945 139.285L200.514 129.525C197.467 128.926 194.331 128.94 191.29 129.566" stroke="#171717" stroke-width="3.369" stroke-linecap="round" stroke-linejoin="round"/>
<path d="M287.476 141.955C287.426 141.855 287.369 141.757 287.308 141.663" stroke="#171717" stroke-width="3.369" stroke-linecap="round" stroke-linejoin="round"/>
<path d="M117.769 258.555L117.72 258.654C117.265 259.562 116.819 260.456 116.381 261.336C113.265 267.563 110.481 273.127 108.178 277.737C107.089 279.915 104.12 283.965 105.275 287.375C105.844 289.052 107.408 290.577 110.687 291.654C120.628 294.908 197.985 312.62 197.985 312.62C197.985 312.62 209.736 316.415 214.977 307.56C216.34 305.259 220.704 296.349 226.711 283.682C242.895 249.511 270.978 187.979 284.116 154.901C284.857 153.038 285.548 151.268 286.188 149.591C286.831 147.914 288.685 144.424 287.486 141.971" stroke="#171717" stroke-width="3.369" stroke-linecap="round" stroke-linejoin="round"/>
<path d="M105.273 287.375L106.755 295.313C106.755 295.39 106.8 298.314 113.666 300.013C120.626 301.728 177.761 314.314 201.959 319.915C203.359 320.238 212.505 323.592 217.459 315.285C222.585 306.691 291.791 157.361 291.791 157.361C291.791 157.361 293.056 153.655 292.331 151.395C291.701 149.418 288.319 143.436 287.482 141.971C287.478 141.962 287.474 141.958 287.474 141.954C287.388 141.808 287.331 141.704 287.306 141.663C287.302 141.656 287.298 141.649 287.294 141.642" stroke="#171717" stroke-width="3.369" stroke-linecap="round" stroke-linejoin="round"/>
<path d="M116.381 261.336L124.021 262.883L226.705 283.682" stroke="#171717" stroke-width="3.369" stroke-linecap="round" stroke-linejoin="round"/>
<path d="M265.063 152.436L284.114 154.901" stroke="#171717" stroke-width="3.369" stroke-linecap="round" stroke-linejoin="round"/>
<path d="M244.506 149.975L250.562 150.524" stroke="#171717" stroke-width="3.369" stroke-linecap="round" stroke-linejoin="round"/>
<path d="M212.821 146.053L229.227 148.092L229.305 148.1" stroke="#171717" stroke-width="3.369" stroke-linecap="round" stroke-linejoin="round"/>
<path d="M171.133 290.138C169.42 295.072 164.255 297.758 159.604 296.141C154.952 294.524 152.567 289.214 154.281 284.284C155.994 279.354 161.156 276.668 165.812 278.286C170.469 279.904 172.845 285.209 171.133 290.138Z" stroke="#171717" stroke-width="3.369" stroke-linecap="round" stroke-linejoin="round"/>
<path d="M224.437 139.708C224.367 140.233 224.142 140.726 223.792 141.123C223.441 141.52 222.981 141.804 222.469 141.94C221.957 142.075 221.416 142.056 220.915 141.884C220.414 141.712 219.975 141.396 219.655 140.974C219.333 140.553 219.145 140.046 219.112 139.517C219.079 138.989 219.204 138.462 219.47 138.004C219.737 137.547 220.133 137.178 220.609 136.946C221.085 136.714 221.62 136.628 222.144 136.699C222.847 136.794 223.484 137.165 223.914 137.729C224.344 138.293 224.532 139.005 224.437 139.708Z" stroke="#171717" stroke-width="3.369" stroke-linecap="round" stroke-linejoin="round"/>
<path d="M246.091 144.518L231.446 142.549C231.063 142.499 230.712 142.304 230.467 142.005C230.221 141.706 230.099 141.325 230.124 140.938C230.149 140.552 230.319 140.19 230.601 139.925C230.884 139.66 231.256 139.512 231.643 139.511C231.713 139.513 231.782 139.518 231.852 139.528L246.497 141.497C246.879 141.549 247.228 141.744 247.473 142.044C247.716 142.343 247.838 142.724 247.812 143.109C247.786 143.495 247.615 143.856 247.333 144.12C247.05 144.384 246.679 144.531 246.292 144.531C246.225 144.53 246.158 144.526 246.091 144.518Z" stroke="#171717" stroke-width="3.369" stroke-linecap="round" stroke-linejoin="round"/>
<path d="M96.9368 129.476C97.4355 127.836 97.7053 126.136 97.7388 124.423C97.7797 123.101 97.7797 121.778 97.7388 120.456C97.6554 117.647 97.3954 114.846 96.9608 112.07C95.1879 100.594 90.5806 89.499 84.1661 79.9593C84.0024 79.7136 83.8347 79.4679 83.6626 79.2181C75.9448 68.0039 63.1136 55.0947 51.4612 46.0465C44.374 40.5479 37.7208 36.478 32.9186 35.0779C29.3686 34.0422 25.2335 34.4472 22.3756 36.7916C17.1883 41.0535 18.4042 49.2136 20.4965 55.5924C22.2714 61.0068 24.3382 66.3217 26.6875 71.513C31.6779 82.5311 37.8881 92.9545 45.2017 102.589C53.4099 113.432 62.9685 123.185 73.6457 131.609C75.5441 133.14 77.6033 134.461 79.7871 135.546C81.9564 136.652 84.336 137.283 86.7678 137.397" stroke="#171717" stroke-width="3.369" stroke-linecap="round" stroke-linejoin="round"/>
<path d="M45.1977 102.515C45.197 102.539 45.1984 102.564 45.2021 102.588C45.734 124.525 55.6503 146.073 71.9625 160.743C74.4355 162.97 78.1363 165.107 80.8346 163.158C83.0823 161.529 82.931 158.192 82.5482 155.441C81.6969 149.361 80.8492 143.612 80.0059 137.594C79.9115 136.951 79.8214 136.304 79.7314 135.653" stroke="#171717" stroke-width="3.369" stroke-linecap="round" stroke-linejoin="round"/>
<path d="M83.9954 78.9932C92.1591 82.4202 100.262 86.1911 107.353 91.4889C114.445 96.7866 120.528 103.743 123.538 112.071C124.684 115.248 124.975 119.581 122.035 121.246C119.779 122.522 116.974 121.402 114.641 120.276C108.917 117.512 103.196 114.75 97.4777 111.989" stroke="#171717" stroke-width="3.369" stroke-linecap="round" stroke-linejoin="round"/>
<path d="M62.9135 93.2331C60.6046 95.2066 60.8296 100.402 65.7631 111.33C68.0928 116.484 71.7736 120.906 75.3316 125.304C78.8075 129.606 82.5416 133.865 86.816 137.335C89.6353 139.685 92.7849 141.608 96.1632 143.042C97.4119 143.558 98.9923 143.939 99.9873 143.026C100.839 142.244 100.798 140.901 100.61 139.754C100.016 136.145 98.6277 132.733 96.9328 129.473C96.3352 128.327 95.7045 127.201 95.0537 126.091C87.594 113.342 69.4932 90.6143 63.2329 93.12" stroke="#171717" stroke-width="3.369" stroke-linecap="round" stroke-linejoin="round"/>
<path d="M43.9531 76.1316C44.6207 78.8747 46.2992 81.4457 48.7806 82.7929C51.2619 84.14 54.5654 84.058 56.7438 82.2566C58.9466 80.4388 59.6382 77.233 59.0447 74.4406C58.2955 70.9235 55.6668 68.1147 52.4282 66.69C49.2757 65.298 46.717 66.6491 44.8416 69.3963C43.4988 71.3617 43.4048 73.8795 43.9531 76.1316Z" stroke="#171717" stroke-width="3.369" stroke-linecap="round" stroke-linejoin="round"/>
<path d="M26.8311 71.4478C32.301 69.0984 37.2546 65.6946 41.4086 61.4305C45.5627 57.1659 48.8363 52.1252 51.0416 46.5956" stroke="#171717" stroke-width="3.369" stroke-linecap="round" stroke-linejoin="round"/>
<path d="M124.062 262.686C121.702 261.773 119.546 260.403 117.718 258.654C113.337 254.539 110.609 248.482 110.729 242.535C110.897 234.076 116.805 226.026 124.826 223.332C119.331 219.865 116.887 212.395 118.943 206.234C120.998 200.072 127.18 195.629 133.665 195.289C139.718 194.978 144.466 196.158 149.101 200.624C149.432 200.943 149.768 201.284 150.1 201.64" stroke="#171717" stroke-width="3.369" stroke-linecap="round" stroke-linejoin="round"/>
<path d="M80.6294 137.508C101.781 155.75 126.26 178.304 149.187 200.535C162.944 213.879 176.144 227.103 187.727 239.21" stroke="#171717" stroke-width="3.369" stroke-linecap="round" stroke-linejoin="round"/>
<path d="M98.2188 120.439C112.956 144.562 129.162 167.755 146.748 189.886C160.161 206.775 174.352 223.009 189.32 238.588C189.427 238.702 189.539 238.817 189.648 238.931" stroke="#171717" stroke-width="3.369" stroke-linecap="round" stroke-linejoin="round"/>
<path d="M146.907 189.755C144.897 185.219 143.194 180.433 143.071 175.475C142.948 170.517 144.607 165.313 148.385 162.094C152.164 158.876 158.229 158.213 162.081 161.341C162.496 159.982 163.196 158.726 164.134 157.658C165.072 156.59 166.227 155.734 167.522 155.147C168.479 154.725 169.498 154.458 170.54 154.357C172.331 154.178 174.136 154.485 175.768 155.245C174.83 153.085 174.104 150.839 173.598 148.539C172.747 144.502 172.816 140.378 174.785 136.829C176.558 133.627 179.735 131.318 183.232 130.233C185.843 129.457 188.586 129.231 191.289 129.57C192.228 129.674 193.161 129.834 194.082 130.049C200.173 131.479 205.579 134.982 209.374 139.957C213.134 144.958 215.041 151.11 214.769 157.361" stroke="#171717" stroke-width="3.369" stroke-linecap="round" stroke-linejoin="round"/>
<path d="M224.769 156.633C225.219 153.355 226.795 150.337 229.227 148.094C229.579 147.782 229.949 147.492 230.337 147.226C233.424 145.097 237.694 144.609 240.998 146.387C242.497 147.21 243.718 148.46 244.507 149.978C245.501 151.78 245.748 153.901 245.195 155.884C246.535 153.704 248.396 151.891 250.611 150.609C252.056 149.777 253.65 149.239 255.304 149.025C257.047 148.81 258.817 149.008 260.47 149.603C262.123 150.198 263.613 151.174 264.819 152.452C265.292 152.97 265.703 153.542 266.043 154.155C267.579 156.931 267.62 160.338 266.838 163.412C266.056 166.487 264.516 169.308 262.993 172.089C265.679 172.158 267.345 175.139 267.689 177.805C268.346 182.902 266.117 188.208 262.211 191.545C258.305 194.881 252.868 196.248 247.791 195.475C251.302 196.998 254.087 199.82 255.563 203.351C257.039 206.882 257.09 210.848 255.707 214.415C254.324 217.984 251.613 220.878 248.143 222.491C244.673 224.105 240.713 224.312 237.093 223.071" stroke="#171717" stroke-width="3.369" stroke-linecap="round" stroke-linejoin="round"/>
<path d="M186.908 178.238C186.454 175.073 188.731 171.867 191.764 170.848C194.797 169.829 198.286 170.812 200.682 172.926C203.077 175.041 204.444 178.159 204.886 181.323C205.263 177.696 208.162 174.568 211.671 173.561C215.179 172.553 219.097 173.544 221.967 175.8C224.837 178.056 226.684 181.455 227.417 185.029C228.15 188.603 227.835 192.333 226.913 195.862C227.139 195.633 227.36 195.404 227.585 195.174" stroke="#171717" stroke-width="3.369" stroke-linecap="round" stroke-linejoin="round"/>
<path d="M173.417 220.819C170.76 216.561 169.024 211.59 169.307 206.579C169.589 201.568 172.095 196.556 176.394 193.969C180.693 191.381 186.769 191.708 190.298 195.274" stroke="#171717" stroke-width="3.369" stroke-linecap="round" stroke-linejoin="round"/>
<path d="M183.334 231.62C182.708 227.305 183.727 222.914 186.188 219.315C188.649 215.716 192.372 213.174 196.619 212.192" stroke="#171717" stroke-width="3.369" stroke-linecap="round" stroke-linejoin="round"/>
<path d="M182.744 258.052C181.377 252.697 181.995 246.658 185.279 242.216C186.065 241.159 187 240.223 188.055 239.435C188.462 239.131 188.884 238.848 189.32 238.588C192.526 236.68 196.46 236.036 199.929 237.36" stroke="#171717" stroke-width="3.369" stroke-linecap="round" stroke-linejoin="round"/>
<path d="M191.522 237.433C189.999 236.238 189.496 234.051 189.921 232.16C190.347 230.268 191.555 228.643 192.93 227.279C194.033 226.133 195.344 225.209 196.795 224.557C198.258 223.91 199.898 223.777 201.446 224.18" stroke="#171717" stroke-width="3.369" stroke-linecap="round" stroke-linejoin="round"/>
<path d="M162.773 254.985C161.963 253.596 161.447 252.055 161.255 250.459C161.064 248.862 161.201 247.243 161.659 245.702C162.118 244.161 162.887 242.729 163.92 241.497C164.952 240.264 166.226 239.256 167.663 238.535C169.1 237.813 170.67 237.394 172.275 237.303C173.881 237.211 175.488 237.45 176.998 238.003C178.508 238.557 179.888 239.414 181.053 240.521C182.219 241.628 183.146 242.963 183.776 244.443" stroke="#171717" stroke-width="3.369" stroke-linecap="round" stroke-linejoin="round"/>
<path d="M169.839 221.65C165.671 219.627 160.198 220.794 157.217 224.344C154.236 227.894 154.04 233.49 156.758 237.245" stroke="#171717" stroke-width="3.369" stroke-linecap="round" stroke-linejoin="round"/>
<path d="M90.8834 250.436C94.6868 250.436 97.7701 247.352 97.7701 243.549C97.7701 239.746 94.6868 236.662 90.8834 236.662C87.0801 236.662 83.9968 239.746 83.9968 243.549C83.9968 247.352 87.0801 250.436 90.8834 250.436Z" stroke="#171717" stroke-width="3.369" stroke-linecap="round" stroke-linejoin="round"/>
<path d="M137.532 161.508C140.31 161.508 142.562 159.256 142.562 156.478C142.562 153.7 140.31 151.449 137.532 151.449C134.754 151.449 132.503 153.7 132.503 156.478C132.503 159.256 134.754 161.508 137.532 161.508Z" stroke="#171717" stroke-width="3.369" stroke-linecap="round" stroke-linejoin="round"/>
<path d="M143.771 137.508C146.003 137.508 147.813 135.698 147.813 133.466C147.813 131.233 146.003 129.423 143.771 129.423C141.538 129.423 139.728 131.233 139.728 133.466C139.728 135.698 141.538 137.508 143.771 137.508Z" stroke="#171717" stroke-width="3.369" stroke-linecap="round" stroke-linejoin="round"/>
<path d="M163.461 135.566C166.673 135.566 169.276 132.962 169.276 129.751C169.276 126.54 166.673 123.936 163.461 123.936C160.25 123.936 157.646 126.54 157.646 129.751C157.646 132.962 160.25 135.566 163.461 135.566Z" stroke="#171717" stroke-width="3.369" stroke-linecap="round" stroke-linejoin="round"/>
<path d="M219.331 126.261C222.925 126.261 225.84 123.347 225.84 119.752C225.84 116.157 222.925 113.243 219.331 113.243C215.736 113.243 212.822 116.157 212.822 119.752C212.822 123.347 215.736 126.261 219.331 126.261Z" stroke="#171717" stroke-width="3.369" stroke-linecap="round" stroke-linejoin="round"/>
<path d="M77.5916 208.037L69.4993 192.274L63.9854 208.037H77.5916Z" stroke="#171717" stroke-width="3.369" stroke-linecap="round" stroke-linejoin="round"/>
<path d="M182.065 108.908L194.35 102.516L178.931 88.0997L182.065 108.908Z" stroke="#171717" stroke-width="3.369" stroke-linecap="round" stroke-linejoin="round"/>
<path d="M100.855 299.56C101.124 303.265 104.335 306.534 108.035 306.869" stroke="#171717" stroke-width="3.369" stroke-linecap="round" stroke-linejoin="round"/>
<path d="M209.571 326.335C212.81 326.418 216.009 325.622 218.831 324.03C221.652 322.439 223.988 320.111 225.591 317.297" stroke="#171717" stroke-width="3.369" stroke-linecap="round" stroke-linejoin="round"/>
<path d="M295.531 132.625L301.506 123.604" stroke="#171717" stroke-width="3.369" stroke-linecap="round" stroke-linejoin="round"/>
<path d="M304.119 149.149C314.847 146.517 325.32 142.939 335.417 138.457" stroke="#171717" stroke-width="3.369" stroke-linecap="round" stroke-linejoin="round"/>
<path d="M301.122 166.525L312.25 174.245" stroke="#171717" stroke-width="3.369" stroke-linecap="round" stroke-linejoin="round"/>
<path d="M147.894 87.1981C147.186 86.4059 147.965 84.9742 149.025 84.8845C150.084 84.7948 151.027 85.7008 151.321 86.722C151.616 87.7432 151.404 88.8366 151.131 89.8643C150.857 90.8921 150.518 91.9246 150.558 92.9866C152.49 91.8812 154.594 91.1083 156.782 90.7007" stroke="#171717" stroke-width="3.369" stroke-linecap="round" stroke-linejoin="round"/>
<path d="M153.873 121.621L155.339 114.342" stroke="#171717" stroke-width="3.369" stroke-linecap="round" stroke-linejoin="round"/>
<path d="M157.937 118.441L152.162 117.814" stroke="#171717" stroke-width="3.369" stroke-linecap="round" stroke-linejoin="round"/>
<path d="M102.791 202.714C102.025 202.361 101.15 202.324 100.356 202.612C99.5626 202.9 98.9147 203.49 98.5534 204.253C98.1921 205.016 98.1465 205.89 98.4265 206.687C98.7065 207.483 99.2895 208.137 100.049 208.506C100.808 208.875 101.683 208.93 102.482 208.658C103.281 208.386 103.94 207.809 104.317 207.054C104.694 206.298 104.757 205.425 104.494 204.623C104.23 203.821 103.66 203.155 102.908 202.771" stroke="#171717" stroke-width="3.369" stroke-linecap="round" stroke-linejoin="round"/>
<path d="M117.583 196.338C111.222 200.92 106.852 207.759 105.364 215.457C104.955 217.628 104.86 220.106 106.282 221.797C107.704 223.488 111.101 223.331 111.589 221.177C112.012 219.311 109.76 217.658 107.899 218.102C106.037 218.547 104.8 220.375 104.32 222.227C103.425 225.684 104.542 229.296 105.387 232.763C106.232 236.231 106.743 240.143 104.842 243.166L105.625 241.853" stroke="#171717" stroke-width="3.369" stroke-linecap="round" stroke-linejoin="round"/>
<path d="M299.261 211.774C292.216 215.732 289.126 224.097 286.777 231.829C285.939 234.596 285.115 237.417 285.119 240.307C285.122 243.198 286.062 246.216 288.238 248.118C290.414 250.021 293.962 250.456 296.195 248.62C298.429 246.784 298.383 242.647 295.836 241.283C295.059 240.892 294.176 240.764 293.321 240.92C292.465 241.075 291.684 241.506 291.096 242.147C289.273 244.227 290.127 247.405 290.785 250.09C292.031 255.185 292.19 260.485 291.254 265.646C290.67 268.839 289.589 272.091 287.265 274.359C284.942 276.627 281.117 277.599 278.359 275.886" stroke="#171717" stroke-width="3.369" stroke-linecap="round" stroke-linejoin="round"/>
<path d="M274.155 260.685L278.189 257.491" stroke="#171717" stroke-width="3.369" stroke-linecap="round" stroke-linejoin="round"/>
<path d="M277.259 261.52L275.23 256.898" stroke="#171717" stroke-width="3.369" stroke-linecap="round" stroke-linejoin="round"/>
<path d="M306.992 230.91L304.408 226.566" stroke="#171717" stroke-width="3.369" stroke-linecap="round" stroke-linejoin="round"/>
<path d="M303.348 231.498L307.957 227.723" stroke="#171717" stroke-width="3.369" stroke-linecap="round" stroke-linejoin="round"/>
<path d="M138.929 90.3514L145.256 97.4896L141.617 81.2106C145.579 80.5055 149.36 79.0191 152.74 76.8378" stroke="#171717" stroke-width="3.369" stroke-linecap="round" stroke-linejoin="round"/>
<path d="M42.0105 195.318C42.2001 193.161 42.9107 191.083 44.0813 189.261" stroke="#171717" stroke-width="3.369" stroke-linecap="round" stroke-linejoin="round"/>
<path d="M44.9698 193.813L39.676 190.794" stroke="#171717" stroke-width="3.369" stroke-linecap="round" stroke-linejoin="round"/>
<path d="M67.8293 166.342C70.0227 168.108 72.7527 169.074 75.5687 169.08" stroke="#171717" stroke-width="3.369" stroke-linecap="round" stroke-linejoin="round"/>
<path d="M131.578 118.695C132.5 117.307 132.95 115.659 132.862 113.995C132.774 112.331 132.153 110.74 131.091 109.456" stroke="#171717" stroke-width="3.369" stroke-linecap="round" stroke-linejoin="round"/>
<path d="M20.9463 97.9234C18.6681 97.6916 16.4824 96.9008 14.5833 95.6211" stroke="#171717" stroke-width="3.369" stroke-linecap="round" stroke-linejoin="round"/>
<path d="M17.923 93.562L16.4814 100.21" stroke="#171717" stroke-width="3.369" stroke-linecap="round" stroke-linejoin="round"/>
<path d="M67.1872 249.947C64.7026 249.991 62.2384 249.495 59.9641 248.494" stroke="#171717" stroke-width="3.369" stroke-linecap="round" stroke-linejoin="round"/>
<path d="M63.057 244.45L62.8018 254.277" stroke="#171717" stroke-width="3.369" stroke-linecap="round" stroke-linejoin="round"/>
<path d="M81.6957 29.2906L85.4076 32.0151C85.5195 32.0974 85.6037 32.212 85.6486 32.3435C85.6934 32.475 85.6967 32.6171 85.6584 32.7507C85.6201 32.8843 85.5417 33.0029 85.4342 33.0906C85.3263 33.1783 85.1943 33.2309 85.0557 33.2412L80.4642 33.5843C80.33 33.5944 80.202 33.6439 80.096 33.7266C79.9902 33.8093 79.9111 33.9215 79.8692 34.0491L78.4251 38.4212C78.3817 38.5536 78.2989 38.6699 78.1874 38.7537C78.0762 38.8372 77.9416 38.885 77.8024 38.8897C77.6631 38.8948 77.5256 38.8565 77.409 38.7807C77.2919 38.7049 77.2012 38.5948 77.149 38.4657L75.4038 34.2048C75.3527 34.0805 75.266 33.974 75.1548 33.8989C75.0432 33.8238 74.9119 33.7833 74.7778 33.7826L70.1749 33.7604C70.0356 33.7599 69.9 33.7169 69.7863 33.637C69.6725 33.5571 69.5857 33.4442 69.538 33.3136C69.4902 33.1829 69.484 33.0407 69.5194 32.9063C69.5551 32.7718 69.6313 32.6515 69.7374 32.5616L73.2505 29.5852C73.353 29.4982 73.4274 29.3829 73.4646 29.2537C73.5014 29.1246 73.4995 28.9873 73.4587 28.8593L72.0573 24.4734C72.015 24.341 72.0142 24.1988 72.0551 24.066C72.0959 23.9333 72.1768 23.8162 72.2862 23.7306C72.3956 23.6451 72.5287 23.5952 72.6676 23.5875C72.8065 23.5799 72.9439 23.615 73.0624 23.688L76.9788 26.1092C77.0929 26.1799 77.2256 26.2152 77.3598 26.2105C77.4939 26.2059 77.6241 26.1615 77.7331 26.083L81.4715 23.3949C81.5842 23.3137 81.7191 23.269 81.858 23.2668C81.9973 23.2647 82.1332 23.3052 82.2485 23.3829C82.364 23.4606 82.4526 23.5718 82.5026 23.7015C82.5525 23.8311 82.5616 23.973 82.5288 24.108L81.4351 28.5811C81.4034 28.7119 81.411 28.8491 81.4577 28.9754C81.504 29.1017 81.5867 29.2114 81.6957 29.2906Z" fill="#171717"/>
<path d="M286.642 121.142L285.661 115.367" stroke="#171717" stroke-width="3.369" stroke-linecap="round" stroke-linejoin="round"/>
<path d="M282.961 119.547L288.946 117.659" stroke="#171717" stroke-width="3.369" stroke-linecap="round" stroke-linejoin="round"/>
<path d="M215.505 89.6099C214.473 92.6837 213.062 95.6175 211.306 98.3435C213.777 98.7357 216.078 99.8466 217.921 101.538C218.276 101.866 218.779 102.236 219.186 101.975C219.336 101.861 219.451 101.708 219.522 101.534L223.672 93.4267" stroke="#171717" stroke-width="3.369" stroke-linecap="round" stroke-linejoin="round"/>
<path d="M223.093 93.3202C227.475 91.0368 232.172 88.4293 234.146 83.9005C234.742 82.5336 235.052 81.0593 235.056 79.5681C235.061 78.0766 234.76 76.6004 234.171 75.2299C233.583 73.8598 232.72 72.6246 231.636 71.6005C230.552 70.5768 229.27 69.7856 227.868 69.2767C226.466 68.7677 224.975 68.5511 223.487 68.6405C221.998 68.7301 220.544 69.1235 219.213 69.7969C217.883 70.4703 216.704 71.4095 215.751 72.5557C214.797 73.7023 214.089 75.032 213.669 76.463C212.367 80.8992 213.976 85.6326 215.836 89.8647" stroke="#171717" stroke-width="3.369" stroke-linecap="round" stroke-linejoin="round"/>
<path d="M215.662 89.4399C218.136 90.3306 220.483 91.541 222.643 93.0402" stroke="#171717" stroke-width="3.369" stroke-linecap="round" stroke-linejoin="round"/>
<path d="M215.039 93.52L220.169 95.6313" stroke="#171717" stroke-width="3.369" stroke-linecap="round" stroke-linejoin="round"/>
<path d="M221.579 91.1334L228.478 82.4859C227.537 82.8869 226.514 83.3 225.519 83.0612C224.524 82.8224 223.724 81.605 224.289 80.7516C223.987 81.1034 223.576 81.3433 223.121 81.4326C222.666 81.5219 222.195 81.4552 221.782 81.2434C221.37 81.0319 221.041 80.6874 220.849 80.2659C220.656 79.8441 220.611 79.3702 220.721 78.9199L218.939 86.4157" stroke="#171717" stroke-width="3.369" stroke-linecap="round" stroke-linejoin="round"/>
<path d="M210.696 70.35L208.491 67.9208" stroke="#171717" stroke-width="3.369" stroke-linecap="round" stroke-linejoin="round"/>
<path d="M220.482 62.1228L218.495 52.6039" stroke="#171717" stroke-width="3.369" stroke-linecap="round" stroke-linejoin="round"/>
<path d="M234.537 67.8041L236.694 65.084" stroke="#171717" stroke-width="3.369" stroke-linecap="round" stroke-linejoin="round"/>
<path d="M239.312 77.6223L246.893 75.5293" stroke="#171717" stroke-width="3.369" stroke-linecap="round" stroke-linejoin="round"/>
<path d="M235.492 88.1621L237.85 90.1567" stroke="#171717" stroke-width="3.369" stroke-linecap="round" stroke-linejoin="round"/>
<path fill-rule="evenodd" clip-rule="evenodd" d="M56.7436 82.2566C58.9464 80.4388 59.6381 77.233 59.0445 74.4406C58.2968 70.9235 55.6666 68.1147 52.4281 66.69C49.2755 65.298 46.7169 66.6491 44.8414 69.3963C43.4987 71.3617 43.4061 73.8795 43.953 76.1316C44.6205 78.8747 46.2994 81.4501 48.7804 82.7929C51.2614 84.1356 54.5652 84.058 56.7436 82.2566ZM49.5887 67.5657C49.25 67.5537 48.9652 67.8187 48.9532 68.1578C48.9408 68.4965 49.2059 68.7812 49.5449 68.7932C50.5366 68.829 51.5115 69.0612 52.4127 69.4772C53.3136 69.8932 54.123 70.4842 54.7935 71.2163C55.4636 71.948 55.9817 72.8058 56.3171 73.7399C56.6525 74.674 56.7987 75.6656 56.7473 76.6566C56.7298 76.9953 56.9901 77.2844 57.3288 77.3019C57.6675 77.3194 57.9562 77.0591 57.9737 76.7204C58.0339 75.5665 57.8636 74.4122 57.4732 73.325C57.0827 72.2375 56.4797 71.2385 55.6991 70.3865C54.9185 69.5344 53.9764 68.8465 52.9275 68.3619C51.8783 67.8778 50.7433 67.6072 49.5887 67.5657Z" fill="#171717"/>
<path d="M41.027 73.8011C41.0634 77.0824 42.4488 80.2251 44.4435 82.6241C47.3277 86.0905 51.8719 88.1388 55.9012 86.7001C59.6152 85.3741 62.2592 81.1464 62.3821 76.7791C62.5049 72.4117 60.2518 68.141 56.9202 65.8722C53.8388 63.7736 49.3063 63.0747 45.8752 64.5484C42.8725 65.8386 40.988 70.4295 41.027 73.8011Z" stroke="#171717" stroke-width="2.809" stroke-linecap="round" stroke-linejoin="round"/>
<g opacity="0.1">
<path d="M22.349 37.1325C17.4748 43.9432 19.075 53.3371 21.7835 60.6605C24.5781 68.1155 27.953 75.3397 31.8773 82.2668C39.5161 95.9405 49.0817 108.445 60.2802 119.395C66.6393 125.536 73.3586 131.293 80.4023 136.636C82.7491 138.427 85.1054 134.412 82.7313 132.651C70.8965 123.885 60.5019 113.086 51.6159 101.358C42.6359 89.5851 35.0947 76.7813 29.1528 63.2188C27.4283 59.2448 25.7903 55.1323 24.8631 50.8904C23.8988 46.4789 23.5674 42.5108 24.535 38.053C24.6011 37.7759 24.5668 37.4843 24.438 37.2302C24.3092 36.976 24.0944 36.7755 23.8319 36.6651C23.5693 36.5546 23.276 36.5407 23.0042 36.6261C22.7324 36.7114 22.4997 36.8904 22.3475 37.1314L22.349 37.1325Z" fill="#171717"/>
</g>
<g opacity="0.1">
<path d="M62.8284 94.8339C62.0748 97.3459 62.5265 99.6041 63.0901 102.101C63.6381 104.605 64.3837 107.062 65.3196 109.449C67.2282 114.185 69.7019 118.672 72.6867 122.815C75.6355 126.983 79.021 130.825 82.7857 134.275C86.5281 137.679 90.8043 141.165 95.3926 143.364C96.4236 143.858 97.9264 143.911 98.7435 142.931C99.0596 142.576 99.3013 142.161 99.4544 141.711C99.8638 140.515 99.1682 139.234 98.1838 138.588C94.1986 135.972 90.2797 133.555 86.7239 130.337C83.144 127.113 79.9317 123.503 77.1459 119.573C74.4298 115.647 72.0778 111.482 70.1189 107.129C69.1462 105.017 68.1648 102.817 67.3827 100.632C66.573 98.3718 65.8828 96.3327 64.3716 94.4267C63.9185 93.8554 63.0099 94.2316 62.8291 94.8339H62.8284Z" fill="#171717"/>
</g>
<g opacity="0.1">
<path d="M96.8278 110.943C97.6321 112.685 99.7613 113.535 101.358 114.441C103.187 115.478 105.049 116.45 106.943 117.357C110.616 119.163 114.404 120.723 118.284 122.028C120.876 122.874 122.752 118.646 120.173 117.546C116.518 115.988 112.851 114.451 109.288 112.69C107.603 111.857 105.93 110.999 104.27 110.115C102.553 109.203 100.655 107.653 98.6431 107.778C96.9616 107.883 96.1453 109.462 96.8278 110.941V110.943Z" fill="#171717"/>
</g>
<g opacity="0.1">
<path d="M45.948 107.488C45.824 110.348 46.0216 113.214 46.5375 116.03C47.0713 118.651 47.7844 121.232 48.671 123.755C50.4732 129.047 52.8025 134.145 55.6229 138.972C58.4605 143.795 61.7599 148.331 65.4747 152.516C67.2487 154.516 69.1242 156.424 71.0936 158.232C73.1623 160.131 75.5416 162.809 78.397 163.176C79.9541 163.376 81.4394 161.361 80.8689 159.931C79.8845 157.468 77.1023 155.914 75.1781 154.147C73.2093 152.34 71.331 150.433 69.5456 148.445C66.1379 144.64 63.1078 140.513 60.4981 136.122C57.8658 131.737 55.6477 127.117 53.8718 122.321C52.9516 119.81 52.167 117.251 51.4047 114.689C50.6391 112.121 49.7192 109.628 48.9018 107.089C48.3856 105.485 45.991 105.759 45.9487 107.49L45.948 107.488Z" fill="#171717"/>
</g>
<g opacity="0.1">
<path d="M138.751 197.316C136.327 194.578 131.77 194.042 128.444 195.148C126.575 195.78 124.852 196.78 123.376 198.089C121.9 199.398 120.701 200.988 119.849 202.768C116.141 210.815 119.495 220.167 126.044 225.645L126.66 220.864C119.55 223.916 113.708 230.431 112.422 238.182C111.787 242.014 112.41 246.129 113.87 249.711C115.285 253.181 117.555 257.49 121.228 258.928C122.914 259.589 124.254 257.404 123.467 256.016C122.706 254.677 121.517 253.692 120.617 252.455C119.65 251.157 118.883 249.721 118.341 248.196C117.336 245.265 117.123 242.121 117.726 239.082C118.866 233.188 123.129 227.991 129.006 226.431C131.174 225.855 132.024 222.914 130.349 221.342C126.157 217.406 123.031 211.911 124.854 206.039C125.662 203.437 127.145 201.28 129.72 200.169C132.305 199.054 134.753 199.093 137.453 199.546C138.757 199.764 139.677 198.362 138.751 197.318V197.316Z" fill="#171717"/>
</g>
<g opacity="0.1">
<path d="M165.208 221.519C162.412 220.137 158.858 223.263 157.29 225.353C155.252 228.069 154.019 233.691 156.783 236.33C158.327 237.804 160.39 236.604 160.634 234.735C160.802 233.447 160.199 232.208 160.229 230.898C160.262 229.653 160.576 228.432 161.148 227.325C161.637 226.374 162.329 225.543 163.177 224.89C164.096 224.236 164.958 223.908 165.57 222.896C165.703 222.665 165.739 222.391 165.671 222.133C165.604 221.874 165.437 221.654 165.208 221.517V221.519Z" fill="#171717"/>
</g>
<g opacity="0.1">
<path d="M172.857 237.638C170.821 237.625 169.37 237.956 167.63 239.107C166.026 240.148 164.661 241.517 163.625 243.124C161.477 246.528 160.807 251.591 162.687 255.245C163.744 257.303 166.598 255.792 166.217 253.757C165.616 250.546 165.347 247.815 167.165 244.888C168.592 242.591 171.066 240.955 173.427 239.739C174.448 239.214 173.935 237.644 172.857 237.638H172.857Z" fill="#171717"/>
</g>
<g opacity="0.1">
<path d="M192.458 238.267C188.251 238.619 184.47 242.18 182.599 245.787C181.455 247.931 180.83 250.312 180.776 252.741C180.737 255.024 181.091 258.003 182.405 259.921C184.039 262.304 188.056 260.905 187.228 257.887C186.771 256.219 185.972 254.816 185.856 253.044C185.709 251.258 185.962 249.461 186.596 247.785C187.926 244.535 190.497 243.002 193.217 241.069C194.311 240.293 194.087 238.131 192.458 238.267Z" fill="#171717"/>
</g>
<g opacity="0.1">
<path d="M193.893 236.61C194.533 235.598 194.391 234.388 194.855 233.313C195.356 232.276 196.173 231.425 197.189 230.882C200.018 229.199 197.541 225.174 194.646 226.532C192.568 227.508 191.155 229.565 190.699 231.77C190.282 233.782 190.407 236.27 192.562 237.152C192.812 237.219 193.078 237.203 193.319 237.105C193.559 237.008 193.761 236.833 193.893 236.61Z" fill="#171717"/>
</g>
<g opacity="0.1">
<path d="M192.357 202.627C195.323 196.861 187.639 189.51 181.891 192.399C180.83 192.933 179.886 194.31 180.383 195.539C180.907 196.833 182.474 197.051 183.674 197.071C187.138 197.129 188.156 199.27 189.233 202.219C189.7 203.495 191.633 204.034 192.357 202.627V202.627Z" fill="#171717"/>
</g>
<g opacity="0.1">
<path d="M249.005 220.733C253.434 218.705 255.504 213.758 255.627 209.066C255.711 206.666 255.227 204.279 254.214 202.101C253.201 199.924 251.688 198.016 249.798 196.534C249.364 196.144 248.822 195.895 248.244 195.82C247.666 195.746 247.079 195.849 246.56 196.116L246.337 196.213C245.645 196.514 245.237 197.422 245.237 198.132C245.237 200.419 247.545 201.206 248.889 202.723C250.257 204.212 251.233 206.018 251.727 207.978C252.745 212.24 250.359 216.342 247.906 219.633C247.372 220.35 248.367 221.025 249.005 220.732V220.733Z" fill="#171717"/>
</g>
<g opacity="0.1">
<path d="M253.508 195.093C254.824 195.662 255.609 195.889 257.059 195.373C258.473 194.868 259.799 194.144 260.99 193.229C263.341 191.477 265.201 189.15 266.391 186.471C267.608 183.65 268.161 180.432 267.476 177.399C266.832 174.544 264.176 170.423 260.777 171.335C260.439 171.434 260.128 171.608 259.867 171.843C259.605 172.079 259.401 172.371 259.268 172.697C259.136 173.023 259.078 173.375 259.101 173.726C259.123 174.077 259.225 174.419 259.398 174.725C259.977 175.819 260.964 176.049 261.714 176.925C262.398 177.725 262.634 178.858 262.696 179.873C262.764 181.876 262.289 183.86 261.322 185.616C260.43 187.363 259.167 188.894 257.621 190.101C256.772 190.706 255.889 191.262 254.977 191.765C254.037 192.328 253.772 192.832 253.134 193.667C252.995 193.906 252.956 194.191 253.026 194.458C253.096 194.725 253.269 194.954 253.508 195.094V195.093Z" fill="#171717"/>
</g>
<g opacity="0.1">
<path d="M264.461 167.314C268.668 164.453 268.345 157.754 266.113 153.713C265.005 151.702 263.319 150.069 261.274 149.025C259.179 147.999 256.268 147.115 254.378 148.92C253.583 149.679 253.462 151.304 254.378 152.041C255.668 153.078 257.012 152.886 258.466 153.475C259.83 154.035 260.988 155.002 261.782 156.245C263.775 159.395 262.369 162.905 262.712 166.311C262.793 167.113 263.663 167.857 264.462 167.315L264.461 167.314Z" fill="#171717"/>
</g>
<g opacity="0.1">
<path d="M242.888 157.152C245.503 154.884 246.073 151.521 244.076 148.602C242.005 145.576 237.951 143.792 234.495 145.59C231.919 146.931 233.248 150.771 235.917 150.845C237.372 150.885 238.873 150.584 240.011 151.737C240.965 152.705 241.605 154.962 241.372 156.271C241.326 156.462 241.343 156.663 241.42 156.844C241.497 157.025 241.631 157.176 241.801 157.275C241.971 157.374 242.168 157.416 242.364 157.394C242.559 157.371 242.742 157.287 242.886 157.152H242.888Z" fill="#171717"/>
</g>
<g opacity="0.1">
<path d="M212.858 158.985C216.147 153.17 213.627 144.685 209.923 139.61C207.913 136.875 205.382 134.564 202.475 132.812C199.485 131.001 195.843 130.285 192.378 130.078C192.041 130.071 191.708 130.157 191.415 130.325C191.123 130.492 190.881 130.737 190.716 131.031C190.644 131.173 190.557 131.306 190.455 131.428C190.396 131.465 190.345 131.514 190.307 131.573C190.268 131.632 190.244 131.699 190.235 131.768C190.226 131.838 190.233 131.908 190.255 131.975C190.277 132.042 190.313 132.102 190.362 132.153C190.42 132.192 190.466 132.246 190.494 132.311C190.522 132.374 190.532 132.445 190.522 132.514C190.606 132.838 190.775 133.133 191.012 133.369C191.248 133.605 191.543 133.774 191.866 133.859C193.409 134.252 194.715 134.548 196.062 135.397C197.169 136.096 198.392 136.625 199.528 137.29C201.933 138.68 204.044 140.526 205.742 142.725C207.533 145.026 208.87 147.649 209.679 150.451C210.434 153.188 210.668 156.023 211.328 158.784C211.375 158.94 211.467 159.079 211.591 159.185C211.716 159.29 211.868 159.358 212.03 159.379C212.191 159.4 212.356 159.374 212.503 159.304C212.65 159.234 212.774 159.122 212.86 158.984L212.858 158.985Z" fill="#171717"/>
</g>
<g opacity="0.1">
<path d="M176.687 159.165C177 158.124 177.443 157.354 176.78 156.296C176.294 155.622 175.671 155.058 174.952 154.642C173.425 153.66 171.374 153.236 169.702 154.007C167.795 154.885 168.542 157.624 170.249 158.182C171.073 158.451 171.767 158.309 172.44 158.481C173.132 158.658 173.518 158.981 174.171 159.268L173.454 158.552C173.56 158.758 173.7 158.951 173.788 159.165C174.325 160.482 176.227 160.697 176.688 159.165H176.687Z" fill="#171717"/>
</g>
<g opacity="0.1">
<path d="M161.931 163.826C161.437 162.406 161.172 161.464 159.809 160.6C158.456 159.802 156.944 159.314 155.381 159.169C152.412 158.804 149.022 160.712 148.892 163.915C148.853 164.873 149.803 165.413 150.644 165.25C152.304 164.927 153.762 163.981 155.411 163.615C156.24 163.431 157.107 163.542 157.864 163.928C158.636 164.279 159.671 164.585 160.374 165.022C161.13 165.492 162.237 164.705 161.931 163.826V163.826Z" fill="#171717"/>
</g>
<g opacity="0.1">
<path d="M221.596 125.315C224.741 124.645 226.067 120.679 225.278 117.834C224.533 115.148 219.814 111.673 217.895 115.25C217.462 116.056 217.794 117.328 218.816 117.515C220.251 117.776 221.862 117.456 222.316 119.271C222.737 120.952 221.613 122.357 220.533 123.487C220.37 123.66 220.267 123.881 220.239 124.118C220.212 124.354 220.262 124.593 220.382 124.798C220.502 125.004 220.685 125.165 220.904 125.258C221.123 125.352 221.366 125.371 221.597 125.315H221.596Z" fill="#171717"/>
</g>
<g opacity="0.1">
<path d="M166.538 133.452C168.517 132.595 168.828 129.556 168.167 127.764C167.358 125.569 165.253 124.289 162.984 124.145C162.611 124.149 162.25 124.273 161.954 124.499C161.657 124.724 161.442 125.039 161.339 125.397C161.272 125.616 161.252 125.847 161.282 126.073C161.311 126.3 161.389 126.518 161.511 126.712C161.66 126.971 161.875 127.185 162.133 127.333C162.392 127.481 162.685 127.559 162.984 127.557C164.045 127.56 165.062 128.065 165.427 129.122C165.817 130.256 165.127 131.127 164.894 132.187C164.668 133.212 165.651 133.836 166.539 133.452L166.538 133.452Z" fill="#171717"/>
</g>
<g opacity="0.1">
<path d="M145.763 135.455C145.946 135.401 145.966 135.37 145.823 135.364C146.012 135.364 146.197 135.314 146.359 135.218C146.535 135.123 146.697 135.005 146.842 134.867C147.211 134.503 147.453 134.03 147.531 133.518C147.64 132.969 147.619 132.403 147.471 131.864C147.324 131.324 147.053 130.827 146.68 130.41C145.136 128.688 142.095 128.556 140.752 130.569C139.95 131.772 141.293 133.583 142.685 133.084C142.877 133.015 143.063 132.905 143.258 132.852C143.076 132.902 143.202 132.898 143.317 132.87L143.762 132.683C143.614 132.749 143.602 132.761 143.725 132.719C144.001 132.623 143.47 132.748 143.758 132.698C143.789 132.693 144.134 132.694 143.958 132.68C143.791 132.667 144.109 132.716 144.149 132.728C144.405 132.807 143.985 132.617 144.213 132.755C144.405 132.872 144.076 132.537 144.348 132.862C144.238 132.732 144.36 132.886 144.395 132.942C144.455 133.04 144.507 133.142 144.55 133.249C144.468 133.044 144.639 133.63 144.607 133.466C144.667 133.769 144.68 134.08 144.752 134.381C144.777 134.493 144.809 134.602 144.848 134.71C144.971 135.035 144.906 134.317 144.755 134.682C144.507 135.282 145.287 135.692 145.759 135.454L145.763 135.455Z" fill="#171717"/>
</g>
<g opacity="0.1">
<path d="M141.96 156.999C142.351 156.118 142.642 155.583 142.369 154.571C142.071 153.608 141.471 152.766 140.658 152.169C138.968 150.893 136.036 150.929 134.765 152.732C133.965 153.866 135.282 155.026 136.386 154.841C137.41 154.669 138.129 154.085 139.177 154.639C139.553 154.851 139.864 155.162 140.078 155.537C140.391 155.945 140.656 156.387 140.867 156.856C140.998 157.307 141.742 157.493 141.961 156.999H141.96Z" fill="#171717"/>
</g>
<g opacity="0.1">
<path d="M99.9301 202.843C99.5243 203.047 99.171 203.341 98.8972 203.703C98.6234 204.065 98.4364 204.486 98.3507 204.932C98.152 205.758 98.1513 207.01 98.8611 207.607C99.3391 208.01 100.248 207.935 100.388 207.204C100.497 206.635 100.315 206.074 100.386 205.49C100.491 204.931 100.701 204.397 101.006 203.917C101.088 203.766 101.119 203.594 101.095 203.424C101.07 203.254 100.991 203.098 100.87 202.976C100.749 202.855 100.592 202.777 100.423 202.752C100.253 202.728 100.08 202.759 99.9301 202.841V202.843Z" fill="#171717"/>
</g>
<g opacity="0.1">
<path d="M89.5052 237.559C86.0241 236.197 83.4567 241.294 83.7276 244.114C83.8953 245.892 84.7423 247.538 86.0923 248.708C87.4099 249.838 89.426 250.932 91.067 249.923C91.8432 249.446 92.1003 248.244 91.3678 247.59C90.5606 246.867 89.7294 246.908 88.8121 246.417C88.2856 246.145 87.8299 245.754 87.4817 245.274C87.1335 244.794 86.9024 244.239 86.8069 243.655C86.5196 241.243 88.6808 240.228 89.9135 238.565C90.2026 238.175 89.8705 237.704 89.5052 237.561V237.559Z" fill="#171717"/>
</g>
<g opacity="0.1">
<path d="M83.0422 138.745C84.1965 140.587 85.5757 142.279 87.1485 143.781C88.978 145.549 90.8483 147.277 92.6902 149.033C96.0444 152.228 99.4612 155.35 102.873 158.484C109.869 164.911 116.777 171.431 123.742 177.89C130.707 184.349 137.75 190.736 144.611 197.318C147.954 200.527 151.3 203.735 154.573 207.016C157.997 210.45 161.281 214.106 164.898 217.334C168.884 220.891 172.632 224.655 176.468 228.369C180.305 232.084 184.069 235.823 187.585 239.854C188.218 240.579 189.341 239.479 188.649 238.79C185.188 235.348 181.936 231.756 178.709 228.095C175.641 224.615 172.387 221.297 169.386 217.761C163.246 210.526 156.282 203.98 149.622 197.223C136.273 183.677 122.817 170.323 108.737 157.531C104.791 153.945 100.856 150.345 96.775 146.912C94.8205 145.267 92.8616 143.628 90.8983 141.994C89.8862 141.151 88.8584 140.341 87.8157 139.537C86.7023 138.74 85.5006 138.074 84.2348 137.552C83.502 137.211 82.5373 137.946 83.0422 138.745Z" fill="#171717"/>
</g>
<defs>
<linearGradient id="paint0_linear_85_235" x1="81.1093" y1="92.9359" x2="81.1093" y2="143.58" gradientUnits="userSpaceOnUse">
<stop stop-color="#42E670"/>
<stop offset="1" stop-color="#07AA50"/>
</linearGradient>
<linearGradient id="paint1_linear_85_235" x1="104.008" y1="78.9932" x2="104.008" y2="121.813" gradientUnits="userSpaceOnUse">
<stop stop-color="#42E670"/>
<stop offset="1" stop-color="#07AA50"/>
</linearGradient>
<linearGradient id="paint2_linear_85_235" x1="35.0827" y1="34.5418" x2="35.0827" y2="71.513" gradientUnits="userSpaceOnUse">
<stop stop-color="#42E670"/>
<stop offset="1" stop-color="#07AA50"/>
</linearGradient>
<linearGradient id="paint3_linear_85_235" x1="63.9888" y1="102.589" x2="63.9888" y2="163.923" gradientUnits="userSpaceOnUse">
<stop stop-color="#42E670"/>
<stop offset="1" stop-color="#07AA50"/>
</linearGradient>
</defs>
</svg>
