<svg width="350" height="350" viewBox="0 0 350 350" fill="none" xmlns="http://www.w3.org/2000/svg">
<path fill-rule="evenodd" clip-rule="evenodd" d="M201.33 140.661C203.62 129.157 204.166 119.402 200.528 108.255C196.895 97.1024 191.395 86.6669 185.924 76.2978C184.774 74.1161 183.287 71.6858 180.848 71.3212C177.796 70.8659 175.461 73.8817 173.861 76.5231C169.903 83.0714 165.945 89.6182 161.987 96.1636C160.652 98.3726 159.273 100.753 159.399 103.331C159.51 105.505 160.66 107.389 161.815 109.282C162.346 110.152 162.878 111.024 163.312 111.927C164.243 113.876 164.723 116.011 164.714 118.171L164.66 118.208C167.19 122.067 169.249 126.198 171.379 130.473C171.605 130.927 171.832 131.382 172.061 131.84C177.006 142.343 182.158 152.634 187.378 163.006C191.444 159.382 193.505 157.065 196.178 153.378C198.887 149.65 200.433 145.182 201.33 140.661ZM189.985 93.9531C189.782 93.6396 189.364 93.5499 189.05 93.7529C188.737 93.956 188.647 94.3746 188.85 94.6881C196.094 105.875 198.92 119.355 196.779 132.51C196.719 132.878 196.969 133.225 197.338 133.285C197.706 133.345 198.054 133.095 198.114 132.727C200.309 119.241 197.411 105.421 189.985 93.9531Z" fill="url(#paint0_linear_33_236)"/>
<path fill-rule="evenodd" clip-rule="evenodd" d="M128.917 118.902C127.546 115.836 126.077 112.821 124.481 109.854C123.999 108.935 123.494 108.02 122.98 107.115C121.33 104.198 119.513 101.296 116.93 99.1633C114.348 97.0308 110.84 95.7687 107.595 96.5981C103.917 97.5449 101.298 100.998 100.319 104.667C99.3412 108.337 99.7233 112.222 100.234 115.982C100.477 117.777 100.748 119.569 101.045 121.359C101.568 124.526 102.181 127.673 102.884 130.802C107.129 149.825 114.609 168.132 125.504 184.269C128.561 188.786 133.041 193.51 139.118 192.293C143.259 191.468 146.29 185.942 146.759 182.123C147.183 178.689 146.34 175.24 145.501 171.882C141.021 153.914 136.458 135.743 128.917 118.902ZM118.239 106.608C118.057 106.282 117.646 106.164 117.319 106.346C116.993 106.527 116.875 106.938 117.056 107.265C128.583 128.028 136.081 150.784 139.153 174.333C139.201 174.703 139.541 174.964 139.911 174.916C140.281 174.867 140.542 174.528 140.494 174.158C137.4 150.44 129.848 127.521 118.239 106.608Z" fill="url(#paint1_linear_33_236)"/>
<path fill-rule="evenodd" clip-rule="evenodd" d="M210.482 294.995C213.811 287.4 216.034 279.368 217.086 271.144C217.437 268.423 217.673 265.694 217.791 262.957C217.849 261.623 217.881 260.293 217.89 258.959C188.864 256.196 158.856 266.23 137.326 285.884C139.175 288.052 141.082 290.171 143.047 292.24C144.241 293.496 145.454 294.733 146.685 295.95L146.694 296.162C150.26 296.022 153.833 295.891 157.412 295.77L162.276 285.023L170.123 280.678L179.035 283.964L179.148 283.968L179.351 279.722L183.065 271.022L191.869 270.174L201.096 279.402L203.747 289.797L207.8 295.107H207.804L207.935 295.004H207.943C208.788 295.004 209.637 295.004 210.482 295.008V294.995ZM214.018 264.956C214.006 264.584 213.694 264.291 213.32 264.304C212.947 264.316 212.654 264.629 212.667 265.002C212.923 272.671 211.383 280.295 208.172 287.264C208.015 287.603 208.164 288.005 208.503 288.161C208.842 288.317 209.243 288.169 209.399 287.83C212.7 280.669 214.282 272.837 214.018 264.956Z" fill="url(#paint2_linear_33_236)"/>
<path fill-rule="evenodd" clip-rule="evenodd" d="M158.277 205.947C162.622 205.947 166.87 207.235 170.483 209.649C174.096 212.062 176.912 215.494 178.576 219.508C180.239 223.522 180.674 227.94 179.826 232.202C178.979 236.464 176.886 240.379 173.814 243.451C170.741 246.524 166.826 248.616 162.565 249.464C158.303 250.311 153.885 249.876 149.871 248.213C145.857 246.549 142.425 243.733 140.012 240.12C137.598 236.507 136.31 232.259 136.31 227.914C136.311 222.088 138.626 216.502 142.745 212.382C146.864 208.263 152.451 205.948 158.277 205.947ZM167.659 212.49C167.953 212.088 168.517 212 168.919 212.295C172.285 214.758 174.737 218.269 175.891 222.277C177.044 226.286 176.834 230.563 175.293 234.439C175.109 234.901 174.585 235.127 174.122 234.944C173.659 234.76 173.433 234.235 173.617 233.773C175.011 230.268 175.201 226.4 174.158 222.776C173.115 219.152 170.897 215.977 167.854 213.75C167.452 213.456 167.365 212.891 167.659 212.49ZM150.42 215.379C150.442 215.131 150.259 214.912 150.011 214.89C149.763 214.868 149.544 215.051 149.522 215.299L149.212 218.764L146.711 217.185L146.475 217.036L146.236 217.182L143.372 218.932C143.159 219.061 143.092 219.339 143.222 219.551C143.352 219.764 143.63 219.831 143.842 219.701L146.467 218.097L149.121 219.773L148.568 225.959L148.536 226.311L148.871 226.426L151.061 227.171L149.946 230.24L142.692 232.246L142.271 232.362L142.374 232.786L143.647 238.037C143.706 238.279 143.949 238.428 144.191 238.369C144.433 238.31 144.582 238.066 144.523 237.825L143.353 232.999L150.41 231.047L150.634 230.985L150.714 230.767L151.915 227.462L155.992 228.849L155.489 232.151C155.467 232.211 155.458 232.273 155.461 232.335L154.935 235.795C154.897 236.041 155.066 236.271 155.312 236.308C155.558 236.346 155.789 236.176 155.826 235.93L156.26 233.083L159.002 234.912L159.288 235.102L159.547 234.877L161.934 232.809C162.122 232.646 162.142 232.361 161.979 232.173C161.816 231.985 161.531 231.965 161.343 232.128L159.217 233.971L156.409 232.1L156.94 228.612L156.997 228.239L156.64 228.118L149.497 225.686L149.674 223.713L157.178 222.947L157.662 222.897L157.575 222.418L157.132 222.499C157.575 222.418 157.575 222.418 157.575 222.418L157.575 222.417L157.575 222.414L157.572 222.403L157.564 222.358L157.533 222.189C157.507 222.044 157.468 221.834 157.421 221.579C157.326 221.068 157.197 220.376 157.058 219.649C156.781 218.208 156.459 216.592 156.292 216.011C156.224 215.771 155.974 215.632 155.735 215.701C155.496 215.769 155.357 216.019 155.425 216.258C155.578 216.791 155.892 218.357 156.172 219.819C156.311 220.544 156.44 221.234 156.534 221.743C156.559 221.875 156.581 221.995 156.6 222.1L149.756 222.798L150.42 215.379Z" fill="#171717"/>
<path d="M265.585 277.707L272.036 296.131C266.306 295.91 260.58 295.723 254.856 295.571L249.57 288.417L252.008 281.629L247.342 274.948L251.178 274.06L260.175 271.979L265.585 277.707Z" fill="url(#paint3_linear_33_236)"/>
<path d="M249.568 288.417L254.855 295.571C249.734 295.441 244.612 295.334 239.488 295.252L239.7 281.949L247.34 274.949L252.007 281.63L249.568 288.417Z" fill="#171717"/>
<path d="M251.317 321.775L253.504 327.401L244.898 327.239L245.006 321.933L252.963 315.996L251.317 321.775Z" fill="#171717"/>
<path d="M234.824 280.146L236.722 295.206C235.861 295.193 234.995 295.184 234.133 295.175L234.214 290.671L227.214 285.421L225.145 277.15L217.085 271.145C217.437 268.423 217.671 265.694 217.788 262.959L217.852 262.963L224.219 254.794L230.796 263.494L230.052 273.145L234.824 280.146Z" fill="#171717"/>
<path d="M225.145 277.148L220.93 283.273L222.359 291.387L221.408 294.967V295.047C217.766 295.025 214.124 295.011 210.481 295.007V294.994C213.81 287.399 216.034 279.367 217.085 271.143L225.145 277.148Z" fill="#171717"/>
<path d="M214.885 302.843L218.595 311.858L216.792 319.179L216.814 319.291L211.382 320.45C211.382 320.45 205.337 319.918 204.702 319.918C204.066 319.918 207.884 309.631 207.884 309.631L211.806 309.1L214.885 302.843Z" fill="#171717"/>
<path d="M203.382 298.997L204.941 301.49L198.418 303L193.883 297.117L188.077 292.898L194.677 290.514L199.37 292.583L203.382 298.997Z" fill="url(#paint4_linear_33_236)"/>
<path d="M193.883 297.118L198.418 303L184.178 301.251L184.859 299.791L188.077 292.898L193.883 297.118Z" fill="#171717"/>
<path d="M187.519 323.736L191.972 333.919L172.882 335.407L177.444 327.874L174.365 323.844L175.64 317.479L182.745 323.736H187.519Z" fill="url(#paint5_linear_33_236)"/>
<path d="M183.065 271.022L187.73 278.446L185.607 288.949L177.971 300.404L170.547 297.221L179.035 286.403L179.148 283.968L179.35 279.722L183.065 271.022Z" fill="#171717"/>
<path d="M174.365 323.844L177.444 327.874L172.882 335.407C172.882 335.407 163.97 331.588 163.654 331.377L171.079 319.391L175.64 317.479L174.365 323.844Z" fill="#171717"/>
<path d="M168.622 304.637L172.404 309.577L170.966 313.075L161.189 312.706L163.258 305.867L168.622 304.637Z" fill="#171717"/>
<path d="M170.97 291.068L163.546 297.753L157.186 296.266L157.411 295.77L162.275 285.023L170.123 280.678L166.94 287.038L170.97 291.068Z" fill="#171717"/>
<path d="M150.979 328.776L151.344 333.095L146.867 332.594L143.924 332.197L145.596 329.096L149.175 325.116L150.979 328.776Z" fill="#171717"/>
<path d="M138.275 296.401L138.28 296.505C132.519 296.753 126.766 297.027 121.02 297.329L121.015 297.275L121.173 292.741L122.381 290.811L125.14 286.394L126.343 284.469L128.89 290.117L135.733 292.822L138.275 296.401Z" fill="#171717"/>
<path d="M135.269 306.327L136.35 309.095L132.113 309.014L132.163 306.404L136.08 303.478L135.269 306.327Z" fill="#171717"/>
<path d="M116.426 280.935L117.355 275.318L121.335 283.355L124.991 286.299L125.14 286.394L122.381 290.811L122.286 290.753L115.606 285.898L116.038 283.292L116.264 281.926L116.426 280.935Z" fill="#171717"/>
<path d="M119.505 260.843L104.548 263.548L103.516 275.318L96.434 279.854V293.45L91.7009 288.568L91.7414 288.527L94.7674 265.777C94.7674 265.777 102.561 260.205 103.039 260.048C103.517 259.89 105.266 249.071 105.266 249.071C105.266 249.071 95.2403 237.933 94.9253 237.455L104.468 230.774H104.473C108.809 240.862 113.578 250.771 119.146 260.241C119.262 260.442 119.383 260.645 119.505 260.843Z" fill="url(#paint6_linear_33_236)"/>
<path d="M113.059 314.617L119.424 321.297L115.764 325.116H107.054L106.698 320.662L101.289 316.844L113.059 314.617Z" fill="url(#paint7_linear_33_236)"/>
<path d="M119.027 297.275L119.036 297.433C114.519 297.672 110.008 297.931 105.504 298.208L105.742 295.445L109.242 287.174L114.016 291.388L117.99 292.502L119.027 297.275Z" fill="#171717"/>
<path d="M96.434 293.448V279.854L103.516 275.319L104.548 263.55L109.164 271.979L108.605 281.364L111.548 285.025L111.621 285.11L109.241 287.175L105.741 295.447L105.503 298.21C102.478 298.395 99.4542 298.59 96.4329 298.793L96.434 293.448Z" fill="#171717"/>
<path d="M106.698 320.662L107.054 325.116H101.604L97.3086 323.366L101.289 316.844L106.698 320.662Z" fill="#171717"/>
<path d="M105.265 249.069C105.265 249.069 103.515 259.888 103.038 260.046C102.561 260.203 94.766 265.775 94.766 265.775L91.74 288.525L91.6995 288.566L89.0351 285.821L84.7695 287.795L84.7378 287.727L88.236 265.296L98.8968 255.906L94.9228 237.452C95.2392 237.93 105.265 249.069 105.265 249.069Z" fill="#171717"/>
<path d="M92.5347 201.498C85.9172 201.936 51.7743 193.361 43.5347 168.244C40.1948 158.065 35.2092 146.764 33.2976 136.307C32.9553 134.431 32.6574 132.406 33.4869 130.694C34.8034 127.976 38.2924 127.228 41.3079 127.039C48.6331 126.583 54.5926 129.5 61.5933 131.718C64.8884 132.764 69.6261 134.233 71.6051 137.064C73.7328 140.107 73.8094 144.069 74.143 147.766C74.4766 151.462 74.0303 155.528 77.0866 157.638L77.2937 157.61C77.9656 162.532 79.5476 167.352 81.3041 171.959C82.8995 176.137 84.5945 180.28 86.2581 184.432C87.0379 186.375 87.8134 188.322 88.5659 190.274C89.9903 193.975 91.406 197.681 92.8122 201.394L92.5347 201.498Z" fill="url(#paint8_linear_33_236)"/>
<path d="M78.2179 290.828L81.9322 299.839C78.2583 300.119 74.5844 300.417 70.9109 300.732L78.2179 290.828Z" fill="#171717"/>
<path d="M69.1482 300.854L69.153 300.886C66.4481 301.121 63.7437 301.363 61.0388 301.615L61.6699 292.419L67.5572 282.319L68.2736 291.546L69.1482 300.854Z" fill="#171717"/>
<path d="M100.861 121.39C89.9073 128.138 77.7991 137.023 77.0058 151.038C76.9194 152.623 76.9478 154.212 77.0914 155.794C77.1454 156.402 77.2132 157.006 77.2942 157.61C77.9661 162.532 79.548 167.351 81.3046 171.959C82.9 176.137 84.5949 180.28 86.2585 184.432C87.0384 186.375 87.8138 188.322 88.5663 190.274C89.9908 193.975 91.4061 197.681 92.8126 201.394C94.4719 205.771 96.1489 210.142 97.8439 214.507C99.3263 218.303 100.844 222.086 102.397 225.857C103.077 227.498 103.768 229.137 104.47 230.771C108.807 240.86 113.576 250.768 119.143 260.238C119.261 260.441 119.382 260.644 119.504 260.843C121.572 264.341 123.754 267.77 126.049 271.13C128.619 274.889 131.329 278.542 134.181 282.088C135.205 283.368 136.252 284.633 137.323 285.884C139.17 288.052 141.077 290.17 143.043 292.239C144.238 293.493 145.45 294.729 146.681 295.949" stroke="#171717" stroke-width="3.709" stroke-miterlimit="10" stroke-linecap="round"/>
<path d="M210.481 294.994C213.81 287.4 216.034 279.368 217.085 271.144C217.437 268.421 217.671 265.693 217.788 262.957C217.847 261.623 217.878 260.293 217.888 258.959C217.888 257.792 217.873 256.624 217.843 255.452C217.663 249.638 217.066 243.844 216.056 238.115C213.591 223.83 208.839 209.675 203.164 196.152C200.468 189.732 197.565 183.453 194.599 177.368C192.922 174.009 191.245 170.672 189.568 167.356C188.839 165.9 188.108 164.45 187.377 163.006C182.157 152.633 177.005 142.342 172.059 131.839C169.679 127.078 167.457 122.476 164.658 118.207C164.46 117.905 164.262 117.608 164.054 117.31C162.203 114.559 160.05 112.023 157.635 109.75C148.169 101.186 134.65 106.144 124.48 109.854H124.476" stroke="#171717" stroke-width="3.709" stroke-miterlimit="10" stroke-linecap="round"/>
<path d="M207.935 295.004C208.782 295.004 209.634 295.004 210.482 295.008C214.124 295.012 217.766 295.026 221.408 295.049C225.65 295.075 229.891 295.118 234.132 295.175C234.993 295.184 235.859 295.193 236.721 295.206C237.645 295.22 238.569 295.233 239.489 295.252C244.614 295.333 249.737 295.439 254.856 295.572C260.581 295.725 266.307 295.911 272.035 296.131C289.093 296.798 306.15 297.816 323.244 299.331" stroke="#171717" stroke-width="3.709" stroke-miterlimit="10" stroke-linecap="round"/>
<path d="M26.7793 305.29C38.2027 303.893 49.6226 302.668 61.0388 301.616C63.7433 301.359 66.4481 301.116 69.153 300.887C69.7388 300.833 70.3247 300.784 70.911 300.734C74.5845 300.418 78.2584 300.121 81.9323 299.841C86.7649 299.467 91.5985 299.117 96.434 298.791C99.4586 298.588 102.482 298.395 105.504 298.21C110.011 297.931 114.522 297.672 119.036 297.434C119.699 297.398 120.357 297.361 121.02 297.331C126.767 297.029 132.52 296.754 138.28 296.506C141.079 296.388 143.883 296.274 146.691 296.163C150.257 296.023 153.83 295.893 157.41 295.771" stroke="#171717" stroke-width="3.709" stroke-miterlimit="10" stroke-linecap="round"/>
<path d="M187.221 163.146C187.275 163.101 187.325 163.051 187.379 163.006C191.445 159.382 193.504 157.063 196.178 153.377C198.887 149.649 200.434 145.182 201.33 140.661C203.62 129.157 204.166 119.402 200.528 108.254C196.891 97.1064 191.396 86.6665 185.923 76.2985C184.774 74.1168 183.286 71.6869 180.847 71.322C177.796 70.8666 175.461 73.8824 173.86 76.5238C169.903 83.0736 165.945 89.6204 161.987 96.1643C160.652 98.3733 159.273 100.753 159.398 103.332C159.561 106.505 161.936 109.061 163.311 111.928C164.243 113.877 164.722 116.011 164.713 118.172" stroke="#171717" stroke-width="3.709" stroke-miterlimit="10" stroke-linecap="round"/>
<path d="M77.0866 157.637C74.0303 155.528 74.4765 151.462 74.143 147.765C73.8094 144.069 73.7328 140.106 71.6051 137.064C69.6261 134.233 64.8884 132.762 61.5933 131.717C54.5933 129.5 48.6331 126.583 41.3082 127.038C38.2924 127.228 34.8033 127.976 33.4872 130.694C32.6574 132.408 32.9552 134.431 33.2976 136.306C35.2091 146.764 40.1948 158.065 43.5347 168.244C51.7743 193.361 85.9172 201.935 92.5347 201.498" stroke="#171717" stroke-width="3.709" stroke-miterlimit="10" stroke-linecap="round"/>
<path d="M102.885 130.802C107.132 149.825 114.61 168.132 125.505 184.269C128.562 188.786 133.043 193.51 139.119 192.293C143.262 191.468 146.291 185.942 146.76 182.124C147.184 178.689 146.341 175.24 145.502 171.882C141.021 153.914 136.46 135.743 128.918 118.901C127.548 115.836 126.078 112.821 124.482 109.854C124 108.935 123.495 108.02 122.981 107.114C121.331 104.197 119.518 101.29 116.932 99.1619C114.346 97.0341 110.843 95.7676 107.596 96.597C103.918 97.5449 101.299 100.997 100.32 104.666C99.3423 108.335 99.7254 112.221 100.235 115.98C100.478 117.775 100.748 119.567 101.046 121.358C101.569 124.523 102.182 127.671 102.885 130.802Z" stroke="#171717" stroke-width="3.709" stroke-miterlimit="10" stroke-linecap="round"/>
<path d="M129.084 118.83C140.331 115.185 152.364 114.704 163.865 117.441" stroke="#171717" stroke-width="3.709" stroke-miterlimit="10" stroke-linecap="round"/>
<path d="M77.1094 155.794C84.6107 146.716 92.2739 137.699 102.678 130.847" stroke="#171717" stroke-width="3.709" stroke-miterlimit="10" stroke-linecap="round"/>
<path d="M137.122 286.069C137.189 286.006 137.257 285.947 137.324 285.884C158.854 266.23 188.862 256.196 217.888 258.959C217.919 258.963 217.946 258.963 217.978 258.968" stroke="#171717" stroke-width="3.709" stroke-miterlimit="10" stroke-linecap="round"/>
<path d="M180.248 227.914C180.248 232.259 178.96 236.507 176.546 240.12C174.133 243.733 170.702 246.549 166.688 248.212C162.674 249.876 158.257 250.311 153.995 249.464C149.734 248.617 145.819 246.525 142.746 243.453C139.673 240.38 137.58 236.466 136.732 232.205C135.884 227.943 136.319 223.526 137.981 219.511C139.643 215.497 142.459 212.065 146.071 209.651C149.684 207.237 153.931 205.948 158.276 205.947C164.103 205.947 169.691 208.261 173.811 212.381C177.931 216.5 180.247 222.087 180.248 227.914Z" stroke="#171717" stroke-width="3.709" stroke-miterlimit="10" stroke-linecap="round"/>
<path d="M184.796 227.914C184.797 233.158 183.242 238.285 180.328 242.647C177.415 247.007 173.274 250.407 168.429 252.414C163.584 254.421 158.252 254.947 153.108 253.925C147.964 252.902 143.239 250.377 139.53 246.669C135.821 242.96 133.295 238.236 132.271 233.092C131.248 227.948 131.773 222.616 133.779 217.771C135.786 212.925 139.184 208.783 143.545 205.869C147.905 202.955 153.032 201.399 158.276 201.399C161.759 201.399 165.207 202.084 168.425 203.416C171.642 204.749 174.565 206.702 177.028 209.164C179.49 211.626 181.444 214.549 182.777 217.766C184.11 220.983 184.796 224.432 184.796 227.914Z" stroke="#171717" stroke-width="3.709" stroke-miterlimit="10" stroke-linecap="round"/>
<path d="M189.43 167.424C182.083 167.091 174.835 169.215 168.829 173.46" stroke="#171717" stroke-width="3.709" stroke-miterlimit="10" stroke-linecap="round"/>
<path d="M168.829 173.46C172.691 183.086 177.197 192.442 182.317 201.462C182.317 201.467 182.321 201.467 182.321 201.471" stroke="#171717" stroke-width="3.709" stroke-miterlimit="10" stroke-linecap="round"/>
<path d="M182.195 201.53L182.317 201.462C188.646 197.866 195.828 196.04 203.107 196.176" stroke="#171717" stroke-width="3.709" stroke-miterlimit="10" stroke-linecap="round"/>
<path d="M97.7861 214.598C97.8044 214.566 97.8226 214.539 97.8448 214.508C100.743 209.703 106.653 204.392 112.08 202.936C112.139 202.923 112.198 202.904 112.256 202.891" stroke="#171717" stroke-width="3.709" stroke-miterlimit="10" stroke-linecap="round"/>
<path d="M112.063 202.869C107.239 193.709 103.453 183.498 98.6338 174.334C98.6156 174.303 98.6021 174.271 98.5842 174.24" stroke="#171717" stroke-width="3.709" stroke-miterlimit="10" stroke-linecap="round"/>
<path d="M98.7419 174.294L98.6326 174.334C94.1022 176.016 88.8143 180.104 86.5156 184.328" stroke="#171717" stroke-width="3.709" stroke-miterlimit="10" stroke-linecap="round"/>
<path d="M216.152 238.129L216.057 238.115C211.767 237.54 207.407 237.771 203.201 238.796C203.115 238.814 203.03 238.832 202.946 238.854" stroke="#171717" stroke-width="3.709" stroke-miterlimit="10" stroke-linecap="round"/>
<path d="M217.581 255.461C213.17 254.617 208.64 254.606 204.225 255.43" stroke="#171717" stroke-width="3.709" stroke-miterlimit="10" stroke-linecap="round"/>
<path d="M203.931 255.43C203.387 249.903 203.143 244.35 203.202 238.796V238.729" stroke="#171717" stroke-width="3.709" stroke-miterlimit="10" stroke-linecap="round"/>
<path d="M183.236 199.267C183.182 199.104 183.127 198.947 183.078 198.789" stroke="#171717" stroke-width="3.709" stroke-miterlimit="10" stroke-linecap="round"/>
<path d="M170.912 173.775C170.917 173.785 170.924 173.794 170.93 173.802C170.939 173.811 170.944 173.82 170.952 173.829" stroke="#171717" stroke-width="3.709" stroke-miterlimit="10" stroke-linecap="round"/>
<path d="M171.412 174.478C171.218 174.203 170.993 173.888 170.93 173.802" stroke="#171717" stroke-width="3.709" stroke-miterlimit="10" stroke-linecap="round"/>
<path d="M204.572 240.788C204.531 240.576 204.486 240.36 204.441 240.148" stroke="#171717" stroke-width="3.709" stroke-miterlimit="10" stroke-linecap="round"/>
<path d="M109.223 201.665C109.06 201.349 109.065 201.359 108.903 201.038" stroke="#171717" stroke-width="3.709" stroke-miterlimit="10" stroke-linecap="round"/>
<path d="M97.7322 177.102C97.5744 176.732 97.6013 176.746 97.4438 176.376" stroke="#171717" stroke-width="3.709" stroke-miterlimit="10" stroke-linecap="round"/>
<path d="M134.218 282.08L134.182 282.089L126.343 284.469L125.14 286.394L122.381 290.811L121.173 292.741L121.015 297.275" stroke="#171717" stroke-width="3.709" stroke-miterlimit="10" stroke-linecap="round"/>
<path d="M126.105 271.103L126.05 271.13L117.355 275.318L116.426 280.935L116.264 281.926L116.038 283.292L115.606 285.898L122.286 290.753" stroke="#171717" stroke-width="3.709" stroke-miterlimit="10" stroke-linecap="round"/>
<path d="M116.48 280.89L116.426 280.935L111.621 285.109L109.241 287.173L105.742 295.445L105.504 298.209V298.231" stroke="#171717" stroke-width="3.709" stroke-miterlimit="10" stroke-linecap="round"/>
<path d="M119.505 260.843L104.548 263.548L103.516 275.318L96.4341 279.853V293.448V298.79V298.867" stroke="#171717" stroke-width="3.709" stroke-miterlimit="10" stroke-linecap="round"/>
<path d="M81.955 299.899L81.9324 299.84L78.218 290.829L81.1212 289.486L84.7725 287.796L89.0367 285.821L91.701 288.566L96.4341 293.448L96.5154 293.534" stroke="#171717" stroke-width="3.709" stroke-miterlimit="10" stroke-linecap="round"/>
<path d="M78.2179 290.829L70.911 300.733L70.8206 300.855" stroke="#171717" stroke-width="3.709" stroke-miterlimit="10" stroke-linecap="round"/>
<path d="M81.0802 289.4L76.4689 281.841L67.5571 282.319L61.6698 292.421L61.0387 301.617L61.0339 301.648" stroke="#171717" stroke-width="3.709" stroke-miterlimit="10" stroke-linecap="round"/>
<path d="M69.1482 300.855L68.2735 291.546L67.5571 282.319" stroke="#171717" stroke-width="3.709" stroke-miterlimit="10" stroke-linecap="round"/>
<path d="M109.241 287.174L114.015 291.388L117.99 292.502L119.027 297.275" stroke="#171717" stroke-width="3.709" stroke-miterlimit="10" stroke-linecap="round"/>
<path d="M117.354 275.318L121.335 283.355L124.991 286.299" stroke="#171717" stroke-width="3.709" stroke-miterlimit="10" stroke-linecap="round"/>
<path d="M126.343 284.469L128.89 290.117L135.733 292.822L138.275 296.401" stroke="#171717" stroke-width="3.709" stroke-miterlimit="10" stroke-linecap="round"/>
<path d="M104.548 263.548L109.164 271.978L108.605 281.363L111.548 285.023" stroke="#171717" stroke-width="3.709" stroke-miterlimit="10" stroke-linecap="round"/>
<path d="M217.031 271.103L217.085 271.144L225.145 277.148L227.214 285.42L234.215 290.672L234.134 295.175V295.206" stroke="#171717" stroke-width="3.709" stroke-miterlimit="10" stroke-linecap="round"/>
<path d="M225.145 277.148L220.93 283.274L222.359 291.388L221.408 294.968" stroke="#171717" stroke-width="3.709" stroke-miterlimit="10" stroke-linecap="round"/>
<path d="M239.489 295.315V295.252L239.701 281.949L247.342 274.948L251.178 274.06L260.175 271.978L265.585 277.707L272.036 296.131L272.157 296.478" stroke="#171717" stroke-width="3.709" stroke-miterlimit="10" stroke-linecap="round"/>
<path d="M247.342 274.948L252.007 281.629L249.568 288.417L254.856 295.571L254.978 295.738" stroke="#171717" stroke-width="3.709" stroke-miterlimit="10" stroke-linecap="round"/>
<path d="M251.16 273.993L247.553 263.07L238.218 259.464L234.824 254.158L224.217 254.794L217.852 262.962" stroke="#171717" stroke-width="3.709" stroke-miterlimit="10" stroke-linecap="round"/>
<path d="M224.217 254.794L230.794 263.494L230.05 273.145L234.824 280.146L236.721 295.206L236.735 295.315" stroke="#171717" stroke-width="3.709" stroke-miterlimit="10" stroke-linecap="round"/>
<path d="M175.64 317.479L171.079 319.39L163.654 331.377C163.97 331.589 172.882 335.407 172.882 335.407L191.972 333.919L187.518 323.736H182.745L175.64 317.479Z" stroke="#171717" stroke-width="3.709" stroke-miterlimit="10" stroke-linecap="round"/>
<path d="M175.64 317.479L174.365 323.844L177.444 327.874L172.882 335.407" stroke="#171717" stroke-width="3.709" stroke-miterlimit="10" stroke-linecap="round"/>
<path d="M179.035 286.403L170.547 297.221L177.971 300.404L184.814 299.768" stroke="#171717" stroke-width="3.709" stroke-miterlimit="10" stroke-linecap="round"/>
<path d="M183.065 271.022L187.73 278.446L185.607 288.949L177.971 300.404" stroke="#171717" stroke-width="3.709" stroke-miterlimit="10" stroke-linecap="round"/>
<path d="M179.035 283.964L170.123 280.678L162.275 285.023L157.411 295.77L157.186 296.266L163.546 297.753L170.547 297.221" stroke="#171717" stroke-width="3.709" stroke-miterlimit="10" stroke-linecap="round"/>
<path d="M170.123 280.678L166.94 287.038L170.971 291.068L163.546 297.753" stroke="#171717" stroke-width="3.709" stroke-miterlimit="10" stroke-linecap="round"/>
<path d="M198.418 303L204.941 301.49L203.382 298.997L199.37 292.583L194.677 290.514L188.077 292.898L184.859 299.791L184.178 301.251L198.418 303Z" stroke="#171717" stroke-width="3.709" stroke-miterlimit="10" stroke-linecap="round"/>
<path d="M188.077 292.898L193.883 297.118L198.418 303" stroke="#171717" stroke-width="3.709" stroke-miterlimit="10" stroke-linecap="round"/>
<path d="M214.885 302.843L226.975 304.858L233.655 316.632L223.792 317.798L217.671 319.105L216.814 319.29L211.382 320.449C211.382 320.449 205.337 319.917 204.702 319.917C204.066 319.917 207.884 309.63 207.884 309.63L211.806 309.098L214.885 302.843Z" stroke="#171717" stroke-width="3.709" stroke-miterlimit="10" stroke-linecap="round"/>
<path d="M214.886 302.843L218.595 311.858L216.793 319.179" stroke="#171717" stroke-width="3.709" stroke-miterlimit="10" stroke-linecap="round"/>
<path d="M149.175 325.116L145.596 329.096L143.924 332.197L146.867 332.594L151.344 333.095L158.326 333.87L159.994 330.606L157.686 324.719L149.175 325.116Z" stroke="#171717" stroke-width="3.709" stroke-miterlimit="10" stroke-linecap="round"/>
<path d="M252.963 315.996L245.006 321.933L244.898 327.239L253.504 327.401L267.068 327.663L269.615 325.859L267.279 322.465L252.963 315.996Z" stroke="#171717" stroke-width="3.709" stroke-miterlimit="10" stroke-linecap="round"/>
<path d="M101.289 316.844L97.3086 323.366L101.604 325.116H107.054H115.763L119.424 321.297L113.059 314.617L101.289 316.844Z" stroke="#171717" stroke-width="3.709" stroke-miterlimit="10" stroke-linecap="round"/>
<path d="M203.269 299.024L203.382 298.997L209.58 297.433L207.804 295.107H207.799L203.747 289.797L201.096 279.402L191.869 270.174L183.065 271.022L179.351 279.722L179.148 283.968L179.035 286.403" stroke="#171717" stroke-width="3.709" stroke-miterlimit="10" stroke-linecap="round"/>
<path d="M205.284 254C205.234 253.843 205.18 253.68 205.126 253.523" stroke="#171717" stroke-width="3.709" stroke-miterlimit="10" stroke-linecap="round"/>
<path d="M104.467 230.772L94.9241 237.452L98.8999 255.907L88.2391 265.297L84.741 287.728" stroke="#171717" stroke-width="3.709" stroke-miterlimit="10" stroke-linecap="round"/>
<path d="M94.9239 237.453C95.2393 237.931 105.265 249.07 105.265 249.07C105.265 249.07 103.515 259.888 103.038 260.046C102.561 260.204 94.766 265.776 94.766 265.776L91.74 288.526" stroke="#171717" stroke-width="3.709" stroke-miterlimit="10" stroke-linecap="round"/>
<path d="M168.622 304.637L163.258 305.867L161.189 312.706L170.966 313.075L175.983 313.265L178.927 311.434V306.9L172.643 303.717L168.622 304.637Z" stroke="#171717" stroke-width="3.709" stroke-miterlimit="10" stroke-linecap="round"/>
<path d="M168.586 304.591L168.622 304.637L172.404 309.577L170.966 313.075L170.921 313.184" stroke="#171717" stroke-width="3.709" stroke-miterlimit="10" stroke-linecap="round"/>
<path d="M136.08 303.478L132.163 306.404L132.113 309.014L136.35 309.095L143.027 309.226L144.28 308.338L143.13 306.665L136.08 303.478Z" stroke="#171717" stroke-width="3.709" stroke-miterlimit="10" stroke-linecap="round"/>
<path d="M136.08 303.478L135.269 306.327L136.351 309.095L136.369 309.144" stroke="#171717" stroke-width="3.709" stroke-miterlimit="10" stroke-linecap="round"/>
<path d="M101.289 316.844L106.698 320.662L107.054 325.116" stroke="#171717" stroke-width="3.709" stroke-miterlimit="10" stroke-linecap="round"/>
<path d="M252.963 315.996L251.317 321.775L253.504 327.401L253.544 327.505" stroke="#171717" stroke-width="3.709" stroke-miterlimit="10" stroke-linecap="round"/>
<path d="M149.175 325.116L150.979 328.776L151.343 333.095L151.348 333.126" stroke="#171717" stroke-width="3.709" stroke-miterlimit="10" stroke-linecap="round"/>
<path d="M227.324 14.5735L226.043 15.9042C225.623 16.3537 225.174 16.7752 224.786 17.2532L223.587 18.6539C223.39 18.8891 223.183 19.1155 222.994 19.3579L222.435 20.0907C216.635 27.5733 212.77 36.3716 211.185 45.7052C210.397 50.315 210.193 55.0057 210.579 59.6666C211.026 64.3044 211.975 68.88 213.407 73.3137C214.85 77.7463 216.675 82.0454 218.861 86.1627C221.032 90.3043 223.413 94.3319 225.995 98.2304C231.153 106.069 236.86 113.551 242.405 121.287C246.624 128.439 250.528 135.821 253.586 143.529C256.631 151.219 258.833 159.29 259.25 167.404C259.64 169.403 259.922 171.421 260.096 173.45C260.255 175.499 260.292 177.555 260.206 179.607C259.99 183.772 259.255 187.894 258.018 191.877L257.704 192.059C257.502 192.177 257.209 192.353 256.822 192.566C256.049 192.994 255.012 193.619 253.779 194.339C251.321 195.8 248.167 197.607 245.409 199.776C242.649 201.954 240.241 204.563 239.328 207.936C238.42 211.299 239.016 215.434 242.475 220.359C244.211 222.817 244.927 225.252 244.93 227.583C244.929 228.165 244.882 228.745 244.788 229.319C244.709 229.883 244.589 230.441 244.43 230.989C244.097 232.108 243.642 233.187 243.072 234.207C240.764 238.407 236.674 242.177 232.557 246.084C230.521 248.04 228.427 250.039 226.558 252.105C224.781 254.045 223.153 256.117 221.69 258.303C221.361 258.804 221.02 259.295 220.729 259.773C220.45 260.261 220.186 260.723 219.938 261.158C219.685 261.61 219.449 262.031 219.229 262.421C219.023 262.818 218.857 263.187 218.693 263.527L217.666 265.714C216.263 262.14 215.358 258.389 214.976 254.568C214.587 250.644 214.61 246.689 215.044 242.769C215.121 242.031 215.248 241.299 215.425 240.578C215.669 239.527 215.971 238.49 216.332 237.474C217.287 234.72 218.44 232.039 219.783 229.453C221.387 226.329 223.157 223.295 225.087 220.361C225.582 219.588 226.089 218.824 226.609 218.069C227.126 217.307 227.649 216.538 228.16 215.819C229.191 214.343 230.222 212.906 231.236 211.493C235.32 205.862 238.921 200.777 241.178 197.019C242.33 195.143 243.165 193.61 243.723 192.544C244.02 192.011 244.218 191.596 244.352 191.311L244.562 190.878C245.864 188.856 247.001 186.732 247.961 184.527C248.078 184.258 248.212 183.99 248.318 183.72L248.623 182.907C248.819 182.362 249.063 181.823 249.22 181.266C249.392 180.712 249.591 180.159 249.728 179.589C249.881 179.023 250.044 178.457 250.159 177.875C251.204 173.013 251.415 168.009 250.783 163.076C250.086 157.695 248.795 152.407 246.932 147.31C244.984 141.932 242.687 136.687 240.055 131.609C238.758 129.358 237.413 127.122 236.018 124.901L233.892 121.55L231.736 118.181C228.85 113.681 225.937 109.137 223.151 104.471C220.317 99.7897 217.723 94.967 215.38 90.0214C213.012 85.0168 211.106 79.8058 209.686 74.4537C208.277 69.0714 207.557 63.5322 207.541 57.9683C207.52 57.2756 207.565 56.5804 207.599 55.8877C207.634 55.195 207.663 54.5023 207.709 53.8125L207.93 51.7493L208.039 50.7197L208.204 49.6989L208.541 47.659C208.668 46.9824 208.833 46.313 208.979 45.6411C209.246 44.2921 209.654 42.9774 210.019 41.6565C210.187 40.9919 210.445 40.3531 210.654 39.7024C210.883 39.0567 211.078 38.4015 211.334 37.7668C211.858 36.5024 212.315 35.2147 212.923 33.9919L213.789 32.1413L214.751 30.3395L215.231 29.4408C215.397 29.1448 215.581 28.8575 215.755 28.5658L216.81 26.8249C219.727 22.2711 223.265 18.1474 227.324 14.5735Z" fill="#171717"/>
<path d="M146.198 296.232L142.522 294.457C141.298 293.861 140.103 293.208 138.892 292.586C134.256 290.118 129.744 287.423 125.356 284.501C112.175 275.662 100.405 264.883 90.4438 252.527C87.0514 248.414 83.9878 244.04 81.2811 239.447C78.6098 234.795 76.4088 229.746 75.3206 224.32C74.7609 221.596 74.5283 218.815 74.6279 216.036C74.6319 215.34 74.6753 214.645 74.7569 213.954L74.8539 212.914C74.878 212.567 74.9199 212.221 74.9797 211.879C75.1824 210.506 75.4547 209.144 75.7956 207.798C77.1081 202.396 79.5005 197.402 82.2061 192.716C87.6409 184.995 94.1185 178.455 100.128 171.616C106.136 164.756 111.84 157.566 116.51 149.575C118.276 145.318 119.655 140.911 120.63 136.406C121.095 134.177 121.432 131.922 121.637 129.654C121.848 127.411 121.9 125.156 121.792 122.906C121.792 122.906 121.885 122.804 122.06 122.611C122.236 122.417 122.482 122.128 122.771 121.75C123.061 121.372 123.414 120.903 123.801 120.346C124.182 119.79 124.567 119.145 124.987 118.414C125.426 117.625 125.825 116.814 126.182 115.985C126.578 115.046 126.923 114.087 127.218 113.111C127.385 112.595 127.517 112.074 127.634 111.541C127.75 111.008 127.865 110.459 127.965 109.9C128.153 108.773 128.269 107.634 128.313 106.492C128.483 101.87 127.298 97.2588 124.511 94.185C121.71 91.0926 117.331 89.5059 110.691 90.2592C107.371 90.6343 104.605 90.0576 102.296 88.6586C99.9872 87.2813 98.1282 85.0227 96.711 82.1133C96.3603 81.3703 96.0366 80.6203 95.7343 79.7953C95.4197 78.9166 95.1495 78.0227 94.9249 77.1167C94.4586 75.2117 94.1637 73.2689 94.0445 71.3114C93.7969 67.1617 94.2206 62.9996 95.299 58.9849C96.3195 55.0546 98.0017 51.3271 100.274 47.962C101.289 46.4782 102.442 45.0924 103.715 43.8229C104.817 42.7412 106.02 41.7663 107.306 40.9114C109.105 39.7243 111.096 38.8577 113.191 38.3491C113.741 38.2149 114.299 38.115 114.861 38.0494L115.445 37.9827C113.998 40.6766 113.245 43.6884 113.253 46.7462C113.275 49.6701 113.776 52.5707 114.734 55.3332C115.053 56.121 115.32 57.4711 115.719 59.2707C116.117 61.0703 116.637 63.3176 117.428 65.8288C117.82 67.083 118.274 68.3991 118.796 69.7415C118.927 70.0769 119.055 70.4164 119.199 70.7525C119.343 71.0887 119.472 71.4222 119.643 71.8076C119.975 72.5576 120.272 73.3006 120.635 74.0833C122.017 77.1823 123.652 80.5284 125.328 84.0164C127.004 87.5044 128.709 91.1396 130.186 94.761C131.595 98.1663 132.794 101.655 133.776 105.207L134.367 107.547C134.549 108.292 134.679 109.031 134.821 109.708C135.112 111.057 135.273 112.284 135.417 113.281C135.486 113.781 135.553 114.225 135.599 114.614C135.635 115.005 135.667 115.336 135.692 115.605C135.74 116.143 135.765 116.428 135.765 116.428C135.812 120.598 135.424 124.762 134.608 128.851C133.835 132.772 132.713 136.616 131.254 140.337C129.864 143.886 128.235 147.336 126.377 150.663C124.584 153.851 122.631 156.945 120.523 159.934C116.457 165.638 112.034 171.078 107.28 176.222C104.986 178.75 102.607 181.236 100.348 183.594C98.0815 185.968 95.8761 188.324 93.771 190.719C91.9882 192.947 90.3337 195.211 88.808 197.512C87.2913 199.767 85.9409 202.13 84.768 204.581C84.4979 205.187 84.1818 205.784 83.9422 206.398L83.2156 208.238C82.9841 208.853 82.8146 209.477 82.6053 210.097C82.512 210.408 82.3898 210.717 82.3176 211.032L82.0931 211.975C81.7872 213.228 81.5484 214.497 81.3774 215.775C81.2979 217.051 81.147 218.337 81.1911 219.622C81.2403 224.779 82.7522 230.07 85.071 235.139C87.393 240.221 90.4778 245.11 93.8538 249.866C107.527 269.12 125.434 284.982 146.198 296.232Z" fill="#171717"/>
<path d="M223.849 149.956C224.017 151.581 224.341 153.186 224.816 154.75C225.275 156.314 225.86 157.838 226.566 159.307C227.961 162.215 229.595 164.936 231.06 167.683C232.112 169.5 233.037 171.388 233.828 173.334C234.592 175.226 235.087 177.217 235.298 179.247C235.595 181.358 235.543 183.502 235.146 185.596C234.726 187.749 234.063 189.847 233.171 191.851C231.486 195.043 229.339 197.96 227.07 200.799C225.059 203.422 222.959 206.006 221.036 208.75C219.986 210.666 219.071 212.652 218.294 214.693C217.058 216.514 216.08 218.497 215.388 220.586C215.104 221.999 214.91 223.429 214.807 224.867C214.718 226.299 214.703 227.735 214.762 229.169C214.83 230.6 214.969 232.026 215.163 233.444C215.371 234.859 215.636 236.265 215.956 237.659C215.41 234.017 215.322 230.322 215.693 226.658C216.084 223.054 217.005 219.507 218.699 216.505C219.795 214.172 221.102 211.943 222.605 209.849C224.1 207.714 225.732 205.644 227.367 203.547C229.484 200.675 231.626 197.727 233.362 194.515C235.097 191.319 236.483 187.857 236.992 184.204C237.109 183.014 237.127 181.817 237.046 180.623C236.949 179.444 236.746 178.275 236.442 177.131C235.821 174.886 234.91 172.732 233.732 170.722C232.168 166.535 229.912 162.551 228.277 158.448C226.523 155.335 225.426 151.895 225.055 148.341C224.884 146.563 225.027 144.769 225.479 143.041C225.946 141.298 226.84 139.698 228.081 138.387C226.591 139.641 225.451 141.26 224.773 143.086C224.087 144.955 223.742 146.931 223.754 148.922" fill="#171717"/>
<path d="M55.2522 137.732C54.4162 139.576 53.7519 141.493 53.2674 143.458C52.7942 145.456 52.5524 147.501 52.547 149.553C52.5353 151.637 52.8233 153.713 53.4016 155.715C53.9802 157.771 54.9306 159.703 56.2056 161.417C57.0955 162.544 58.0959 163.579 59.1922 164.507C60.2408 165.419 61.3068 166.259 62.3397 167.089C63.3725 167.918 64.3744 168.74 65.2684 169.608C66.1397 170.413 66.8868 171.342 67.4858 172.366C68.1194 173.317 68.4796 174.425 68.527 175.567C68.5376 176.774 68.2576 177.965 67.7111 179.042C66.6115 181.37 64.7022 183.49 63.2694 185.965C61.9306 187.915 61.045 190.139 60.6772 192.476C60.3119 194.808 60.3742 197.187 60.862 199.496C61.8249 203.657 63.8031 207.513 66.6203 210.723C67.6342 211.654 68.7213 212.503 69.8712 213.261C71.0084 213.993 72.1951 214.645 73.4226 215.213C75.5555 216.895 77.8578 218.349 80.2925 219.552C81.9583 220.181 83.6671 220.658 85.3751 221.123C87.0916 221.548 88.815 221.943 90.5482 222.256C94.0118 222.913 97.4939 223.363 100.961 223.814C96.5252 222.843 92.0653 221.848 87.7592 220.475C83.4655 219.089 79.3008 217.339 75.6991 214.899C75.3447 214.725 75.0206 214.503 74.6783 214.308C74.3447 214.102 73.9965 213.917 73.6746 213.694C73.0344 213.248 72.3588 212.828 71.7631 212.353C70.5435 211.406 69.421 210.34 68.4122 209.172C66.3763 206.835 64.8097 204.128 63.7984 201.199C63.0652 199.274 62.6485 197.244 62.565 195.186C62.4155 192.099 63.2573 189.044 64.9672 186.469C65.5418 185.587 66.1984 184.721 66.8631 183.835C67.5277 182.949 68.2073 182.038 68.8176 181.051C69.4596 180.049 69.9551 178.961 70.2887 177.819C70.6642 176.282 70.5855 174.67 70.0619 173.177C69.5238 171.769 68.6765 170.5 67.5828 169.463C65.4926 167.402 63.0189 165.935 60.6805 164.221C59.6709 163.249 58.7431 162.196 57.906 161.073C57.0999 159.954 56.4506 158.73 55.9755 157.435C55.0608 154.898 54.7002 152.193 54.9182 149.505C54.8592 148.422 54.873 147.336 54.9587 146.254C55.0513 145.166 55.2146 144.084 55.4476 143.017C55.9343 140.854 56.6307 138.743 57.5275 136.715C59.3093 132.615 61.7203 128.771 64.1301 124.946C61.1497 128.629 58.1543 132.33 55.7633 136.574" fill="#171717"/>
<path d="M140.095 28.3593C140.242 29.6194 140.502 30.8639 140.87 32.078C141.248 33.2842 141.711 34.462 142.256 35.6028C143.38 37.8693 144.711 39.9346 145.942 42.0303C147.681 44.8423 149.306 47.7199 149.905 50.8196C150.778 53.974 150.318 57.4426 149.144 60.6634C147.952 63.2078 146.537 65.6414 144.915 67.9364C143.519 70.0941 142.081 72.2542 140.86 74.5642C140.231 76.1418 139.753 77.7755 139.432 79.4427C138.715 81.0006 138.257 82.6649 138.077 84.3697C138.099 85.5043 138.243 86.6334 138.506 87.737C138.785 88.8431 139.199 89.9103 139.74 90.9143C140.823 92.9873 142.623 94.5951 144.805 95.4373C143.458 94.811 142.292 93.854 141.414 92.6552C140.577 91.5057 139.968 90.2059 139.62 88.8271C138.934 86.1638 139.063 83.3565 139.988 80.7665C140.932 76.9449 143.099 73.4723 145.324 70.0375C146.839 67.6809 148.211 65.2345 149.432 62.7123C150.609 60.1497 151.506 57.3792 151.628 54.5092C151.618 52.6579 151.282 50.8229 150.635 49.0879C149.975 47.4053 149.139 45.7968 148.141 44.2896C146.737 41.1177 144.891 38.0767 143.583 34.9287C142.213 32.5179 141.343 29.8555 141.026 27.1007C140.88 25.7223 140.983 24.329 141.33 22.9871C141.692 21.6339 142.38 20.3896 143.333 19.3628C142.18 20.3417 141.299 21.6024 140.778 23.0221C140.251 24.4761 139.992 26.0134 140.012 27.5597" fill="#171717"/>
<path d="M82.2087 76.6146C82.5201 78.0237 83.0684 79.3693 83.8311 80.594C84.5603 81.807 85.3594 82.9485 86.0376 84.1279C87.0059 85.7076 87.7325 87.4223 87.6527 89.1938C87.7066 91.0433 86.9563 92.906 86.1189 94.6789C85.2749 96.0654 84.5092 97.4983 83.8256 98.9704C83.2492 100.366 82.9638 101.864 82.9871 103.373C83.1111 104.336 83.3513 105.28 83.7028 106.184C83.8424 107.144 84.0881 108.085 84.4352 108.991C85.6187 111.282 87.5196 113.122 89.8478 114.23C88.4274 113.414 87.2042 112.296 86.2654 110.953C85.3511 109.666 84.7079 108.205 84.3754 106.661C83.67 104.527 83.6495 102.225 84.3171 100.078C85.1728 97.1734 87.217 94.5925 88.1066 91.4597C88.3567 90.4355 88.4099 89.3732 88.2626 88.329C88.0938 87.3133 87.7431 86.3365 87.2268 85.4455C86.5498 83.5923 85.4382 81.8879 84.5461 80.1452C83.6339 78.856 82.9933 77.3951 82.6633 75.8508C82.5044 75.0789 82.4883 74.2845 82.616 73.5069C82.7494 72.7215 83.091 71.9862 83.6054 71.3777C82.9787 71.969 82.5288 72.723 82.3053 73.555C82.0804 74.4066 82.0155 75.2926 82.1139 76.1679" fill="#171717"/>
<path d="M214.566 169.518L208.838 162.2" stroke="#171717" stroke-width="3.709" stroke-linecap="round" stroke-linejoin="round"/>
<path d="M215.173 162.176L208.551 170.181" stroke="#171717" stroke-width="3.709" stroke-linecap="round" stroke-linejoin="round"/>
<path d="M167.449 68.9923L162.682 64.5312" stroke="#171717" stroke-width="3.709" stroke-linecap="round" stroke-linejoin="round"/>
<path d="M162.299 69.8687C163.802 67.5474 165.306 65.2265 166.81 62.9052" stroke="#171717" stroke-width="3.709" stroke-linecap="round" stroke-linejoin="round"/>
<path d="M61.8306 98.5603C59.7084 97.7845 57.7615 96.5948 56.103 95.0603" stroke="#171717" stroke-width="3.709" stroke-linecap="round" stroke-linejoin="round"/>
<path d="M56.1719 100.194C57.426 98.167 58.6798 96.1399 59.9333 94.1128" stroke="#171717" stroke-width="3.709" stroke-linecap="round" stroke-linejoin="round"/>
<path d="M280.504 130.734C277.791 130.348 275.068 131.932 273.489 134.172C271.91 136.411 271.31 139.201 271.095 141.933C270.552 149.048 272.351 156.146 276.216 162.144C277.659 164.368 279.58 166.545 282.174 167.097C284.768 167.649 287.942 165.714 287.711 163.072C287.475 160.382 284.148 159.062 281.468 159.395C276.04 160.074 271.852 165.004 270.607 170.331C269.362 175.658 270.537 181.259 272.315 186.432C274.094 191.605 276.478 196.584 277.756 201.903C279.034 207.222 279.097 213.11 276.4 217.869C273.702 222.628 267.686 225.741 262.553 223.853" stroke="url(#paint9_linear_33_236)" stroke-width="3.709" stroke-linecap="round" stroke-linejoin="round"/>
<path d="M39.8564 203.234C44.343 202.648 48.8956 204.624 52.2184 207.695C55.5412 210.766 57.779 214.833 59.5465 218.997C60.7693 221.877 61.8117 224.94 61.6246 228.064C61.4376 231.188 59.7733 234.395 56.8901 235.611C53.112 237.205 48.8737 235.014 45.4656 232.734C43.5081 231.424 41.3655 229.627 41.5328 227.278C41.7461 224.282 45.5119 222.954 48.5047 223.201C51.0273 223.409 53.4674 224.2 55.6323 225.511C57.7976 226.822 59.6293 228.617 60.9833 230.756C62.337 232.895 63.1763 235.318 63.4348 237.836C63.6936 240.354 63.3644 242.898 62.4734 245.267C61.0723 248.993 58.3146 252.218 57.6645 256.146C56.5919 262.626 62.8751 269.22 69.4001 268.463" stroke="#171717" stroke-width="3.709" stroke-linecap="round" stroke-linejoin="round"/>
<path d="M191.946 47.997L188.433 44.8298" stroke="url(#paint10_linear_33_236)" stroke-width="3.709" stroke-linecap="round" stroke-linejoin="round"/>
<path d="M188.23 48.3398C189.394 46.7473 190.559 45.1544 191.723 43.5615" stroke="url(#paint11_linear_33_236)" stroke-width="3.709" stroke-linecap="round" stroke-linejoin="round"/>
<path d="M39.2386 219.793L35.7388 216.611" stroke="url(#paint12_linear_33_236)" stroke-width="3.709" stroke-linecap="round" stroke-linejoin="round"/>
<path d="M35.053 221.02C36.7521 219.192 38.0825 217.054 38.9713 214.721" stroke="url(#paint13_linear_33_236)" stroke-width="3.709" stroke-linecap="round" stroke-linejoin="round"/>
<path d="M266.693 210.004C265.55 209.125 264.408 208.245 263.266 207.365" stroke="url(#paint14_linear_33_236)" stroke-width="3.709" stroke-linecap="round" stroke-linejoin="round"/>
<path d="M263.273 210.896L266.465 204.856" stroke="url(#paint15_linear_33_236)" stroke-width="3.709" stroke-linecap="round" stroke-linejoin="round"/>
<path d="M263.817 116.824C261.675 115.639 259.854 113.95 258.512 111.902" stroke="#171717" stroke-width="3.709" stroke-linecap="round" stroke-linejoin="round"/>
<path d="M258.503 116.4L262.976 110.687" stroke="#171717" stroke-width="3.709" stroke-linecap="round" stroke-linejoin="round"/>
<path d="M278.014 270.916L275.089 267.468" stroke="#171717" stroke-width="3.709" stroke-linecap="round" stroke-linejoin="round"/>
<path d="M274.069 271.66L278.841 265.932" stroke="#171717" stroke-width="3.709" stroke-linecap="round" stroke-linejoin="round"/>
<path d="M43.4811 103.663L46.315 103.894L44.0115 105.56L44.6682 108.327L42.3709 106.652L39.9421 108.131L40.8255 105.428L38.6682 103.576L41.512 103.581L42.6072 100.957L43.4811 103.663Z" fill="url(#paint16_linear_33_236)"/>
<path d="M248.89 95.5977L252.543 94.6812L250.363 97.7524L252.364 100.944L248.769 99.8196L246.352 102.708L246.31 98.942L242.817 97.5362L246.385 96.3331L246.643 92.5757L248.89 95.5977Z" fill="#171717"/>
<path d="M172.328 47.5007L175.23 48.2106L172.564 49.5577L172.785 52.5367L170.68 50.4174L167.915 51.5483L169.281 48.8913L167.351 46.6119L170.299 47.0891L171.871 44.5487L172.328 47.5007Z" fill="#171717"/>
<path d="M232.946 144.452L235.848 145.162L233.181 146.509L233.402 149.489L231.298 147.369L228.532 148.5L229.898 145.843L227.968 143.563L230.916 144.041L232.488 141.501L232.946 144.452Z" fill="url(#paint17_linear_33_236)"/>
<path d="M33.5942 233.01L36.4955 233.72L33.8294 235.067L34.0507 238.046L31.946 235.927L29.181 237.058L30.5463 234.401L28.6162 232.121L31.5646 232.598L33.1367 230.058L33.5942 233.01Z" fill="#171717"/>
<g opacity="0.1">
<path d="M106.489 96.3571C99.8683 98.4867 98.3768 106.982 98.7297 112.982C99.2037 121.035 101.391 128.895 103.681 136.598C106.012 144.386 108.745 152.048 111.871 159.551C114.618 166.174 117.422 172.895 121.22 179.001C123.16 182.119 125.49 185.468 128.386 187.771C131.213 190.019 134.608 192.239 138.193 192.964C140.752 193.481 141.852 190.429 139.892 188.934C137.602 187.187 135.436 185.577 133.57 183.351C131.73 181.243 130.016 179.027 128.439 176.716C124.984 171.442 122.387 165.671 119.908 159.892C114.147 146.469 109.875 132.56 105.72 118.581C104.579 114.747 103.082 110.944 103.289 106.876C103.462 103.475 105.177 100.415 107.42 97.9558C108.03 97.2864 107.445 96.0487 106.488 96.3564L106.489 96.3571Z" fill="#171717"/>
</g>
<g opacity="0.1">
<path d="M34.6208 129.697C33.053 135.889 33.8992 142.652 35.0922 148.854C36.3924 155.301 38.7003 161.503 41.9309 167.232C48.003 178.197 56.6965 187.518 67.549 193.833C70.5623 195.572 73.7185 197.051 76.983 198.253C80.3397 199.506 83.4522 200.685 87.0174 199.648C87.2737 199.573 87.5063 199.432 87.6923 199.24C87.8786 199.049 88.012 198.812 88.0802 198.554C88.1484 198.296 88.1491 198.024 88.0816 197.766C88.0146 197.507 87.8819 197.27 87.6963 197.078C85.64 194.894 83.2283 194.004 80.5191 192.84C77.9666 191.695 75.4784 190.411 73.0656 188.994C68.1991 186.216 63.6644 182.892 59.549 179.089C55.3388 175.305 51.6678 170.962 48.6381 166.18C45.4673 161.036 42.9364 155.524 41.1025 149.766C40.0088 146.546 39.1557 143.25 38.5505 139.903C37.9959 136.493 37.6248 133.081 36.9284 129.697C36.6874 128.526 34.9019 128.589 34.6215 129.697H34.6208Z" fill="#171717"/>
</g>
<g opacity="0.1">
<path d="M158.888 102.531C159.312 105.25 160.512 108.111 161.435 110.704C162.357 113.297 163.411 115.834 164.473 118.368C166.66 123.591 169.087 128.726 171.527 133.834C173.903 138.812 176.36 143.75 178.896 148.649C180.158 151.087 181.336 153.622 182.893 155.887C183.752 157.136 184.609 158.313 185.37 159.628C186.135 160.953 186.75 161.93 188.06 162.775C189.324 163.59 191.069 162.525 191.043 161.063C190.997 158.464 189.196 156.006 188.232 153.636C187.182 151.05 185.811 148.63 184.526 146.156C181.93 141.159 179.418 136.121 176.988 131.04C174.607 126.062 172.364 121.027 170.086 116.002C168.951 113.498 167.821 110.99 166.617 108.519C165.407 106.035 164.276 103.185 162.699 100.924C161.304 98.9223 158.524 100.195 158.888 102.531Z" fill="#171717"/>
</g>
<g opacity="0.1">
<path d="M86.2687 131.073C82.3126 135.018 79.7999 140.142 78.23 145.469C76.48 151.408 77.2427 157.977 78.4885 163.934C79.8298 170.348 82.1471 176.451 84.4768 182.555C86.6643 188.286 88.8718 194.009 91.0991 199.724C100.039 222.508 109.782 245.161 122.526 266.113C126.004 271.83 129.707 277.412 133.67 282.804C135.748 285.631 137.877 288.419 140.155 291.088C142.456 293.784 144.67 296.703 147.705 298.577C150.36 300.218 152.902 297.062 151.704 294.579C150.409 291.897 148.28 289.747 146.444 287.414C144.724 285.23 143.03 283.025 141.361 280.798C137.833 276.109 134.501 271.281 131.363 266.315C125.144 256.423 119.51 246.175 114.489 235.624C104.284 214.427 95.6173 192.345 87.5305 170.263C85.1695 163.815 83.5613 157.385 83.5099 150.502C83.4632 144.209 84.4181 138.362 88.5659 133.37C89.8784 131.79 87.777 129.571 86.2691 131.073L86.2687 131.073Z" fill="#171717"/>
</g>
<defs>
<linearGradient id="paint0_linear_33_236" x1="181.272" y1="71.2753" x2="181.272" y2="163.006" gradientUnits="userSpaceOnUse">
<stop stop-color="#42E670"/>
<stop offset="1" stop-color="#07AA50"/>
</linearGradient>
<linearGradient id="paint1_linear_33_236" x1="123.292" y1="96.3411" x2="123.292" y2="192.487" gradientUnits="userSpaceOnUse">
<stop stop-color="#42E670"/>
<stop offset="1" stop-color="#07AA50"/>
</linearGradient>
<linearGradient id="paint2_linear_33_236" x1="177.608" y1="258.507" x2="177.608" y2="296.162" gradientUnits="userSpaceOnUse">
<stop stop-color="#42E670"/>
<stop offset="1" stop-color="#07AA50"/>
</linearGradient>
<linearGradient id="paint3_linear_33_236" x1="259.689" y1="271.979" x2="259.689" y2="296.131" gradientUnits="userSpaceOnUse">
<stop stop-color="#42E670"/>
<stop offset="1" stop-color="#07AA50"/>
</linearGradient>
<linearGradient id="paint4_linear_33_236" x1="196.509" y1="290.514" x2="196.509" y2="303" gradientUnits="userSpaceOnUse">
<stop stop-color="#42E670"/>
<stop offset="1" stop-color="#07AA50"/>
</linearGradient>
<linearGradient id="paint5_linear_33_236" x1="182.427" y1="317.479" x2="182.427" y2="335.407" gradientUnits="userSpaceOnUse">
<stop stop-color="#42E670"/>
<stop offset="1" stop-color="#07AA50"/>
</linearGradient>
<linearGradient id="paint6_linear_33_236" x1="105.603" y1="230.774" x2="105.603" y2="293.45" gradientUnits="userSpaceOnUse">
<stop stop-color="#42E670"/>
<stop offset="1" stop-color="#07AA50"/>
</linearGradient>
<linearGradient id="paint7_linear_33_236" x1="110.356" y1="314.617" x2="110.356" y2="325.116" gradientUnits="userSpaceOnUse">
<stop stop-color="#42E670"/>
<stop offset="1" stop-color="#07AA50"/>
</linearGradient>
<linearGradient id="paint8_linear_33_236" x1="62.8821" y1="126.991" x2="62.8821" y2="201.514" gradientUnits="userSpaceOnUse">
<stop stop-color="#42E670"/>
<stop offset="1" stop-color="#07AA50"/>
</linearGradient>
<linearGradient id="paint9_linear_33_236" x1="275.137" y1="130.676" x2="275.137" y2="224.413" gradientUnits="userSpaceOnUse">
<stop stop-color="#42E670"/>
<stop offset="1" stop-color="#07AA50"/>
</linearGradient>
<linearGradient id="paint10_linear_33_236" x1="190.189" y1="44.8298" x2="190.189" y2="47.997" gradientUnits="userSpaceOnUse">
<stop stop-color="#42E670"/>
<stop offset="1" stop-color="#07AA50"/>
</linearGradient>
<linearGradient id="paint11_linear_33_236" x1="189.977" y1="43.5615" x2="189.977" y2="48.3398" gradientUnits="userSpaceOnUse">
<stop stop-color="#42E670"/>
<stop offset="1" stop-color="#07AA50"/>
</linearGradient>
<linearGradient id="paint12_linear_33_236" x1="37.4886" y1="216.611" x2="37.4886" y2="219.793" gradientUnits="userSpaceOnUse">
<stop stop-color="#42E670"/>
<stop offset="1" stop-color="#07AA50"/>
</linearGradient>
<linearGradient id="paint13_linear_33_236" x1="37.0121" y1="214.721" x2="37.0121" y2="221.02" gradientUnits="userSpaceOnUse">
<stop stop-color="#42E670"/>
<stop offset="1" stop-color="#07AA50"/>
</linearGradient>
<linearGradient id="paint14_linear_33_236" x1="264.979" y1="207.365" x2="264.979" y2="210.004" gradientUnits="userSpaceOnUse">
<stop stop-color="#42E670"/>
<stop offset="1" stop-color="#07AA50"/>
</linearGradient>
<linearGradient id="paint15_linear_33_236" x1="264.869" y1="204.856" x2="264.869" y2="210.896" gradientUnits="userSpaceOnUse">
<stop stop-color="#42E670"/>
<stop offset="1" stop-color="#07AA50"/>
</linearGradient>
<linearGradient id="paint16_linear_33_236" x1="42.4916" y1="100.957" x2="42.4916" y2="108.327" gradientUnits="userSpaceOnUse">
<stop stop-color="#42E670"/>
<stop offset="1" stop-color="#07AA50"/>
</linearGradient>
<linearGradient id="paint17_linear_33_236" x1="231.908" y1="141.501" x2="231.908" y2="149.489" gradientUnits="userSpaceOnUse">
<stop stop-color="#42E670"/>
<stop offset="1" stop-color="#07AA50"/>
</linearGradient>
</defs>
</svg>
