<svg width="350" height="350" viewBox="0 0 350 350" fill="none" xmlns="http://www.w3.org/2000/svg">
<path fill-rule="evenodd" clip-rule="evenodd" d="M126.274 285.019C124.349 273.106 124.001 260.906 123.667 248.808C126.939 246.927 129.48 243.747 130.215 240.031C132.31 241.343 134.726 242.053 137.198 242.084C139.67 242.114 142.103 241.463 144.23 240.203C148.017 237.886 150.043 233.46 150.043 229.02C152.253 234.904 154.474 240.846 155.425 247.056C156.385 253.287 155.987 259.898 153.144 265.522C151.359 269.063 148.714 272.037 146.066 275.014C144.956 276.262 143.846 277.51 142.798 278.801C141.284 280.632 139.979 282.625 138.905 284.744L139.011 284.793C140.749 284.446 142.511 284.237 144.282 284.167C152.443 283.835 160.474 286.289 167.057 291.126C170.376 293.612 173.231 296.664 175.49 300.141L175.587 300.075C182.163 290.263 182.286 279.38 178.036 268.357C177.369 266.629 176.571 264.945 175.773 263.263C174.323 260.205 172.876 257.151 172.223 253.846C171.585 250.622 171.739 247.332 171.893 244.035C172 241.747 172.106 239.455 171.95 237.181C171.073 224.567 161.445 213.288 149.374 209.514C137.302 205.74 123.494 209.17 113.906 217.419C104.319 225.668 98.9232 238.277 98.5138 250.922C98.4853 251.808 98.4788 252.699 98.4722 253.592C98.4485 256.841 98.4248 260.103 97.3471 263.144C96.4579 265.647 94.9131 267.822 93.3666 270C92.6604 270.995 91.9535 271.99 91.3089 273.018C84.8215 283.354 85.0902 297.527 91.9651 307.608C94.4745 303.461 97.7175 299.804 101.535 296.817C107.261 292.299 113.937 289.185 120.843 286.754C122.548 286.151 124.27 285.592 125.992 285.063L126.274 285.019ZM155.631 215.223C155.34 215.003 154.926 215.06 154.705 215.35C154.485 215.641 154.541 216.055 154.832 216.276C158.6 219.137 161.657 222.829 163.763 227.065C165.869 231.302 166.969 235.968 166.975 240.699C166.975 241.064 167.271 241.359 167.636 241.359C168.001 241.358 168.296 241.062 168.296 240.697C168.29 235.763 167.143 230.896 164.946 226.477C162.749 222.059 159.561 218.207 155.631 215.223Z" fill="#171717"/>
<path fill-rule="evenodd" clip-rule="evenodd" d="M282.166 206.272C282.127 205.804 282.087 205.332 281.998 204.88C281.941 204.569 281.849 204.265 281.723 203.975C280.736 201.738 277.766 201.386 275.323 201.359C274.708 201.351 274.095 201.344 273.481 201.338C273.022 201.333 272.563 201.328 272.104 201.323C265.987 201.259 259.873 201.195 253.76 201.129L248.85 201.076C247.286 201.059 245.692 201.045 244.19 201.49C242.85 201.841 241.686 202.674 240.922 203.829C240.824 203.996 240.737 204.17 240.662 204.349C240.471 204.807 240.366 205.299 240.261 205.789C240.112 206.487 239.964 207.181 239.568 207.766C239.065 208.458 238.32 208.936 237.481 209.105C236.652 209.291 235.798 209.343 234.953 209.259C233.968 209.18 232.991 209.027 232.015 208.873C230.763 208.676 229.513 208.48 228.249 208.44C225.999 208.37 223.585 208.893 222.044 210.532C220.648 212.012 220.194 214.13 219.952 216.152C219.521 219.758 219.568 223.405 220.093 226.999L219.868 227.347C231.206 234.606 244.407 238.416 257.869 238.316C271.33 238.216 284.473 234.209 295.702 226.783C296.675 223.828 296.208 216.794 294.451 214.257C293.603 213.056 292.504 212.053 291.23 211.317C289.957 210.58 288.538 210.129 287.074 209.994C286.911 209.98 286.744 209.967 286.581 209.962C286.395 209.956 286.206 209.954 286.016 209.952C285.015 209.94 283.981 209.928 283.226 209.306C282.358 208.586 282.263 207.443 282.166 206.272ZM288.667 213.184C288.349 213.006 287.946 213.121 287.769 213.439C287.592 213.758 287.706 214.161 288.025 214.338C291.239 216.128 292.793 220.472 291.445 223.894C291.311 224.234 291.478 224.617 291.817 224.751C292.157 224.885 292.54 224.718 292.674 224.379C294.265 220.34 292.461 215.296 288.667 213.184Z" fill="url(#paint0_linear_82_235)"/>
<path fill-rule="evenodd" clip-rule="evenodd" d="M174.813 141.134L174.399 140.834C160.976 132.598 145.336 128.707 129.619 129.694C129.561 130.315 129.338 130.908 128.971 131.412C127.95 132.759 126.021 132.927 124.33 132.975C112.053 133.339 99.776 133.702 87.4972 134.063C86.1803 134.103 84.7267 134.099 83.7183 133.244C83.4313 132.999 83.1936 132.702 83.0179 132.369L82.2887 132.739C70.3661 135.277 59.3688 141.038 50.4949 149.396C58.7552 157.891 68.7627 164.49 79.8249 168.737C90.8871 172.983 102.74 174.776 114.563 173.99C126.386 173.204 137.898 169.859 148.301 164.186C158.704 158.513 167.75 150.647 174.813 141.134ZM133.42 134.208C144.522 134.11 155.494 136.596 165.469 141.469C165.797 141.629 166.192 141.493 166.353 141.165C166.513 140.837 166.377 140.442 166.049 140.282C155.89 135.319 144.715 132.787 133.408 132.887C133.043 132.89 132.75 133.188 132.754 133.553C132.757 133.918 133.055 134.211 133.42 134.208Z" fill="url(#paint1_linear_82_235)"/>
<path d="M287.093 209.818L287.076 209.994C286.913 209.981 286.745 209.968 286.582 209.963C285.42 209.923 284.125 210.046 283.226 209.307C282.011 208.298 282.31 206.463 281.998 204.88C283.042 204.81 284.087 204.741 285.133 204.673C286.115 204.607 287.216 204.581 287.943 205.246C288.612 205.862 288.731 206.91 288.467 207.783C288.203 208.655 287.656 209.104 287.093 209.818Z" fill="url(#paint2_linear_82_235)"/>
<path d="M280.69 162.776C285.253 164.37 287.825 170.14 285.966 174.601C284.108 179.061 278.189 181.291 273.846 179.164L273.146 179.159C273.212 172.721 273.059 166.285 272.688 159.851C272.552 157.469 272.336 154.949 270.938 153.012C269.498 151.017 267.067 150.017 264.715 149.29C256.726 146.836 248.254 146.402 240.056 148.026C240.069 149.849 240.082 151.671 240.096 153.491C237.268 154.192 234.15 154.011 231.601 152.593C229.033 151.166 227.153 148.396 227.174 145.458C227.196 142.52 229.362 139.631 232.257 139.129C230.751 135.822 230.116 131.933 231.424 128.541C232.733 125.15 236.349 122.526 239.929 123.146C243.364 123.745 245.703 126.864 247.676 129.734C247.403 126.167 250.292 122.736 253.811 122.084C257.33 121.432 261.087 123.392 262.866 126.501C264.646 129.61 264.509 133.632 262.835 136.799C265.302 135.182 268.239 134.134 271.177 134.381C274.115 134.627 277.008 136.332 278.211 139.023C279.413 141.713 278.541 145.307 275.982 146.774C280.096 145.787 284.746 148.478 285.94 152.539C287.134 156.599 284.68 161.38 280.69 162.776Z" fill="#171717"/>
<path d="M240.665 204.347C240.202 205.457 240.246 206.769 239.571 207.764C239.067 208.456 238.322 208.934 237.483 209.103L237.452 208.989C236.823 208.843 235.192 208.65 234.629 208.328C234.34 208.18 234.085 207.973 233.882 207.719C233.679 207.465 233.531 207.172 233.449 206.857C233.264 205.946 233.887 205.016 234.7 204.571C235.547 204.177 236.482 204.008 237.413 204.082C238.34 204.153 239.273 204.117 240.192 203.976L240.921 203.827C240.825 203.994 240.739 204.168 240.665 204.347Z" fill="url(#paint3_linear_82_235)"/>
<path d="M113.286 43.1711C113.758 40.3128 114.321 37.3574 116.1 35.0805C117.941 32.7286 121.531 31.4514 124.002 33.134C125.715 34.3007 126.42 36.5648 126.23 38.6306C126.041 40.6963 125.103 42.6074 124.107 44.4274C125.918 42.2472 127.798 40.016 130.313 38.7035C132.828 37.391 136.157 37.228 138.311 39.0735C140.795 41.2096 140.777 45.2481 139.17 48.1021C137.562 50.956 134.758 52.8982 132.053 54.7437L132.652 55.206C134.189 55.576 135.779 55.012 137.342 54.7568C138.905 54.5016 140.795 54.7039 141.623 56.0562C142.451 57.3993 141.729 59.2667 140.46 60.2048C139.192 61.1429 137.549 61.3806 135.976 61.5537C134.226 61.743 132.479 61.8797 130.722 61.981C119.271 62.6417 107.705 61.7623 96.3338 63.3333C93.493 63.7252 90.375 64.4518 88.7504 66.8125C87.3895 68.7812 87.4379 71.3621 87.5437 73.7534C87.8696 81.3904 88.197 89.0258 88.5259 96.6598L88.1208 96.6773C86.7908 99.9188 81.9812 101.029 79.361 98.699C76.9387 96.5479 77.2118 92.2028 79.6782 90.2078C79.9159 90.0897 80.1368 89.9402 80.3344 89.763C80.1029 89.8917 79.8834 90.0405 79.6782 90.2078C77.3922 91.4146 74.0319 89.9526 73.225 87.3848C72.3839 84.6895 74.0486 81.6419 76.5679 80.3484C76.6919 80.2992 76.8125 80.2416 76.9292 80.1767C76.806 80.2295 76.6871 80.286 76.5679 80.3484C74.6301 81.1505 72.1594 80.115 71.1155 78.2608C70.0101 76.2876 70.3404 73.7243 71.5385 71.7996C72.7365 69.875 74.6739 68.5228 76.7177 67.5497C74.4938 66.6247 73.4894 63.7843 74.1456 61.4673C74.8019 59.1504 76.775 57.3891 78.9727 56.3996C81.1704 55.4101 83.5927 55.0827 85.9796 54.7612C85.3544 52.013 85.3277 49.0489 86.4288 46.4505C87.5298 43.8521 89.8923 41.7029 92.6872 41.3372C95.0964 41.02 97.7035 42.2666 98.8268 44.3673C98.9354 44.7366 99.0754 45.0961 99.2453 45.4421C99.1502 45.068 99.0095 44.7071 98.8268 44.3673C98.4954 43.3038 98.4072 42.1794 98.5687 41.0773C98.7302 39.9751 99.1374 38.9233 99.7601 37.9998C100.383 37.0763 101.205 36.3047 102.167 35.7418C103.128 35.1789 104.203 34.8392 105.313 34.7479C106.424 34.6565 107.54 34.8158 108.58 35.2141C109.62 35.6123 110.558 36.2393 111.323 37.0486C112.089 37.858 112.662 38.8289 113.002 39.8898C113.341 40.9508 113.438 42.0741 113.285 43.1776L113.286 43.1711Z" fill="#171717"/>
<path d="M129.621 129.695C129.564 130.316 129.341 130.909 128.974 131.413C127.953 132.762 126.023 132.928 124.332 132.976C112.058 133.338 99.7803 133.7 87.4997 134.064C86.1828 134.104 84.7289 134.101 83.7208 133.245C83.4342 133 83.1965 132.704 83.0204 132.37C82.4918 131.383 82.4302 130.106 82.4214 128.948C82.4039 127.142 82.4477 125.165 83.6151 123.786C84.9451 122.223 87.231 121.989 89.2789 121.875H89.5917C94.8326 121.853 100.17 121.307 105.368 120.708C108.415 120.397 111.48 120.295 114.542 120.4C117.268 120.457 119.994 120.576 122.672 120.589C124.063 120.598 125.539 120.629 126.719 121.364C128.511 122.478 129.04 124.799 129.414 126.874C129.616 127.8 129.686 128.75 129.621 129.695Z" fill="url(#paint4_linear_82_235)"/>
<path d="M120.888 286.873C120.801 292.018 121.852 297.12 123.966 301.812C125.014 304.12 126.336 306.344 128.168 308.101C129.999 309.858 132.383 311.114 134.915 311.25C138.584 311.453 142.12 309.224 144.111 306.137C146.102 303.049 146.705 299.231 146.489 295.564C146.273 291.897 145.282 288.323 144.305 284.782L144.283 284.17C152.444 283.838 160.475 286.292 167.057 291.129C170.376 293.614 173.231 296.666 175.491 300.144C178.648 304.954 180.597 310.455 181.172 316.18L181.626 316.686C168.865 328.245 152.419 334.904 135.212 335.478C118.004 336.052 101.151 330.504 87.6487 319.822L87.831 319.597C88.3396 315.351 89.7494 311.264 91.9664 307.608C94.4762 303.461 97.7192 299.804 101.537 296.817C107.261 292.298 113.939 289.184 120.845 286.754L120.888 286.873Z" fill="url(#paint5_linear_82_235)"/>
<path d="M108.391 92.0796C110.098 92.3282 111.841 92.0289 113.368 91.225C112.187 85.3362 111.007 79.4478 109.827 73.5598C109.541 72.146 109.28 70.587 109.998 69.3361C110.866 67.8257 112.817 67.363 114.561 67.2529C117.926 67.0444 121.295 67.6018 124.413 68.8826" stroke="#171717" stroke-width="3.624" stroke-linecap="round" stroke-linejoin="round"/>
<path d="M115.22 75.1407C116.26 74.6233 117.406 74.3543 118.568 74.355C119.729 74.3557 120.875 74.6262 121.914 75.145" stroke="#171717" stroke-width="3.624" stroke-linecap="round" stroke-linejoin="round"/>
<path d="M105.05 75.8453C104.508 75.3207 103.865 74.912 103.159 74.6444C102.453 74.3771 101.701 74.2565 100.947 74.2904C100.193 74.3243 99.454 74.5117 98.7752 74.8413C98.0963 75.1708 97.4922 75.6353 96.9993 76.2066" stroke="#171717" stroke-width="3.624" stroke-linecap="round" stroke-linejoin="round"/>
<path d="M104.623 102.275C103.954 102.539 103.24 102.666 102.522 102.649C101.803 102.632 101.095 102.472 100.44 102.178C99.7844 101.884 99.1945 101.461 98.7045 100.936C98.2145 100.41 97.8342 99.7915 97.5867 99.1171" stroke="#171717" stroke-width="3.624" stroke-linecap="round" stroke-linejoin="round"/>
<path d="M114.552 119.835C114.235 118.117 113.918 116.378 114.046 114.638C114.174 112.898 114.79 111.128 116.08 109.956C118.155 108.071 121.396 108.137 123.709 106.552C126.703 104.499 127.294 100.399 127.619 96.783C128.655 85.2177 129.691 73.6535 130.729 62.0911" stroke="#171717" stroke-width="3.624" stroke-linecap="round" stroke-linejoin="round"/>
<path d="M89.5915 121.49C89.2349 113.215 88.8795 104.937 88.5258 96.655C88.1999 89.0181 87.8725 81.3826 87.5436 73.7486C87.4379 71.3573 87.3894 68.7764 88.7504 66.8077C90.3757 64.447 93.4936 63.7204 96.3337 63.3285C107.705 61.756 119.271 62.6357 130.722 61.9762C132.479 61.8749 134.227 61.7385 135.976 61.5489C137.548 61.3772 139.187 61.1395 140.46 60.2C141.734 59.2604 142.451 57.3945 141.623 56.0514C140.795 54.6991 138.906 54.4968 137.342 54.752C135.778 55.0072 134.189 55.5712 132.652 55.2012" stroke="#171717" stroke-width="3.624" stroke-linecap="round" stroke-linejoin="round"/>
<path d="M79.678 90.203C77.2116 92.198 76.9385 96.5468 79.3608 98.6942C81.9814 101.024 86.7906 99.914 88.1206 96.6725" stroke="#171717" stroke-width="3.624" stroke-linecap="round" stroke-linejoin="round"/>
<path d="M79.678 90.2031C79.9157 90.0853 80.1366 89.9359 80.3342 89.7583C80.1027 89.887 79.8832 90.0357 79.678 90.2031Z" stroke="#171717" stroke-width="3.624" stroke-linecap="round" stroke-linejoin="round"/>
<path d="M76.568 80.3422C74.0488 81.6372 72.3841 84.6847 73.2252 87.3786C74.0313 89.9464 77.3916 91.4084 79.6783 90.2016" stroke="#171717" stroke-width="3.624" stroke-linecap="round" stroke-linejoin="round"/>
<path d="M76.5684 80.3421C76.6923 80.2929 76.813 80.2357 76.9297 80.1704C76.8061 80.2233 76.6872 80.2812 76.5684 80.3421Z" stroke="#171717" stroke-width="3.624" stroke-linecap="round" stroke-linejoin="round"/>
<path d="M98.8273 44.3596C97.7044 42.2589 95.0969 41.0124 92.6877 41.3295C89.891 41.6941 87.5303 43.8488 86.4293 46.4428C85.3282 49.0368 85.3545 52.0053 85.9801 54.7553C83.5932 55.0769 81.1676 55.4028 78.9732 56.3938C76.7787 57.3847 74.8023 59.1464 74.1461 61.4615C73.4898 63.7766 74.4939 66.6189 76.7182 67.5438C74.6766 68.5172 72.737 69.8735 71.539 71.7938C70.3409 73.714 70.0106 76.2818 71.116 78.2549C72.1598 80.1092 74.6306 81.1442 76.5684 80.3425" stroke="#171717" stroke-width="3.624" stroke-linecap="round" stroke-linejoin="round"/>
<path d="M98.8269 44.3596C98.9356 44.7289 99.0756 45.0888 99.2454 45.4344C99.1503 45.0604 99.0096 44.6994 98.8269 44.3596Z" stroke="#171717" stroke-width="3.624" stroke-linecap="round" stroke-linejoin="round"/>
<path d="M113.286 43.1707C113.44 42.0671 113.344 40.9427 113.005 39.881C112.666 38.8194 112.092 37.8474 111.327 37.0373C110.561 36.2274 109.624 35.5998 108.583 35.2011C107.542 34.8024 106.425 34.6428 105.314 34.7341C104.203 34.8255 103.127 35.1654 102.166 35.7287C101.204 36.2921 100.382 37.0643 99.7585 37.9885C99.1357 38.9131 98.7285 39.9653 98.5674 41.0681C98.4062 42.171 98.4952 43.2957 98.8273 44.3596" stroke="#171717" stroke-width="3.624" stroke-linecap="round" stroke-linejoin="round"/>
<path d="M132.052 54.7407C134.756 52.8952 137.557 50.9491 139.169 48.0991C140.781 45.2492 140.794 41.2085 138.31 39.0706C136.157 37.225 132.822 37.388 130.312 38.7005C127.802 40.013 125.917 42.2457 124.107 44.4245C125.102 42.6056 126.039 40.6897 126.23 38.6276C126.42 36.5655 125.715 34.298 124.001 33.131C121.53 31.4484 117.941 32.7259 116.1 35.0775C114.321 37.3545 113.757 40.3098 113.286 43.1681C113.268 43.2695 113.255 43.3708 113.237 43.4722" stroke="#171717" stroke-width="3.624" stroke-linecap="round" stroke-linejoin="round"/>
<path d="M89.5917 121.874H89.2789C87.231 121.988 84.9451 122.222 83.6151 123.786C82.4484 125.164 82.4039 127.142 82.4214 128.947C82.4302 130.106 82.4918 131.383 83.0204 132.369C83.1962 132.703 83.4339 133 83.7208 133.244C84.7292 134.099 86.1828 134.103 87.4997 134.063C99.7785 133.702 112.056 133.339 124.332 132.976C126.023 132.927 127.952 132.76 128.974 131.412C129.34 130.908 129.564 130.315 129.621 129.695C129.686 128.749 129.617 127.798 129.414 126.872C129.04 124.797 128.512 122.476 126.719 121.362C125.539 120.627 124.063 120.597 122.672 120.587C119.994 120.574 117.268 120.455 114.542 120.397C111.481 120.292 108.415 120.395 105.368 120.706C100.17 121.306 94.8326 121.852 89.5917 121.874Z" stroke="#171717" stroke-width="3.624" stroke-linecap="round" stroke-linejoin="round"/>
<path d="M50.3413 149.541C50.3942 149.492 50.4427 149.444 50.4955 149.395C59.3695 141.038 70.3668 135.276 82.2894 132.738" stroke="#171717" stroke-width="3.624" stroke-linecap="round" stroke-linejoin="round"/>
<path d="M129.348 129.713C129.441 129.709 129.531 129.7 129.621 129.696C145.338 128.709 160.976 132.598 174.399 140.834" stroke="#171717" stroke-width="3.624" stroke-linecap="round" stroke-linejoin="round"/>
<path d="M243.945 152.126C247.843 152.487 251.741 152.85 255.639 153.214C254.463 158.491 253.288 163.765 252.115 169.037C251.807 170.42 251.635 172.173 252.811 172.957C254.022 173.763 255.885 172.917 257.004 173.851" stroke="#171717" stroke-width="3.624" stroke-linecap="round" stroke-linejoin="round"/>
<path d="M259.787 181.63C259.55 181.626 259.307 181.617 259.07 181.612C259.792 181.915 260.567 182.073 261.35 182.075C262.134 182.077 262.91 181.925 263.634 181.627C264.359 181.328 265.017 180.89 265.571 180.336C266.126 179.783 266.565 179.125 266.865 178.402" stroke="#171717" stroke-width="3.624" stroke-linecap="round" stroke-linejoin="round"/>
<path d="M261.809 159.248C261.963 158.315 262.119 157.381 262.276 156.447" stroke="#171717" stroke-width="3.624" stroke-linecap="round" stroke-linejoin="round"/>
<path d="M248.931 159.865C248.845 158.819 249.067 157.772 249.57 156.852" stroke="#171717" stroke-width="3.624" stroke-linecap="round" stroke-linejoin="round"/>
<path d="M253.767 200.546C254.414 197.921 255.062 195.253 254.973 192.553C254.885 189.853 253.961 187.056 251.917 185.282C249.428 183.119 245.711 182.78 243.289 180.542C240.457 177.926 240.237 173.601 240.21 169.747C240.171 164.33 240.132 158.911 240.096 153.491C240.083 151.669 240.07 149.847 240.056 148.026C248.254 146.401 256.727 146.836 264.715 149.29C267.067 150.017 269.498 151.016 270.938 153.012C272.334 154.949 272.55 157.469 272.688 159.851C273.059 166.281 273.211 172.717 273.146 179.159C273.08 186.448 272.735 193.727 272.111 200.995" stroke="#171717" stroke-width="3.624" stroke-linecap="round" stroke-linejoin="round"/>
<path d="M240.158 153.478L240.096 153.491C237.269 154.192 234.151 154.011 231.602 152.593C229.034 151.166 227.154 148.396 227.175 145.458C227.197 142.52 229.363 139.631 232.258 139.129C230.751 135.822 230.117 131.933 231.425 128.542C232.733 125.15 236.349 122.526 239.93 123.146C243.365 123.745 245.704 126.865 247.677 129.735C247.404 126.167 250.293 122.735 253.812 122.084C257.331 121.434 261.088 123.393 262.867 126.502C264.647 129.611 264.51 133.632 262.836 136.799C265.303 135.182 268.24 134.134 271.178 134.381C274.116 134.627 277.009 136.332 278.211 139.023C279.414 141.713 278.542 145.307 275.983 146.774C280.096 145.787 284.747 148.478 285.941 152.539C287.134 156.6 284.681 161.379 280.691 162.775C285.253 164.369 287.826 170.139 285.967 174.6C284.108 179.06 278.189 181.29 273.847 179.163" stroke="#171717" stroke-width="3.624" stroke-linecap="round" stroke-linejoin="round"/>
<path d="M220.099 226.998C219.574 223.404 219.527 219.757 219.958 216.15C220.2 214.129 220.654 212.011 222.05 210.531C223.591 208.892 226.005 208.368 228.255 208.438C230.506 208.509 232.712 209.077 234.959 209.258C235.804 209.341 236.657 209.289 237.487 209.104C238.326 208.935 239.07 208.457 239.574 207.765C240.248 206.77 240.204 205.457 240.668 204.347C240.743 204.168 240.83 203.995 240.928 203.828C241.692 202.673 242.855 201.84 244.196 201.489C245.697 201.044 247.292 201.057 248.855 201.075L253.766 201.128C259.879 201.194 265.993 201.258 272.11 201.321C273.184 201.335 274.254 201.343 275.329 201.358C277.772 201.384 280.742 201.737 281.728 203.974C281.853 204.265 281.945 204.569 282.001 204.882C282.314 206.463 282.015 208.299 283.23 209.308C284.128 210.048 285.423 209.924 286.586 209.964C286.749 209.969 286.916 209.982 287.079 209.995C288.544 210.13 289.962 210.581 291.235 211.318C292.509 212.054 293.608 213.057 294.456 214.258C296.214 216.795 296.68 223.829 295.707 226.784C295.703 226.793 295.703 226.806 295.699 226.815" stroke="#171717" stroke-width="3.624" stroke-linecap="round" stroke-linejoin="round"/>
<path d="M237.453 208.989C236.823 208.843 235.193 208.65 234.63 208.328C234.341 208.181 234.086 207.973 233.883 207.719C233.679 207.466 233.532 207.172 233.45 206.857C233.265 205.946 233.887 205.016 234.701 204.571C235.548 204.177 236.483 204.009 237.414 204.082C238.341 204.153 239.274 204.118 240.193 203.977" stroke="#171717" stroke-width="3.624" stroke-linecap="round" stroke-linejoin="round"/>
<path d="M281.853 204.889C281.901 204.885 281.95 204.885 281.999 204.88C283.042 204.81 284.088 204.741 285.134 204.673C286.116 204.607 287.217 204.581 287.944 205.246C288.613 205.862 288.732 206.91 288.468 207.782C288.204 208.654 287.656 209.104 287.094 209.818" stroke="#171717" stroke-width="3.624" stroke-linecap="round" stroke-linejoin="round"/>
<path d="M91.9916 307.648L91.9654 307.608C85.0904 297.527 84.8217 283.354 91.3091 273.018C93.3657 269.741 96.0524 266.79 97.3474 263.143C98.7215 259.268 98.3824 255.03 98.514 250.922C98.9234 238.277 104.319 225.668 113.907 217.419C123.495 209.17 137.302 205.739 149.374 209.513C161.445 213.288 171.073 224.567 171.95 237.18C172.333 242.734 171.144 248.385 172.223 253.846C173.236 258.968 176.156 263.487 178.037 268.356C182.287 279.38 182.163 290.263 175.588 300.075" stroke="#171717" stroke-width="3.624" stroke-linecap="round" stroke-linejoin="round"/>
<path d="M115.4 250.507C118.268 250.88 121.178 250.282 123.666 248.807C126.939 246.926 129.48 243.747 130.215 240.034C132.31 241.346 134.726 242.056 137.198 242.087C139.67 242.117 142.103 241.466 144.229 240.206C148.017 237.889 150.043 233.461 150.043 229.023C150.043 228.534 150.017 228.045 149.97 227.561" stroke="#171717" stroke-width="3.624" stroke-linecap="round" stroke-linejoin="round"/>
<path d="M150.026 228.975C150.03 228.993 150.039 229.006 150.043 229.024C152.254 234.908 154.474 240.849 155.425 247.059C156.385 253.291 155.989 259.902 153.143 265.526C150.611 270.551 146.343 274.435 142.798 278.805C141.285 280.635 139.98 282.628 138.906 284.746C138.869 284.819 138.835 284.892 138.8 284.965C137.404 287.881 136.651 291.011 137.14 294.178" stroke="#171717" stroke-width="3.624" stroke-linecap="round" stroke-linejoin="round"/>
<path d="M123.667 248.776V248.807C124.001 260.906 124.349 273.105 126.274 285.019C126.936 289.214 127.829 293.369 128.947 297.465C129.621 299.908 130.449 302.433 132.255 304.21C134.061 305.987 137.144 306.72 139.156 305.183C140.654 304.042 141.169 302.034 141.385 300.167C141.989 294.948 141.306 289.663 138.879 285.003" stroke="#171717" stroke-width="3.624" stroke-linecap="round" stroke-linejoin="round"/>
<path d="M141.2 254.185C142.288 254.167 143.618 254 144.044 252.995C144.33 252.331 144.075 251.568 143.819 250.891C143.04 248.807 142.26 246.726 141.481 244.645" stroke="#171717" stroke-width="3.624" stroke-linecap="round" stroke-linejoin="round"/>
<path d="M135.497 245.443C134.834 244.907 133.989 244.65 133.141 244.726C132.292 244.802 131.507 245.206 130.951 245.852" stroke="#171717" stroke-width="3.624" stroke-linecap="round" stroke-linejoin="round"/>
<path d="M150.497 244.13C150.215 243.884 149.886 243.696 149.531 243.578C149.175 243.46 148.799 243.413 148.425 243.441C148.051 243.47 147.687 243.572 147.353 243.743C147.019 243.913 146.723 244.148 146.48 244.434" stroke="#171717" stroke-width="3.624" stroke-linecap="round" stroke-linejoin="round"/>
<path d="M140.42 263.588C139.802 263.794 139.149 263.872 138.499 263.817C137.85 263.761 137.219 263.574 136.645 263.266C136.071 262.958 135.566 262.535 135.161 262.025C134.755 261.515 134.459 260.927 134.29 260.298" stroke="#171717" stroke-width="3.624" stroke-linecap="round" stroke-linejoin="round"/>
<path d="M125.992 285.063C124.271 285.592 122.548 286.151 120.844 286.754C113.938 289.185 107.261 292.299 101.536 296.816C97.7183 299.804 94.4753 303.461 91.9655 307.608C89.7485 311.264 88.3383 315.351 87.8301 319.596" stroke="#171717" stroke-width="3.624" stroke-linecap="round" stroke-linejoin="round"/>
<path d="M139.011 284.794C140.75 284.447 142.512 284.238 144.283 284.168C152.444 283.836 160.475 286.291 167.057 291.127C170.377 293.613 173.232 296.665 175.491 300.142C178.648 304.952 180.597 310.454 181.172 316.178" stroke="#171717" stroke-width="3.624" stroke-linecap="round" stroke-linejoin="round"/>
<path d="M120.888 286.873C120.801 292.018 121.852 297.12 123.966 301.812C125.014 304.12 126.336 306.344 128.168 308.101C129.999 309.858 132.383 311.114 134.915 311.25C138.584 311.453 142.12 309.224 144.111 306.137C146.102 303.049 146.705 299.231 146.489 295.564C146.273 291.897 145.282 288.323 144.305 284.782" stroke="#171717" stroke-width="3.624" stroke-linecap="round" stroke-linejoin="round"/>
<path d="M50.4949 149.396C36.1818 134.678 28.1757 114.957 28.1794 94.4271C28.1794 50.3854 64.4391 14.6848 109.164 14.6848C153.889 14.6848 190.149 50.3854 190.149 94.4271C190.163 111.235 184.788 127.605 174.813 141.134C167.75 150.647 158.703 158.513 148.301 164.186C137.898 169.859 126.386 173.204 114.563 173.99C102.74 174.776 90.8871 172.983 79.8249 168.737C68.7627 164.49 58.7552 157.891 50.4949 149.396Z" stroke="#171717" stroke-width="3.624" stroke-linecap="round" stroke-linejoin="round"/>
<path d="M87.6495 319.821C79.0344 313.017 72.0745 304.349 67.293 294.468C62.5115 284.587 60.033 273.75 60.044 262.773C60.044 222.593 92.6126 190.024 132.792 190.024C172.972 190.024 205.537 222.593 205.537 262.773C205.536 276.442 201.684 289.835 194.421 301.416C187.159 312.997 176.781 322.298 164.477 328.253C152.172 334.207 138.439 336.574 124.85 335.083C111.262 333.592 98.3697 328.302 87.6495 319.821Z" stroke="#171717" stroke-width="3.624" stroke-linecap="round" stroke-linejoin="round"/>
<path d="M219.872 227.346C210.054 221.063 201.977 212.409 196.384 202.183C190.792 191.956 187.864 180.486 187.871 168.83C187.871 130.456 218.978 99.3494 257.352 99.3494C295.726 99.3494 326.837 130.456 326.837 168.83C326.837 181.299 323.481 193.538 317.123 204.264C310.764 214.99 301.637 223.807 290.698 229.791C279.759 235.775 267.411 238.706 254.95 238.276C242.488 237.845 230.372 234.07 219.872 227.346Z" stroke="#171717" stroke-width="3.624" stroke-linecap="round" stroke-linejoin="round"/>
<path d="M121.732 294.121L126.958 291.753" stroke="#171717" stroke-width="3.624" stroke-linecap="round" stroke-linejoin="round"/>
<path d="M123.926 301.47C125.345 300.367 126.886 299.432 128.519 298.681" stroke="#171717" stroke-width="3.624" stroke-linecap="round" stroke-linejoin="round"/>
<path d="M128.717 308.596L132.177 304.982" stroke="#171717" stroke-width="3.624" stroke-linecap="round" stroke-linejoin="round"/>
<path d="M136.485 310.96C136.517 309.482 136.547 308.005 136.578 306.528" stroke="#171717" stroke-width="3.624" stroke-linecap="round" stroke-linejoin="round"/>
<path d="M140.386 304.105C141.655 304.543 142.966 304.853 144.297 305.03" stroke="#171717" stroke-width="3.624" stroke-linecap="round" stroke-linejoin="round"/>
<path d="M141.744 298.707C143.134 297.989 144.62 297.476 146.156 297.182" stroke="#171717" stroke-width="3.624" stroke-linecap="round" stroke-linejoin="round"/>
<path d="M141.349 291.249L145.071 290.433" stroke="#171717" stroke-width="3.624" stroke-linecap="round" stroke-linejoin="round"/>
<path d="M136.423 311.123C137.132 318.955 137.679 326.799 138.064 334.657" stroke="#171717" stroke-width="3.624" stroke-linecap="round" stroke-linejoin="round"/>
<path d="M118.347 312.12L116.787 309.247" stroke="#171717" stroke-width="3.624" stroke-linecap="round" stroke-linejoin="round"/>
<path d="M115.76 312.343L119.416 309.86" stroke="#171717" stroke-width="3.624" stroke-linecap="round" stroke-linejoin="round"/>
<path d="M164.458 315.68C163.467 314.94 162.517 314.147 161.611 313.306" stroke="#171717" stroke-width="3.624" stroke-linecap="round" stroke-linejoin="round"/>
<path d="M162.018 316.414L161.864 316.425L164.173 312.735" stroke="#171717" stroke-width="3.624" stroke-linecap="round" stroke-linejoin="round"/>
<path d="M158.514 298.76C157.537 297.955 156.629 297.068 155.802 296.11" stroke="#171717" stroke-width="3.624" stroke-linecap="round" stroke-linejoin="round"/>
<path d="M156.087 299.21L158.491 295.29" stroke="#171717" stroke-width="3.624" stroke-linecap="round" stroke-linejoin="round"/>
<path d="M150.551 326.243C149.519 325.469 148.561 324.601 147.691 323.648" stroke="#171717" stroke-width="3.624" stroke-linecap="round" stroke-linejoin="round"/>
<path d="M150.509 323.058L147.984 326.631" stroke="#171717" stroke-width="3.624" stroke-linecap="round" stroke-linejoin="round"/>
<path d="M125.876 329.924C127.327 328.498 128.614 326.914 129.713 325.201" stroke="#171717" stroke-width="3.624" stroke-linecap="round" stroke-linejoin="round"/>
<path d="M129.406 329.66C128.31 328.367 127.214 327.075 126.119 325.782" stroke="#171717" stroke-width="3.624" stroke-linecap="round" stroke-linejoin="round"/>
<path d="M99.9199 316.247C100.519 315.242 101.209 314.295 101.981 313.417" stroke="#171717" stroke-width="3.624" stroke-linecap="round" stroke-linejoin="round"/>
<path d="M101.969 315.985C101.077 315.206 100.309 314.297 99.6909 313.287" stroke="#171717" stroke-width="3.624" stroke-linecap="round" stroke-linejoin="round"/>
<path d="M276.623 208.678C276.574 207.357 276.527 206.036 276.48 204.714" stroke="#171717" stroke-width="3.624" stroke-linecap="round" stroke-linejoin="round"/>
<path d="M270.622 208.603C270.778 207.339 270.778 206.061 270.622 204.797" stroke="#171717" stroke-width="3.624" stroke-linecap="round" stroke-linejoin="round"/>
<path d="M264.423 208.218C264.6 207.007 264.653 205.781 264.583 204.559" stroke="#171717" stroke-width="3.624" stroke-linecap="round" stroke-linejoin="round"/>
<path d="M258.291 207.825C258.323 206.658 258.356 205.491 258.389 204.325" stroke="#171717" stroke-width="3.624" stroke-linecap="round" stroke-linejoin="round"/>
<path d="M251.981 207.603C252.27 206.696 252.357 205.737 252.236 204.793" stroke="#171717" stroke-width="3.624" stroke-linecap="round" stroke-linejoin="round"/>
<path d="M245.662 207.901L245.811 204.637" stroke="#171717" stroke-width="3.624" stroke-linecap="round" stroke-linejoin="round"/>
<path d="M256.471 211.573C256.241 211.474 255.982 211.466 255.747 211.553C255.512 211.639 255.319 211.813 255.209 212.037C255.099 212.262 255.079 212.521 255.154 212.76C255.229 212.998 255.393 213.199 255.613 213.32C255.832 213.441 256.089 213.473 256.331 213.409C256.573 213.345 256.782 213.191 256.913 212.978C257.044 212.765 257.088 212.509 257.036 212.264C256.984 212.019 256.839 211.804 256.633 211.663" stroke="#171717" stroke-width="3.624" stroke-linecap="round" stroke-linejoin="round"/>
<path d="M269.682 211.574C269.452 211.474 269.193 211.466 268.958 211.552C268.722 211.638 268.529 211.812 268.419 212.037C268.308 212.261 268.288 212.52 268.363 212.759C268.438 212.998 268.602 213.199 268.821 213.321C269.041 213.442 269.298 213.474 269.54 213.41C269.783 213.347 269.991 213.192 270.123 212.979C270.255 212.766 270.299 212.51 270.247 212.265C270.195 212.02 270.05 211.804 269.844 211.663" stroke="#171717" stroke-width="3.624" stroke-linecap="round" stroke-linejoin="round"/>
<path d="M255.926 212.332C254.819 213.616 254.577 215.461 254.829 217.139C255.08 218.816 255.765 220.391 256.329 221.99C256.892 223.59 257.344 225.289 257.104 226.968C256.863 228.647 255.782 230.301 254.15 230.765" stroke="#171717" stroke-width="3.624" stroke-linecap="round" stroke-linejoin="round"/>
<path d="M269.167 212.616C270.435 213.757 271.399 215.196 271.972 216.802C272.545 218.409 272.708 220.132 272.448 221.818C272.252 223.008 271.844 224.156 271.683 225.35C271.522 226.544 271.646 227.852 272.396 228.794" stroke="#171717" stroke-width="3.624" stroke-linecap="round" stroke-linejoin="round"/>
<path d="M123.18 132.821C123.089 128.883 122.998 124.946 122.908 121.008" stroke="#171717" stroke-width="3.624" stroke-linecap="round" stroke-linejoin="round"/>
<path d="M115.745 133.134C115.902 129.057 116.06 124.981 116.217 120.904" stroke="#171717" stroke-width="3.624" stroke-linecap="round" stroke-linejoin="round"/>
<path d="M108.149 133.236C108.026 129.228 107.903 125.221 107.78 121.213" stroke="#171717" stroke-width="3.624" stroke-linecap="round" stroke-linejoin="round"/>
<path d="M99.4335 133.443C99.2304 129.474 99.14 125.501 99.1619 121.525" stroke="#171717" stroke-width="3.624" stroke-linecap="round" stroke-linejoin="round"/>
<path d="M91.6099 133.651L91.553 122.562" stroke="#171717" stroke-width="3.624" stroke-linecap="round" stroke-linejoin="round"/>
<path d="M86.5594 133.547C86.4566 129.954 86.3531 126.362 86.2495 122.769" stroke="#171717" stroke-width="3.624" stroke-linecap="round" stroke-linejoin="round"/>
<path d="M152.647 147.107C152.761 146.742 152.801 146.358 152.765 145.977C152.729 145.596 152.617 145.226 152.436 144.889C152.255 144.552 152.009 144.254 151.713 144.013C151.415 143.772 151.073 143.592 150.706 143.484C149.718 143.242 148.69 143.557 147.699 143.787C146.708 144.017 145.593 144.149 144.735 143.6C143.794 142.998 143.479 141.791 143.261 140.695" stroke="#171717" stroke-width="3.624" stroke-linecap="round" stroke-linejoin="round"/>
<path d="M135.143 164.082C135.505 163.581 135.677 162.968 135.629 162.351C135.581 161.735 135.315 161.156 134.879 160.718C134.363 160.23 133.664 159.98 133.124 159.521C132.583 159.061 132.232 158.208 132.67 157.652" stroke="#171717" stroke-width="3.624" stroke-linecap="round" stroke-linejoin="round"/>
<path d="M113.794 155.365C113.426 154.668 113.156 153.923 112.992 153.152C112.912 152.765 112.912 152.367 112.993 151.98C113.074 151.594 113.234 151.228 113.462 150.906C113.859 150.403 114.459 150.107 114.936 149.678C115.391 149.258 115.725 148.724 115.904 148.131C116.083 147.539 116.101 146.909 115.955 146.308" stroke="#171717" stroke-width="3.624" stroke-linecap="round" stroke-linejoin="round"/>
<path d="M93.0077 163.7C92.8028 162.778 92.221 161.994 91.7856 161.156C91.3503 160.318 91.0598 159.297 91.4674 158.445C91.8214 157.705 92.6041 157.288 93.1973 156.721C93.6928 156.237 94.0614 155.639 94.2703 154.979C94.4796 154.319 94.5222 153.617 94.3953 152.936" stroke="#171717" stroke-width="3.624" stroke-linecap="round" stroke-linejoin="round"/>
<path d="M79.7398 150.034C79.5509 149.284 79.4915 148.507 79.5637 147.737C79.6041 147.353 79.7409 146.984 79.9611 146.666C80.1813 146.348 80.4781 146.09 80.8237 145.917C81.2685 145.732 81.7716 145.743 82.2302 145.597C82.6411 145.439 83.0104 145.189 83.3098 144.866C83.6095 144.543 83.8315 144.157 83.9587 143.735C84.2066 142.891 84.3226 142.014 84.3029 141.135" stroke="#171717" stroke-width="3.624" stroke-linecap="round" stroke-linejoin="round"/>
<path d="M63.3391 152.18C63.2414 151.551 63.2301 150.911 63.3056 150.279C63.345 149.963 63.4482 149.658 63.6089 149.383C63.7694 149.107 63.9841 148.867 64.2397 148.677C64.7144 148.434 65.216 148.248 65.7345 148.121C66.2748 147.917 66.7589 147.587 67.1469 147.159C67.5344 146.73 67.8148 146.216 67.9646 145.658" stroke="#171717" stroke-width="3.624" stroke-linecap="round" stroke-linejoin="round"/>
<path d="M143.958 66.8781L151.17 59.0322" stroke="#171717" stroke-width="3.624" stroke-linecap="round" stroke-linejoin="round"/>
<path d="M145.052 72.7009C152.054 71.5995 158.927 69.7999 165.57 67.3287" stroke="#171717" stroke-width="3.624" stroke-linecap="round" stroke-linejoin="round"/>
<path d="M143.099 79.3009C144.936 81.1216 147.139 82.5326 149.561 83.4407" stroke="#171717" stroke-width="3.624" stroke-linecap="round" stroke-linejoin="round"/>
<path d="M75.1147 44.8364C75.9941 43.3329 76.8731 41.8293 77.7521 40.3254" stroke="#171717" stroke-width="3.624" stroke-linecap="round" stroke-linejoin="round"/>
<path d="M78.3034 44.7928C77.1958 43.131 75.7827 41.6953 74.1392 40.5618" stroke="#171717" stroke-width="3.624" stroke-linecap="round" stroke-linejoin="round"/>
<path d="M66.7669 61.6099L63.9458 55.8699" stroke="#171717" stroke-width="3.624" stroke-linecap="round" stroke-linejoin="round"/>
<path d="M62.3594 61.3032C63.9274 59.586 65.711 58.0785 67.6655 56.8188" stroke="#171717" stroke-width="3.624" stroke-linecap="round" stroke-linejoin="round"/>
<path d="M222.969 157.063C222.463 155.702 221.714 154.444 220.76 153.35" stroke="#171717" stroke-width="3.624" stroke-linecap="round" stroke-linejoin="round"/>
<path d="M220.122 156.889L223.367 153.45" stroke="#171717" stroke-width="3.624" stroke-linecap="round" stroke-linejoin="round"/>
<path d="M224.908 175.69C222.975 174.739 221.176 173.537 219.557 172.115" stroke="#171717" stroke-width="3.624" stroke-linecap="round" stroke-linejoin="round"/>
<path d="M219.999 177.28L224.277 169.397" stroke="#171717" stroke-width="3.624" stroke-linecap="round" stroke-linejoin="round"/>
<path d="M183.436 290.584C185.519 285.564 185.743 279.966 184.068 274.797" stroke="#171717" stroke-width="3.624" stroke-linecap="round" stroke-linejoin="round"/>
<path d="M83.1455 283.769C83.7015 279.511 85.3742 275.476 87.9945 272.075" stroke="#171717" stroke-width="3.624" stroke-linecap="round" stroke-linejoin="round"/>
<path d="M99.9929 221.579C100.887 220.217 102.051 219.053 103.413 218.159" stroke="#171717" stroke-width="3.624" stroke-linecap="round" stroke-linejoin="round"/>
<path d="M102.684 222.485L99.7307 217.198" stroke="#171717" stroke-width="3.624" stroke-linecap="round" stroke-linejoin="round"/>
<path d="M88.7676 230.593C88.858 228.52 88.948 226.447 89.0385 224.374" stroke="#171717" stroke-width="3.624" stroke-linecap="round" stroke-linejoin="round"/>
<path d="M85.2231 227.918L92.0667 227.344" stroke="#171717" stroke-width="3.624" stroke-linecap="round" stroke-linejoin="round"/>
<path d="M56.3875 278.592C54.7341 274.991 53.8314 271.091 53.7347 267.129C53.6381 263.168 54.3498 259.228 55.826 255.55" stroke="#171717" stroke-width="3.624" stroke-linecap="round" stroke-linejoin="round"/>
<path d="M310.844 222.88C318.645 215.967 324.427 207.068 327.574 197.13" stroke="#171717" stroke-width="3.624" stroke-linecap="round" stroke-linejoin="round"/>
<path d="M31.5083 136.817C26.0857 129.162 22.9655 120.115 22.5159 110.745" stroke="#171717" stroke-width="3.624" stroke-linecap="round" stroke-linejoin="round"/>
<path d="M220.258 48.9884C216.253 52.8118 213.746 57.94 213.188 63.4485C212.811 67.3222 213.818 71.8518 217.27 73.651C220.438 75.3026 224.879 73.5471 226.061 70.1758C226.493 68.9468 226.453 67.405 225.476 66.5438C224.272 65.4833 222.342 66.0072 221.045 66.9522C219.666 67.9909 218.616 69.4047 218.019 71.0242C217.422 72.644 217.304 74.4013 217.679 76.0861C218.336 78.8295 220.252 81.0703 222.103 83.1991C223.954 85.3279 225.863 87.5777 226.5 90.3256C227.138 93.0735 226.031 96.4473 223.374 97.3956" stroke="#171717" stroke-width="3.624" stroke-linecap="round" stroke-linejoin="round"/>
<path d="M51.7483 172.565C57.0326 173.771 61.0886 179.023 60.9198 184.44C60.751 189.858 56.3752 194.846 51.0264 195.72C48.8696 196.073 46.444 195.729 44.9149 194.167C43.3859 192.606 43.2951 189.637 45.1198 188.433C47.1564 187.091 49.9688 188.661 51.2605 190.73C53.5362 194.368 53.078 199.158 51.4001 203.107C49.7223 207.056 46.9799 210.438 44.6758 214.057C42.3716 217.677 40.4422 221.794 40.7153 226.076" stroke="#171717" stroke-width="3.624" stroke-linecap="round" stroke-linejoin="round"/>
<path d="M225.24 289.572C229.715 281.168 236.922 274.541 245.672 270.787C248.129 269.742 251.437 269.135 253.084 271.236C254.074 272.499 254.009 274.345 253.343 275.805C252.678 277.266 251.511 278.428 250.369 279.556C249.332 280.58 248.237 281.64 246.845 282.072C245.452 282.503 243.676 282.079 243.06 280.759C242.24 279.004 243.821 277.106 245.331 275.893C251.895 270.636 259.714 267.176 268.019 265.852" stroke="#171717" stroke-width="3.624" stroke-linecap="round" stroke-linejoin="round"/>
<path d="M205.538 49.1937C205.227 47.638 204.917 46.0834 204.606 44.5303" stroke="#171717" stroke-width="3.624" stroke-linecap="round" stroke-linejoin="round"/>
<path d="M201.795 47.9092L208.631 45.7217" stroke="#171717" stroke-width="3.624" stroke-linecap="round" stroke-linejoin="round"/>
<path d="M37.078 185.35C36.4772 183.197 35.8762 181.044 35.2751 178.891" stroke="#171717" stroke-width="3.624" stroke-linecap="round" stroke-linejoin="round"/>
<path d="M32.4685 184.282L38.6458 180.79" stroke="#171717" stroke-width="3.624" stroke-linecap="round" stroke-linejoin="round"/>
<path d="M262.447 285.171C263.963 283.491 265.024 281.451 265.529 279.246" stroke="#171717" stroke-width="3.624" stroke-linecap="round" stroke-linejoin="round"/>
<path d="M261.197 282.018L267.4 284.235" stroke="#171717" stroke-width="3.624" stroke-linecap="round" stroke-linejoin="round"/>
<path d="M245.642 259.663C245.713 257.603 246.244 255.584 247.197 253.757" stroke="#171717" stroke-width="3.624" stroke-linecap="round" stroke-linejoin="round"/>
<path d="M242.532 256.955L248.748 257.054" stroke="#171717" stroke-width="3.624" stroke-linecap="round" stroke-linejoin="round"/>
<g opacity="0.1">
<path d="M116.761 62.4655C114.874 62.1621 112.963 62.028 111.052 62.0644C109.384 62.1403 107.727 62.3127 106.057 62.3331C102.692 62.374 99.156 62.437 95.8255 62.9026C93.2046 63.2694 90.5828 64.7058 89.0767 66.9305C87.5262 69.2205 87.512 72.3807 87.5721 75.0483C87.8944 89.3116 89.1001 103.579 89.966 117.819C90.2518 122.517 97.6022 122.55 97.3145 117.819C96.5292 104.904 96.0709 91.9183 94.8762 79.0354C94.6461 76.5526 94.0657 73.7854 94.4022 71.2899C94.4904 70.6311 94.6454 69.5329 95.0395 69.0145C95.6228 68.2489 97.4436 67.9674 98.3237 67.741C104.522 66.146 110.897 65.571 116.849 63.1024C116.921 63.0776 116.982 63.0291 117.022 62.9642C117.062 62.8997 117.078 62.8231 117.068 62.7477C117.057 62.6726 117.021 62.6029 116.966 62.5515C116.91 62.4998 116.838 62.4688 116.762 62.4644L116.761 62.4655Z" fill="#171717"/>
</g>
<g opacity="0.1">
<path d="M83.6282 123.305C82.9749 125.249 82.8261 127.291 82.6508 129.324C82.5582 130.398 82.5184 131.489 82.3726 132.557C82.3697 132.846 82.319 133.132 82.2227 133.404C82.3208 133.224 82.6012 133.101 82.2523 133.245C80.7976 133.845 78.9295 133.873 77.3905 134.234C75.6267 134.649 73.8767 135.139 72.1599 135.718C68.8228 136.842 65.6007 138.281 62.5378 140.017C59.4483 141.774 56.8022 144.032 53.8822 146.022C52.0305 147.284 51.3845 149.676 52.8275 151.547C54.0999 153.195 56.9575 153.667 58.4384 151.927C60.8111 149.14 64.1926 147.042 67.3532 145.261C70.606 143.409 74.0688 141.954 77.668 140.926C81.0725 139.969 85.7982 140.097 87.8034 136.665C88.9114 134.769 88.7083 132.512 88.7079 130.402C88.7079 128.011 88.7623 125.643 88.1932 123.305C87.6124 120.92 84.3377 121.194 83.6282 123.305Z" fill="#171717"/>
</g>
<g opacity="0.1">
<path d="M129.384 241.841C129.404 243.846 128.204 244.734 127.003 246.116C125.92 247.338 124.973 248.674 124.177 250.099C122.212 253.697 122.91 257.971 123.059 261.922C123.379 270.47 124.134 279.002 124.752 287.533L127.425 284.023C118.914 285.734 110.911 289.381 104.036 294.681C100.604 297.272 97.4724 300.239 94.7001 303.527C93.2156 305.305 91.8356 307.167 90.5669 309.105C89.3455 310.985 87.8978 313.079 87.4963 315.314C87.2069 316.924 87.6881 318.558 89.1691 319.424C90.4969 320.201 92.528 320.06 93.5805 318.855C94.9995 317.231 95.8231 315.289 96.9248 313.451C97.868 311.859 98.9049 310.325 100.03 308.857C102.474 305.699 105.298 302.854 108.437 300.386C114.553 295.625 121.733 292.419 129.36 291.044C130.821 290.775 132.142 289.014 132.032 287.533C131.399 278.994 130.902 270.434 129.972 261.922C129.757 259.95 129.542 257.977 129.314 256.006C129.117 254.31 128.585 252.189 128.94 250.526C129.252 249.058 130.235 247.661 130.799 246.266C131.394 244.794 131.927 243.459 131.777 241.842C131.637 240.337 129.371 240.274 129.384 241.842V241.841Z" fill="#171717"/>
</g>
<g opacity="0.1">
<path d="M241.018 148.404C240.119 150.824 240.384 153.841 240.156 156.403C239.908 159.203 239.646 162.008 239.444 164.812C239.147 168.932 239.945 173.848 241.896 177.528C242.898 179.418 244.435 181.252 246.319 182.306C248.153 183.332 250.198 183.938 252.028 184.995C256.85 187.781 255.042 193.957 252.676 197.897C250.897 200.86 256.137 203.101 257.018 199.728C258.294 194.843 260.379 189.957 257.69 185.085C256.675 183.247 255.101 181.764 253.45 180.51C251.732 179.244 250.13 177.827 248.664 176.276C247.247 174.747 246.039 173.086 245.441 171.078C244.875 169.029 244.505 166.931 244.337 164.812C244.058 162.005 244.322 159.212 244.375 156.403C244.426 153.754 244.676 150.431 243.204 148.118C243.081 147.921 242.904 147.764 242.694 147.665C242.484 147.566 242.249 147.529 242.019 147.559C241.789 147.59 241.572 147.685 241.394 147.835C241.216 147.985 241.085 148.182 241.017 148.404L241.018 148.404Z" fill="#171717"/>
</g>
<g opacity="0.1">
<path d="M246.09 201.913C243.435 200.781 241.076 204.122 240.253 206.2C239.565 207.934 239.025 209.59 236.89 209.539C234.851 209.491 232.852 208.591 230.854 208.243C227.156 207.598 222.515 208.747 220.734 212.373C218.802 216.31 220.178 220.34 219.433 224.443C218.625 228.903 224.756 230.67 226.256 226.324C227.459 222.835 226.001 219.253 226.685 215.741C226.834 215.083 227.071 214.449 227.391 213.855C227.636 213.371 227.652 213.621 227.516 213.695C227.877 213.525 228.262 213.414 228.657 213.367C230.393 213.077 232.071 213.571 233.762 213.884C236.976 214.477 240.435 214.235 242.273 211.123C243.043 209.818 243.334 208.324 243.689 206.873C243.834 206.089 244.033 205.316 244.284 204.559C244.682 203.561 245.258 203.189 246.088 202.623C246.312 202.471 246.396 202.046 246.088 201.915L246.09 201.913Z" fill="#171717"/>
</g>
<defs>
<linearGradient id="paint0_linear_82_235" x1="257.931" y1="201.07" x2="257.931" y2="238.318" gradientUnits="userSpaceOnUse">
<stop stop-color="#42E670"/>
<stop offset="1" stop-color="#07AA50"/>
</linearGradient>
<linearGradient id="paint1_linear_82_235" x1="112.654" y1="129.544" x2="112.654" y2="174.17" gradientUnits="userSpaceOnUse">
<stop stop-color="#42E670"/>
<stop offset="1" stop-color="#07AA50"/>
</linearGradient>
<linearGradient id="paint2_linear_82_235" x1="285.298" y1="204.641" x2="285.298" y2="209.994" gradientUnits="userSpaceOnUse">
<stop stop-color="#42E670"/>
<stop offset="1" stop-color="#07AA50"/>
</linearGradient>
<linearGradient id="paint3_linear_82_235" x1="237.169" y1="203.827" x2="237.169" y2="209.103" gradientUnits="userSpaceOnUse">
<stop stop-color="#42E670"/>
<stop offset="1" stop-color="#07AA50"/>
</linearGradient>
<linearGradient id="paint4_linear_82_235" x1="106.032" y1="120.36" x2="106.032" y2="134.077" gradientUnits="userSpaceOnUse">
<stop stop-color="#42E670"/>
<stop offset="1" stop-color="#07AA50"/>
</linearGradient>
<linearGradient id="paint5_linear_82_235" x1="134.637" y1="284.14" x2="134.637" y2="335.518" gradientUnits="userSpaceOnUse">
<stop stop-color="#42E670"/>
<stop offset="1" stop-color="#07AA50"/>
</linearGradient>
</defs>
</svg>
