<svg width="350" height="350" viewBox="0 0 350 350" fill="none" xmlns="http://www.w3.org/2000/svg">
<path fill-rule="evenodd" clip-rule="evenodd" d="M178.488 53.1682C178.488 53.1682 175.427 46.4643 172.403 42.9304C169.383 39.3925 167.39 38.9408 163.404 38.4927C159.419 38.0446 142.314 44.2819 138.906 49.2953C135.499 54.3087 143.558 64.984 143.558 64.984L143.598 65.0712C150.418 62.1239 157.386 59.5335 164.475 57.311C169.947 55.5694 174.593 54.192 178.488 53.1682ZM165.177 40.8723C164.897 40.7604 164.578 40.8967 164.466 41.1771C164.354 41.4575 164.491 41.7758 164.771 41.888C165.926 42.35 167.783 43.3905 169.526 44.9914C171.267 46.5904 172.865 48.7225 173.56 51.3632C173.636 51.6552 173.936 51.8295 174.228 51.7529C174.52 51.676 174.694 51.3767 174.618 51.0847C173.854 48.1837 172.11 45.8799 170.266 44.1856C168.423 42.4933 166.452 41.3827 165.177 40.8723Z" fill="url(#paint0_linear_27_382)"/>
<path fill-rule="evenodd" clip-rule="evenodd" d="M128.755 145.441L163.36 137.808L166.959 139.353L168.147 149.117L168.267 149.103C168.267 149.103 170.387 149.679 173.473 147.944C174.685 147.264 175.203 146.335 175.697 145.449C176.461 144.08 177.167 142.816 180.291 142.738C182.866 142.674 184.618 144.171 186.275 145.586C187.928 146.998 189.486 148.328 191.669 147.944C196.042 147.175 197.182 144.195 197.182 144.195L197.204 144.192C196.941 142.851 196.792 142.093 196.792 142.093C196.792 142.093 266.232 137.466 258.519 54.4781C255.064 53.5557 251.523 52.9906 247.953 52.7912C242.209 52.4565 236.453 53.1751 230.968 54.9109C228.926 55.5343 226.954 56.367 225.083 57.3955C227.787 115.373 179.504 114.197 178.134 114.149C178.174 112.167 178.178 107.945 177.548 106.582C176.95 105.289 172.636 104.961 167.517 104.924C165.506 104.909 163.367 104.939 161.28 104.975C157.946 105.034 154.117 105.198 150.783 105.449C146.717 105.752 143.383 106.182 142.571 106.713C141.503 107.406 141.977 110.975 142.323 112.907L142.101 112.947C113.186 115.248 102.01 133.465 98.3905 152.144C94.7363 171.004 98.7988 190.34 100.092 194.217C102.198 200.537 106.49 198.806 107.976 197.972C108.155 197.875 108.328 197.767 108.494 197.648L126.696 191.644C126.696 191.644 132.872 190.357 130.784 183.074C129.673 179.194 128.831 175.583 128.219 172.22C127.693 169.376 127.314 166.506 127.082 163.622C126.492 156.054 127.203 150.068 128.518 145.376L128.755 145.441ZM254.847 58.0303C257.08 77.7003 249.953 121.23 203.616 138.028L203.988 139.056C250.985 122.019 258.198 77.8552 255.934 57.907L254.847 58.0303Z" fill="#171717"/>
<path d="M318.65 311.573C318.65 311.573 320.155 316.506 316.297 323.964C312.438 331.423 290.454 334.621 290.454 334.621V334.625C284.325 333.458 279.053 329.888 276.693 322.806C275.552 319.384 273.508 315.307 270.859 310.855L271.206 310.651C271.206 310.651 280.43 311.591 283.192 299.499C286.391 306.283 288.439 310.95 289.036 311.749C291.35 314.834 309.869 310.207 309.869 310.207C309.869 310.207 315.214 308.871 318.65 311.573Z" fill="url(#paint1_linear_27_382)"/>
<path d="M201.141 165.287L200.82 165.305C200.82 165.305 199.643 168.285 195.118 169.054C190.593 169.823 188.665 163.72 183.346 163.848C178.027 163.975 179.488 167.32 176.292 169.054C173.097 170.789 170.904 170.213 170.904 170.213L170.722 170.235L169.439 159.702L169.698 159.669C169.698 159.669 171.855 160.245 174.988 158.51C178.121 156.776 176.686 153.431 181.911 153.3C187.136 153.169 189.03 159.282 193.471 158.51C197.913 157.738 199.068 154.761 199.068 154.761L199.213 154.736C199.812 157.937 200.472 161.538 201.141 165.287Z" fill="#171717"/>
<path d="M144.331 75.4257C143.146 75.7972 129.684 79.9396 128.212 76.1687C127.239 73.684 133.546 69.5012 143.597 65.0708C150.417 62.1238 157.386 59.5342 164.475 57.3121C169.947 55.5705 174.593 54.1931 178.488 53.1693C189.542 50.2618 194.552 50.1637 195.251 52.4733C196.195 55.596 186.933 59.0424 186.933 59.0424L186.904 59.2393C184.993 59.022 183.065 58.9866 181.147 59.1335C181.147 59.1335 144.115 64.8137 145.358 68.756C145.806 70.184 145.438 72.7237 144.848 75.4278L144.331 75.4257Z" fill="url(#paint2_linear_27_382)"/>
<path d="M151.169 68.7968L150.976 87.0212L150.801 87.0176C150.801 87.0176 147.672 91.6445 145.744 89.8449C143.904 88.1288 146.389 84.3867 146.626 84.0408C146.407 84.3288 144.338 86.9665 143 86.0737C142.097 85.4725 143.81 80.197 144.848 75.4278C145.438 72.7245 145.806 70.1848 145.358 68.756C144.116 64.8137 181.148 59.1335 181.148 59.1335C183.066 58.9866 184.993 59.022 186.904 59.2392C188.326 59.4434 189.531 59.8514 189.83 60.613C190.664 62.7334 182.754 63.7608 182.754 63.7608C182.754 63.7608 190.151 70.643 184.365 72.8291C179.22 74.7712 178.951 66.8135 178.958 65.0179V65.0142C178.958 64.7919 178.962 64.6642 178.962 64.6642C178.962 64.6642 164.56 61.7676 151.403 68.7997L151.169 68.7968Z" fill="#171717"/>
<path d="M168.268 149.103C168.268 149.103 170.388 149.683 173.474 147.945C176.56 146.207 175.147 142.866 180.292 142.738C185.437 142.611 187.298 148.717 191.67 147.945C196.042 147.172 197.183 144.196 197.183 144.196L197.205 144.192C197.631 146.389 198.36 150.152 199.212 154.736L199.066 154.762C199.066 154.762 197.911 157.738 193.47 158.511C189.028 159.283 187.134 153.173 181.909 153.3C176.685 153.428 178.124 156.773 174.987 158.511C171.849 160.249 169.696 159.669 169.696 159.669L169.438 159.702L168.148 149.118L168.268 149.103Z" fill="url(#paint3_linear_27_382)"/>
<path d="M132.635 216.648C147.144 214.164 190.278 205.853 202.404 202.519C201.615 222.372 189.167 231.55 173.474 236.651C156.073 242.309 141.026 243.595 130.096 238.709C127.848 237.704 124.966 236.527 121.657 235.394C127.538 225.805 132.635 216.652 132.635 216.652L132.635 216.648Z" fill="url(#paint4_linear_27_382)"/>
<path d="M130.096 238.71C141.026 243.595 156.073 242.31 173.474 236.651C189.167 231.55 201.616 222.373 202.403 202.52C202.782 202.414 203.132 202.316 203.449 202.221C203.449 202.221 232.971 221.823 235.372 224.908C235.872 225.553 235.314 227.583 234.083 230.403C231.853 235.515 227.422 243.217 223.087 249.957C218.343 257.339 213.712 263.573 212.226 263.999C208.622 265.03 174.163 242.911 174.163 242.911C174.163 242.911 159.589 273.774 156.329 279.604C154.518 282.843 137.297 277.239 123.618 270.444C118.75 268.021 114.331 265.453 111.216 263.07C107.336 260.115 105.477 257.459 107.295 255.768C110.742 252.562 116.499 243.81 121.658 235.394C124.966 236.527 127.848 237.704 130.096 238.71Z" fill="url(#paint5_linear_27_382)"/>
<path d="M51.917 315.094C42.1415 319.721 34.0421 315.866 32.8835 307.249C31.7248 298.633 52.0191 274.207 52.0191 274.207C54.2376 274.651 57.8776 275.358 61.5172 276C63.2465 276.288 64.9961 276.435 66.7494 276.44V276.444C62.8873 282.97 67.4596 289.678 68.5745 291.142C64.2243 291.433 61.5172 291.433 61.5172 291.433C55.0014 296.06 54.8301 307.89 51.917 315.094Z" fill="url(#paint6_linear_27_382)"/>
<path d="M142.101 112.948C113.186 115.249 102.01 133.466 98.3905 152.141C94.7363 171.003 98.7988 190.339 100.092 194.214C102.198 200.535 106.49 198.805 107.976 197.969C108.155 197.872 108.328 197.763 108.494 197.645L126.696 191.641C126.696 191.641 132.872 190.354 130.784 183.071C129.673 179.191 128.831 175.58 128.219 172.217C127.693 169.373 127.314 166.503 127.082 163.619C126.492 156.051 127.203 150.065 128.518 145.373C131.834 133.539 139.015 129.917 139.015 129.917" stroke="#171717" stroke-width="3" stroke-linecap="round" stroke-linejoin="round"/>
<path d="M178.106 114.148H178.135C179.504 114.196 227.787 115.372 225.084 57.3945C226.954 56.3657 228.926 55.5333 230.968 54.9099C236.453 53.1745 242.21 52.4566 247.954 52.7917C251.524 52.9907 255.064 53.5562 258.519 54.4786" stroke="#171717" stroke-width="3" stroke-linecap="round" stroke-linejoin="round"/>
<path d="M127.87 210.335C127.87 210.335 125.982 217.192 127.87 217.363C128.139 217.389 129.866 217.126 132.635 216.649C147.144 214.164 190.278 205.854 202.404 202.52C202.782 202.414 203.133 202.316 203.449 202.221C204.593 201.882 205.318 201.609 205.537 201.419C206.99 200.158 204.01 181.38 201.139 165.289C200.472 161.54 199.813 157.94 199.212 154.737C198.359 150.154 197.63 146.39 197.204 144.193C196.942 142.852 196.793 142.095 196.793 142.095C196.793 142.095 266.233 137.466 258.519 54.4803" stroke="#171717" stroke-width="3" stroke-linecap="round" stroke-linejoin="round"/>
<path d="M132.635 216.652C132.635 216.652 127.538 225.804 121.658 235.394C116.499 243.811 110.742 252.562 107.295 255.768C105.477 257.459 107.336 260.115 111.216 263.07C114.331 265.453 118.75 268.021 123.618 270.444C137.296 277.239 154.518 282.843 156.329 279.604C159.589 273.774 174.161 242.911 174.161 242.911C174.161 242.911 208.621 265.03 212.224 263.999C213.71 263.573 218.341 257.339 223.085 249.957C227.421 243.217 231.851 235.515 234.081 230.403C235.312 227.583 235.87 225.554 235.371 224.908C232.969 221.823 203.447 202.221 203.447 202.221" stroke="#171717" stroke-width="3" stroke-linecap="round" stroke-linejoin="round"/>
<path d="M142.571 114.155C142.571 114.155 142.458 113.653 142.323 112.906C141.977 110.974 141.503 107.404 142.571 106.712C143.383 106.18 146.717 105.75 150.783 105.448C154.117 105.196 157.946 105.032 161.28 104.974C163.367 104.937 165.506 104.908 167.517 104.923C172.636 104.959 176.95 105.287 177.548 106.58C178.178 107.943 178.174 112.166 178.134 114.148C178.123 114.789 178.105 115.197 178.105 115.197" stroke="#171717" stroke-width="3" stroke-linecap="round" stroke-linejoin="round"/>
<path d="M150.783 105.444L150.976 87.0197L151.169 68.7953L151.187 67.1047" stroke="#171717" stroke-width="3" stroke-linecap="round" stroke-linejoin="round"/>
<path d="M178.958 65.013C178.96 65.0036 178.961 64.9938 178.961 64.984" stroke="#171717" stroke-width="3" stroke-linecap="round" stroke-linejoin="round"/>
<path d="M167.517 104.919C167.517 104.919 165.976 98.2884 167.903 96.7436C169.831 95.1989 174.334 95.3301 176.003 90.5716C177.635 85.9264 178.899 65.9531 178.958 65.0168" stroke="#171717" stroke-width="3" stroke-linecap="round" stroke-linejoin="round"/>
<path d="M146.644 84.013C146.637 84.0211 146.631 84.0294 146.626 84.0386C146.407 84.3266 144.338 86.9643 143 86.0715C142.097 85.4703 143.81 80.1948 144.848 75.4256C145.438 72.7223 145.806 70.1826 145.358 68.7538C144.116 64.8115 181.148 59.1313 181.148 59.1313C183.066 58.9844 184.993 59.0198 186.904 59.2371C188.326 59.4412 189.531 59.8492 189.83 60.6108C190.664 62.7312 182.754 63.7586 182.754 63.7586C182.754 63.7586 190.151 70.6409 184.365 72.8269C179.22 74.769 178.951 66.8113 178.958 65.0157V65.0121C178.958 64.7897 178.962 64.662 178.962 64.662C178.962 64.662 164.56 61.7654 151.403 68.7975" stroke="#171717" stroke-width="3" stroke-linecap="round" stroke-linejoin="round"/>
<path d="M150.802 87.0161C150.802 87.0161 147.672 91.6431 145.744 89.8435C143.905 88.1274 146.389 84.3853 146.626 84.0393" stroke="#171717" stroke-width="3" stroke-linecap="round" stroke-linejoin="round"/>
<path d="M144.414 75.4001C144.414 75.4001 144.385 75.4111 144.331 75.4257C143.146 75.7972 129.684 79.9396 128.212 76.1687C127.239 73.684 133.546 69.5012 143.597 65.0708C150.417 62.1238 157.386 59.5342 164.475 57.3121C169.947 55.5705 174.593 54.1931 178.488 53.1693C189.542 50.2618 194.552 50.1637 195.251 52.4733C196.195 55.596 186.933 59.0424 186.933 59.0424" stroke="#171717" stroke-width="3" stroke-linecap="round" stroke-linejoin="round"/>
<path d="M143.558 64.984C143.558 64.984 135.499 54.3087 138.906 49.2953C142.314 44.2819 159.419 38.0446 163.404 38.4927C167.39 38.9408 169.384 39.3925 172.404 42.9304C175.424 46.4683 178.488 53.1682 178.488 53.1682" stroke="#171717" stroke-width="3" stroke-linecap="round" stroke-linejoin="round"/>
<path d="M241.799 44.1944C241.799 44.1897 241.797 44.1846 241.796 44.1798C241.694 43.528 238.52 23.0374 242.313 22.1628C246.171 21.2739 247.971 52.4723 247.971 52.4723" stroke="#171717" stroke-width="3" stroke-linecap="round" stroke-linejoin="round"/>
<path d="M236.742 45.2221C236.742 45.2159 236.741 45.2097 236.739 45.2039C236.593 44.5043 232.33 23.9486 234.77 23.1065C237.218 22.261 241.66 43.5279 241.794 44.1794" stroke="#171717" stroke-width="3" stroke-linecap="round" stroke-linejoin="round"/>
<path d="M231.769 48.2241L231.766 48.2205C231.656 47.849 225.71 27.8099 228.6 26.5346C231.463 25.2706 236.561 44.5262 236.739 45.2039" stroke="#171717" stroke-width="3" stroke-linecap="round" stroke-linejoin="round"/>
<path d="M231.011 54.9503C231.011 54.9503 230.997 54.9358 230.968 54.9102C230.25 54.2762 220.7 45.7508 222.599 43.8524C224.544 41.907 231.576 48.0532 231.765 48.2209" stroke="#171717" stroke-width="3" stroke-linecap="round" stroke-linejoin="round"/>
<path d="M107.976 197.972C108.527 199.643 109.264 201.247 110.173 202.753C110.786 203.789 111.495 204.764 112.294 205.664C114.943 208.622 118.918 210.856 124.503 208.812" stroke="#171717" stroke-width="3" stroke-linecap="round" stroke-linejoin="round"/>
<path d="M120.197 205.663C121.41 206.98 122.889 208.026 124.536 208.731C125.611 209.195 126.756 209.476 127.924 209.562C129.873 209.7 132.117 209.278 134.551 207.802" stroke="#171717" stroke-width="3" stroke-linecap="round" stroke-linejoin="round"/>
<path d="M127.032 204.184C127.032 204.184 130.562 206.819 134.552 207.802H134.556C137.161 208.447 139.962 208.386 142.103 206.433C145.4 203.419 143.174 198.832 143.174 198.832" stroke="#171717" stroke-width="3" stroke-linecap="round" stroke-linejoin="round"/>
<path d="M126.696 191.644C126.696 191.644 131.688 194.351 135.714 197.171C136.773 197.899 137.79 198.686 138.76 199.528C140.235 200.841 141.07 202.002 140.556 202.705C137.729 206.564 127.556 197.972 127.556 197.972" stroke="#171717" stroke-width="3" stroke-linecap="round" stroke-linejoin="round"/>
<path d="M98.3908 152.142L81.4053 155.891L79.5619 209.409L82.5201 211.577L112.291 205.664" stroke="#171717" stroke-width="3" stroke-linecap="round" stroke-linejoin="round"/>
<path d="M139.098 199.426L143.139 198.653L173.474 192.846L172.213 182.498L171.401 175.835L170.72 170.235L169.437 159.702L168.148 149.117L166.96 139.353L163.36 137.808L128.755 145.441" stroke="#171717" stroke-width="3" stroke-linecap="round" stroke-linejoin="round"/>
<path d="M135.714 197.171L169.831 190.361L163.36 137.808" stroke="#171717" stroke-width="3" stroke-linecap="round" stroke-linejoin="round"/>
<path d="M110.174 202.753L79.5619 209.409" stroke="#171717" stroke-width="3" stroke-linecap="round" stroke-linejoin="round"/>
<path d="M145.763 113.427H174.633" stroke="#171717" stroke-width="3" stroke-linecap="round" stroke-linejoin="round"/>
<path d="M111.212 263.073C111.212 263.073 108.53 270.17 92.5677 273.255C80.7045 275.55 72.547 276.52 66.7468 276.439C64.9939 276.434 63.2439 276.287 61.5147 275.999C57.875 275.357 54.235 274.65 52.0166 274.206C50.6793 273.94 49.8557 273.773 49.8557 273.773C49.8557 273.773 26.1943 299.316 29.111 310.462C32.0276 321.607 49.0004 322.292 51.9152 315.092C54.83 307.892 55.001 296.058 61.5154 291.43C61.5154 291.43 64.2224 291.43 68.5727 291.139C75.1672 290.698 85.544 289.59 95.9787 286.8C113.161 282.209 123.461 270.62 123.618 270.441L123.621 270.438" stroke="#171717" stroke-width="3" stroke-linecap="round" stroke-linejoin="round"/>
<path d="M68.8023 291.437C68.8023 291.437 68.7148 291.335 68.5726 291.142C67.4577 289.677 62.8851 282.97 66.7475 276.444" stroke="#171717" stroke-width="3" stroke-linecap="round" stroke-linejoin="round"/>
<path d="M283.193 299.496C274.008 280.022 255.317 243.125 234.083 230.402" stroke="#171717" stroke-width="3" stroke-linecap="round" stroke-linejoin="round"/>
<path d="M223.089 249.958C223.089 249.958 256.207 286.181 270.861 310.858C273.51 315.31 275.554 319.387 276.694 322.809C279.055 329.891 284.327 333.462 290.456 334.628C303.69 337.149 320.914 328.474 321.443 319.806C321.705 315.471 320.437 312.978 318.652 311.576C315.216 308.872 309.871 310.21 309.871 310.21C309.871 310.21 291.35 314.837 289.038 311.751C288.44 310.953 286.393 306.286 283.194 299.501" stroke="#171717" stroke-width="3" stroke-linecap="round" stroke-linejoin="round"/>
<path d="M271.206 310.653C271.206 310.653 280.429 311.593 283.192 299.5V299.497" stroke="#171717" stroke-width="3" stroke-linecap="round" stroke-linejoin="round"/>
<path d="M162.373 83.6273C162.373 83.6273 165.524 84.6073 165.652 83.3137C165.779 82.0202 164.303 68.263 164.303 68.263C164.303 68.263 170.861 66.0755 174.268 67.4905" stroke="#171717" stroke-width="3" stroke-linecap="round" stroke-linejoin="round"/>
<path d="M168.323 72.7631C168.801 72.4682 169.351 72.3121 169.913 72.3121C170.475 72.3121 171.025 72.4682 171.504 72.7631" stroke="#171717" stroke-width="3" stroke-linecap="round" stroke-linejoin="round"/>
<path d="M156.073 72.3074C156.073 72.3074 158.325 70.5115 160.187 71.9906" stroke="#171717" stroke-width="3" stroke-linecap="round" stroke-linejoin="round"/>
<path d="M154.08 89.5442C154.08 89.5442 156.268 92.5028 159.287 91.7959" stroke="#171717" stroke-width="3" stroke-linecap="round" stroke-linejoin="round"/>
<path d="M96.678 70.748C96.6784 72.9392 96.0291 75.0811 94.8121 76.9033C93.5948 78.7251 91.8648 80.1455 89.8403 80.9841C87.8161 81.8226 85.5885 82.0425 83.4393 81.6148C81.2904 81.1875 79.3162 80.1324 77.7671 78.5829C76.2176 77.0335 75.1625 75.0592 74.7352 72.9104C74.3079 70.7612 74.5274 68.5336 75.3659 66.5094C76.2049 64.4852 77.6249 62.7549 79.4471 61.5379C81.2693 60.321 83.4112 59.6716 85.6024 59.672C87.057 59.672 88.4971 59.9586 89.841 60.5149C91.1849 61.0716 92.4058 61.8876 93.4343 62.9161C94.4628 63.9446 95.2784 65.1655 95.8351 66.5094C96.3918 67.8532 96.678 69.2934 96.678 70.748Z" stroke="#171717" stroke-width="3" stroke-linecap="round" stroke-linejoin="round"/>
<path d="M88.6481 55.3684L91.2239 45.0945" stroke="#171717" stroke-width="3" stroke-linecap="round" stroke-linejoin="round"/>
<path d="M80.4176 84.7021L77.0766 96.915" stroke="#171717" stroke-width="3" stroke-linecap="round" stroke-linejoin="round"/>
<path d="M71.6734 76.4056L66.5288 79.1418" stroke="#171717" stroke-width="3" stroke-linecap="round" stroke-linejoin="round"/>
<path d="M71.6738 66.1828L49.5582 61.297" stroke="#171717" stroke-width="3" stroke-linecap="round" stroke-linejoin="round"/>
<path d="M77.0766 58.5933L73.2182 54.4946" stroke="#171717" stroke-width="3" stroke-linecap="round" stroke-linejoin="round"/>
<path d="M98.4196 61.2969L102.948 59.672" stroke="#171717" stroke-width="3" stroke-linecap="round" stroke-linejoin="round"/>
<path d="M100.686 75.9507L110.25 78.2931" stroke="#171717" stroke-width="3" stroke-linecap="round" stroke-linejoin="round"/>
<path d="M92.2841 84.7021L94.8201 88.5933" stroke="#171717" stroke-width="3" stroke-linecap="round" stroke-linejoin="round"/>
<path d="M175.489 177.821C175.489 177.821 200.181 170.942 202.235 195.633C202.433 197.923 202.49 200.223 202.403 202.52C201.615 222.373 189.167 231.55 173.474 236.651C156.073 242.31 141.026 243.596 130.096 238.71C127.848 237.704 124.966 236.527 121.657 235.394C108.88 231.026 89.7447 227.361 76.2424 237.169" stroke="#171717" stroke-width="3" stroke-linecap="round" stroke-linejoin="round"/>
<path d="M75.3313 236.567C75.7407 236.873 76.0987 237.242 76.3915 237.661C78.3993 240.517 77.0292 245.098 73.3604 248.886C72.4748 249.799 71.505 250.626 70.4637 251.356C64.7106 255.403 58.0435 255.831 55.5694 252.315C53.0954 248.799 55.7481 242.663 61.4972 238.619C61.8326 238.382 62.1713 238.16 62.51 237.953C67.3123 234.968 72.5331 234.447 75.3313 236.567Z" stroke="#171717" stroke-width="3" stroke-linecap="round" stroke-linejoin="round"/>
<path d="M168.268 149.103C168.268 149.103 170.388 149.683 173.474 147.945C176.56 146.207 175.147 142.866 180.292 142.738C185.437 142.611 187.298 148.717 191.67 147.945C196.042 147.172 197.183 144.196 197.183 144.196" stroke="#171717" stroke-width="3" stroke-linecap="round" stroke-linejoin="round"/>
<path d="M169.696 159.669C169.696 159.669 171.853 160.245 174.986 158.51C178.119 156.776 176.684 153.431 181.909 153.3C187.134 153.169 189.028 159.282 193.469 158.51C197.911 157.738 199.066 154.761 199.066 154.761" stroke="#171717" stroke-width="3" stroke-linecap="round" stroke-linejoin="round"/>
<path d="M170.902 170.213C170.902 170.213 173.099 170.793 176.291 169.055C179.482 167.317 178.021 163.976 183.344 163.848C188.667 163.72 190.595 169.827 195.116 169.055C199.638 168.282 200.818 165.306 200.818 165.306" stroke="#171717" stroke-width="3" stroke-linecap="round" stroke-linejoin="round"/>
<path d="M170.559 182.772L169.831 176.086L171.401 175.835L173.474 175.507L174.527 181.938L172.213 182.499L171.077 182.772" stroke="#171717" stroke-width="3" stroke-linecap="round" stroke-linejoin="round"/>
<path d="M127.082 163.622C127.082 163.622 130.806 163.805 131.382 167.021C131.95 170.166 128.376 172.133 128.219 172.221H128.216" stroke="#171717" stroke-width="3" stroke-linecap="round" stroke-linejoin="round"/>
<path d="M52.0177 274.207C52.0177 274.207 31.7233 298.634 32.882 307.249C34.0406 315.864 42.14 319.721 51.9156 315.094" stroke="#171717" stroke-width="3" stroke-linecap="round" stroke-linejoin="round"/>
<path d="M290.454 334.623C290.454 334.623 312.442 331.423 316.297 323.965C320.151 316.508 318.65 311.574 318.65 311.574" stroke="#171717" stroke-width="3" stroke-linecap="round" stroke-linejoin="round"/>
<path d="M62.51 237.948V237.952C62.5173 238.101 62.7251 242.317 65.4686 245.468C67.0728 247.315 69.5457 248.798 73.3604 248.886" stroke="#171717" stroke-width="3" stroke-linecap="round" stroke-linejoin="round"/>
<path d="M75.3313 236.568C75.3313 236.568 67.9645 239.453 65.4686 245.468" stroke="#171717" stroke-width="3" stroke-linecap="round" stroke-linejoin="round"/>
<path d="M92.299 295.883C97.5341 295.368 102.503 293.331 106.595 290.026" stroke="#171717" stroke-width="3" stroke-linecap="round" stroke-linejoin="round"/>
<path d="M151.015 266.572L150.158 262.457" stroke="#171717" stroke-width="3" stroke-linecap="round" stroke-linejoin="round"/>
<path d="M124.44 248.912L127.526 247.712" stroke="#171717" stroke-width="3" stroke-linecap="round" stroke-linejoin="round"/>
<path d="M148.091 234.511L147.524 231.091" stroke="#171717" stroke-width="3" stroke-linecap="round" stroke-linejoin="round"/>
<path d="M165.417 219.585L170.05 219.111" stroke="#171717" stroke-width="3" stroke-linecap="round" stroke-linejoin="round"/>
<path d="M139.87 223.536L139.356 220.964" stroke="#171717" stroke-width="3" stroke-linecap="round" stroke-linejoin="round"/>
<path d="M190.4 242.791L194.72 240.987" stroke="#171717" stroke-width="3" stroke-linecap="round" stroke-linejoin="round"/>
<path d="M212.786 248.548C212.129 247.02 212.084 245.299 212.661 243.739" stroke="#171717" stroke-width="3" stroke-linecap="round" stroke-linejoin="round"/>
<path d="M218.91 226.609C220.461 226.399 222.04 226.524 223.54 226.974" stroke="#171717" stroke-width="3" stroke-linecap="round" stroke-linejoin="round"/>
<path d="M204.1 224.42C203.619 223.195 203.641 221.829 204.162 220.62" stroke="#171717" stroke-width="3" stroke-linecap="round" stroke-linejoin="round"/>
<path d="M189.092 212.206L192.433 215.384" stroke="#171717" stroke-width="3" stroke-linecap="round" stroke-linejoin="round"/>
<path d="M48.8334 244.116C47.8096 245.218 47.1789 246.627 47.0389 248.124C46.8989 249.622 47.2577 251.123 48.0594 252.396" stroke="#171717" stroke-width="3" stroke-linecap="round" stroke-linejoin="round"/>
<path d="M86.2017 227.648C87.6601 226.316 89.4203 225.359 91.3307 224.86C93.2411 224.361 95.2441 224.334 97.1673 224.781" stroke="#171717" stroke-width="3" stroke-linecap="round" stroke-linejoin="round"/>
<path d="M167.127 154.44L166.432 148.955" stroke="#171717" stroke-width="3" stroke-linecap="round" stroke-linejoin="round"/>
<path d="M168.504 164.727L168.161 161.298" stroke="#171717" stroke-width="3" stroke-linecap="round" stroke-linejoin="round"/>
<path d="M258.95 41.1005C259.571 34.2725 257.466 27.4761 253.094 22.1947" stroke="#171717" stroke-width="3" stroke-linecap="round" stroke-linejoin="round"/>
<path d="M263.166 32.3636C263.134 31.1473 262.769 29.963 262.111 28.9395" stroke="#171717" stroke-width="3" stroke-linecap="round" stroke-linejoin="round"/>
<path d="M94.7534 143.632C96.1826 137.982 98.6475 132.647 102.023 127.896" stroke="#171717" stroke-width="3" stroke-linecap="round" stroke-linejoin="round"/>
<path d="M209.886 176.889L207.963 164.48C207.8 163.687 207.755 162.873 207.83 162.066" stroke="#171717" stroke-width="3" stroke-linecap="round" stroke-linejoin="round"/>
<path d="M266.892 322.046C263.759 312.668 259.09 303.875 253.077 296.027" stroke="#171717" stroke-width="3" stroke-linecap="round" stroke-linejoin="round"/>
<path d="M301.369 311.999C299.101 315.885 298.18 320.411 298.751 324.874" stroke="#171717" stroke-width="3" stroke-linecap="round" stroke-linejoin="round"/>
<path d="M307.56 310.724C305.614 314.711 304.983 319.212 305.758 323.579" stroke="#171717" stroke-width="3" stroke-linecap="round" stroke-linejoin="round"/>
<path d="M57.33 296.147C55.8593 295.624 54.5322 294.762 53.457 293.629C52.3819 292.498 51.5885 291.128 51.1412 289.633" stroke="#171717" stroke-width="3" stroke-linecap="round" stroke-linejoin="round"/>
<path d="M54.4808 304.182C52.5933 303.676 50.8645 302.7 49.455 301.346C48.0459 299.991 47.0017 298.303 46.4195 296.438" stroke="#171717" stroke-width="3" stroke-linecap="round" stroke-linejoin="round"/>
<path d="M133.724 57.382C132.941 55.8297 132.555 54.1066 132.601 52.3683C132.647 50.6296 133.124 48.9295 133.988 47.4205" stroke="#171717" stroke-width="3" stroke-linecap="round" stroke-linejoin="round"/>
<path d="M183.072 39.1332L185.388 35.0192" stroke="#171717" stroke-width="3" stroke-linecap="round" stroke-linejoin="round"/>
<path d="M186.419 38.3665L182.096 34.9608" stroke="#171717" stroke-width="3" stroke-linecap="round" stroke-linejoin="round"/>
<path d="M165.332 24.4765V20.3618" stroke="#171717" stroke-width="3" stroke-linecap="round" stroke-linejoin="round"/>
<path d="M162.24 22.6455L167.64 21.6129" stroke="#171717" stroke-width="3" stroke-linecap="round" stroke-linejoin="round"/>
<path d="M231.193 137.941C240.951 133.073 248.799 125.08 253.488 115.235" stroke="#171717" stroke-width="3" stroke-linecap="round" stroke-linejoin="round"/>
<path d="M70.9742 143.269L67.3673 139.161" stroke="#171717" stroke-width="3" stroke-linecap="round" stroke-linejoin="round"/>
<path d="M66.842 143.054C68.2248 142.093 69.292 140.744 69.9089 139.177" stroke="#171717" stroke-width="3" stroke-linecap="round" stroke-linejoin="round"/>
<path d="M44.8208 147.839C40.0524 151.42 36.902 157.354 37.4281 163.294C37.9542 169.233 42.5687 174.799 48.4662 175.683C50.5331 175.992 52.7709 175.713 54.456 174.478C56.1411 173.242 57.1014 170.917 56.3642 168.962C55.2785 166.082 50.9224 165.527 48.6401 167.594C46.3579 169.661 46.1059 173.325 47.3517 176.141C48.5975 178.956 51.0398 181.059 53.5861 182.792C56.1323 184.525 58.8725 186.004 61.1527 188.072C63.0375 189.781 64.6596 192.213 64.1787 194.711C63.6504 197.452 60.6382 199.184 57.8481 199.072C55.0579 198.96 52.5219 197.427 50.3577 195.662" stroke="#171717" stroke-width="3" stroke-linecap="round" stroke-linejoin="round"/>
<path d="M43.1834 185.965C42.1728 185.36 41.3477 184.488 40.7994 183.445" stroke="#171717" stroke-width="3" stroke-linecap="round" stroke-linejoin="round"/>
<path d="M40.3251 186.748L42.9705 182.942" stroke="#171717" stroke-width="3" stroke-linecap="round" stroke-linejoin="round"/>
<path d="M62.4582 163.613L65.2874 160.012" stroke="#171717" stroke-width="3" stroke-linecap="round" stroke-linejoin="round"/>
<path d="M64.8415 163.549L62.004 160.471" stroke="#171717" stroke-width="3" stroke-linecap="round" stroke-linejoin="round"/>
<path d="M271.97 133.199C275.955 143.096 275.968 154.149 272.007 164.055C270.487 167.804 267.977 171.661 264.034 172.564C260.363 173.404 256.536 171.318 254.158 168.398C252.052 165.815 250.886 161.829 252.996 159.25C254.72 157.142 257.914 156.908 260.543 157.621C266.42 159.215 270.76 164.605 272.307 170.494C273.853 176.384 272.96 182.676 271.107 188.477C269.828 192.479 267.346 196.918 263.161 197.289C260.395 197.534 257.823 195.852 255.063 195.551C251.002 195.107 246.907 198.064 245.844 202.009C244.781 205.953 246.702 210.443 250.178 212.589C253.654 214.735 258.381 214.509 261.768 212.228" stroke="#171717" stroke-width="3" stroke-linecap="round" stroke-linejoin="round"/>
<path d="M241.458 196.275L245.058 192.675" stroke="#171717" stroke-width="3" stroke-linecap="round" stroke-linejoin="round"/>
<path d="M244.544 195.503C243.852 194.144 242.816 192.989 241.539 192.154L242.229 191.644" stroke="#171717" stroke-width="3" stroke-linecap="round" stroke-linejoin="round"/>
<path d="M281.57 155.115L284.915 152.545" stroke="#171717" stroke-width="3" stroke-linecap="round" stroke-linejoin="round"/>
<path d="M284.193 155.613C283.285 154.211 282.578 152.688 282.093 151.089" stroke="#171717" stroke-width="3" stroke-linecap="round" stroke-linejoin="round"/>
<path d="M185.222 23.7307L182.879 26.3167C182.808 26.3948 182.715 26.4494 182.612 26.473C182.51 26.4967 182.402 26.4883 182.305 26.449C182.207 26.4097 182.124 26.3414 182.066 26.2533C182.008 26.1651 181.979 26.0614 181.982 25.9561L182.081 22.4678C182.083 22.366 182.056 22.2657 182.002 22.1794C181.948 22.0932 181.869 22.025 181.777 21.9833L178.593 20.5537C178.497 20.5106 178.417 20.4391 178.362 20.3488C178.308 20.2585 178.283 20.1538 178.29 20.0487C178.297 19.9436 178.336 19.8433 178.402 19.7612C178.468 19.6791 178.558 19.6191 178.659 19.5894L182.007 18.605C182.105 18.5764 182.191 18.5196 182.257 18.4418C182.322 18.3639 182.363 18.2685 182.374 18.1675L182.749 14.6982C182.761 14.5934 182.804 14.4946 182.873 14.415C182.942 14.3355 183.034 14.2791 183.136 14.2534C183.238 14.2278 183.346 14.234 183.444 14.2715C183.543 14.3089 183.627 14.3756 183.687 14.4626L185.656 17.3428C185.713 17.4269 185.794 17.492 185.889 17.5299C185.983 17.5679 186.087 17.577 186.187 17.5561L189.602 16.8412C189.705 16.8196 189.813 16.83 189.91 16.8712C190.007 16.9124 190.089 16.9823 190.145 17.0716C190.201 17.1608 190.228 17.2651 190.223 17.3703C190.218 17.4755 190.181 17.5766 190.116 17.66L187.986 20.4243C187.924 20.5049 187.887 20.6021 187.88 20.7037C187.873 20.8053 187.896 20.9066 187.947 20.9949L189.682 24.0227C189.735 24.1141 189.758 24.2193 189.748 24.3242C189.739 24.4291 189.698 24.5286 189.631 24.6094C189.563 24.6902 189.472 24.7484 189.371 24.7761C189.269 24.8037 189.162 24.7997 189.062 24.7643L185.775 23.5922C185.68 23.5582 185.576 23.5533 185.478 23.5779C185.379 23.6026 185.29 23.6557 185.222 23.7307Z" fill="#171717"/>
<path d="M286.036 194.013L284.501 196.31C284.454 196.379 284.388 196.433 284.31 196.463C284.232 196.494 284.147 196.499 284.066 196.48C283.985 196.46 283.912 196.417 283.856 196.354C283.801 196.292 283.766 196.214 283.756 196.132L283.428 193.387C283.418 193.307 283.385 193.232 283.333 193.17C283.28 193.109 283.211 193.065 283.133 193.043L280.472 192.294C280.392 192.271 280.32 192.224 280.267 192.16C280.214 192.095 280.182 192.016 280.176 191.933C280.169 191.85 280.188 191.767 280.23 191.695C280.272 191.622 280.335 191.565 280.411 191.53L282.92 190.37C282.993 190.336 283.054 190.282 283.096 190.213C283.139 190.144 283.159 190.064 283.156 189.984L283.047 187.222C283.044 187.138 283.066 187.056 283.111 186.986C283.155 186.916 283.221 186.861 283.298 186.829C283.375 186.797 283.46 186.789 283.542 186.807C283.623 186.825 283.697 186.867 283.754 186.928L285.632 188.956C285.687 189.015 285.758 189.056 285.837 189.075C285.915 189.094 285.997 189.089 286.073 189.061L288.666 188.104C288.744 188.075 288.829 188.071 288.91 188.092C288.991 188.113 289.063 188.158 289.117 188.221C289.171 188.285 289.205 188.363 289.213 188.446C289.221 188.529 289.204 188.612 289.163 188.685L287.814 191.099C287.775 191.169 287.758 191.249 287.764 191.33C287.771 191.41 287.801 191.487 287.851 191.55L289.564 193.72C289.616 193.786 289.647 193.866 289.652 193.949C289.656 194.033 289.636 194.115 289.592 194.187C289.548 194.258 289.484 194.314 289.407 194.348C289.33 194.381 289.245 194.39 289.163 194.374L286.452 193.838C286.373 193.823 286.291 193.831 286.217 193.862C286.143 193.893 286.08 193.946 286.036 194.013Z" fill="#171717"/>
<g opacity="0.1">
<path d="M42.8386 319.349C44.9254 321.071 48.3693 318.1 49.8335 316.623C52.0673 314.402 53.76 311.697 54.7808 308.716C55.8046 305.739 55.9067 302.567 56.3588 299.477C56.7598 296.745 57.571 293.97 60.3185 292.784C63.1065 291.581 66.4151 291.88 69.3751 291.792C72.9954 291.673 76.6052 291.331 80.1839 290.769C87.2062 289.676 94.064 287.709 100.598 284.915C107.974 281.755 114.88 277.599 121.124 272.561C122.308 271.613 122.095 269.613 121.124 268.624C119.975 267.448 118.354 267.691 117.185 268.624C106.2 277.379 92.8619 283.12 79.0194 285.397C75.6248 285.945 72.1977 286.268 68.7604 286.362C65.4919 286.46 62.0554 286.314 58.9327 287.447C52.0217 289.954 51.1 296.583 50.5586 303.032C50.3114 306.36 49.2308 309.572 47.417 312.374C46.4789 313.849 45.1281 315.193 43.925 316.457C43.4197 316.988 41.7889 318.485 42.8378 319.351L42.8386 319.349Z" fill="#171717"/>
</g>
<g opacity="0.1">
<path d="M153.719 280.652C156.735 279.51 158.121 275.459 159.595 272.832C161.249 269.883 162.812 266.883 164.4 263.898C167.692 257.71 170.941 251.5 174.148 245.27C175.822 242.033 170.939 239.161 169.248 242.406C166.01 248.625 162.802 254.858 159.623 261.106C158.094 264.128 156.538 267.137 155.077 270.192C153.801 272.858 151.112 276.563 151.91 279.626C152.097 280.342 152.98 280.932 153.718 280.652H153.719Z" fill="#171717"/>
</g>
<g opacity="0.1">
<path d="M223.777 250.18C225.137 253.474 228.188 256.081 230.649 258.593C233.254 261.253 235.834 263.936 238.39 266.643C243.415 271.977 248.377 277.359 253.002 283.049C257.577 288.632 261.745 294.537 265.474 300.716C269.079 306.744 271.856 313.052 274.609 319.492C277.26 325.694 280.956 332.142 287.938 333.986C291.557 334.942 293.102 329.336 289.483 328.383C284.127 326.973 281.588 321.222 279.608 316.558C276.874 310.113 274.067 303.819 270.463 297.799C263.108 285.519 253.773 274.516 243.944 264.161C241.168 261.237 238.296 258.401 235.422 255.574C232.666 252.862 229.718 249.34 226.068 247.888C224.82 247.393 223.256 248.92 223.777 250.18V250.18Z" fill="#171717"/>
</g>
<g opacity="0.1">
<path d="M109.566 198.901C108.26 203.534 112.657 208.089 116.488 210.094C117.161 210.467 117.951 210.566 118.695 210.371C119.439 210.176 120.079 209.701 120.482 209.047C120.61 208.828 120.709 208.593 120.776 208.349C121.112 207.2 120.574 205.594 119.435 205.053C117.77 204.31 116.275 203.234 115.041 201.892C114.506 201.28 113.96 200.664 113.453 200.029C112.928 199.401 112.334 198.835 111.68 198.343C110.958 197.764 109.845 197.911 109.565 198.901L109.566 198.901Z" fill="#171717"/>
</g>
<g opacity="0.1">
<path d="M177.291 64.6541C172.095 63.8586 166.804 64.2367 161.623 64.9684C157.421 65.5619 152.317 66.4847 150.951 71.2049C150.28 73.5244 150.535 76.2398 150.467 78.6279C150.386 81.5135 150.381 84.4007 150.358 87.2871C150.336 89.9332 150.333 92.5794 150.35 95.2248C150.364 97.8986 149.843 101.271 150.697 103.814C151.716 106.85 156.619 105.366 155.427 102.511L155.384 102.34C155.38 102.017 155.291 101.7 155.127 101.421C154.964 101.143 154.73 100.911 154.45 100.75C154.169 100.59 153.852 100.505 153.529 100.504C153.205 100.503 152.887 100.587 152.606 100.746L153.062 100.71L155.427 103.814C156.219 101.685 155.896 98.9286 155.983 96.6682C156.076 94.2619 156.182 91.8582 156.242 89.452C156.359 84.7609 156.468 80.0734 156.492 75.3791C156.5 73.796 156.227 72.4555 157.703 71.5571C159.237 70.6245 161.283 70.354 163.007 69.9829C167.571 69.0029 172.177 68.7272 176.805 68.2453C178.665 68.0517 179.503 64.9917 177.292 64.6526L177.291 64.6541Z" fill="#171717"/>
</g>
<g opacity="0.1">
<path d="M143.152 72.0417C141.22 71.9975 139.297 72.7391 137.376 72.9458C135.41 73.1573 133.269 73.2809 131.318 72.9094V76.708C136.306 75.4596 141.031 72.6319 145.781 70.6267C150.74 68.534 155.786 66.5937 160.873 64.8393C170.977 61.3626 181.355 58.7406 191.899 57.0008C193.576 56.723 194.511 54.6474 194.095 53.1325C193.607 51.3556 191.908 50.6534 190.227 50.9363C179.47 52.7297 168.887 55.4422 158.593 59.0435C153.46 60.8387 148.422 62.8954 143.499 65.205C138.693 67.4654 133.287 69.7517 129.405 73.4143C128.153 74.5956 129.123 76.7816 130.798 76.7769C133.1 76.7699 135.327 76.8243 137.619 76.5001C139.674 76.2085 142.158 75.8865 143.845 74.5864C144.866 73.7989 144.625 72.0708 143.155 72.0387L143.152 72.0417Z" fill="#171717"/>
</g>
<g opacity="0.1">
<path d="M147.02 61.2536C146.21 58.9568 144.878 56.9855 144.792 54.4746C144.729 53.344 144.812 52.2102 145.039 51.1004C145.367 49.6606 146.016 48.4338 145.012 47.06C144.375 46.1887 143.441 45.698 142.348 45.9761L142.042 46.0542C141.572 46.1843 141.144 46.4341 140.8 46.7786C140.455 47.1231 140.205 47.5511 140.075 48.0207C138.713 52.9827 139.522 60.3389 144.184 63.4346C145.546 64.3395 147.574 62.8265 147.02 61.2536Z" fill="#171717"/>
</g>
<defs>
<linearGradient id="paint0_linear_27_382" x1="158.277" y1="38.4701" x2="158.277" y2="65.0712" gradientUnits="userSpaceOnUse">
<stop stop-color="#42E670"/>
<stop offset="1" stop-color="#07AA50"/>
</linearGradient>
<linearGradient id="paint1_linear_27_382" x1="294.899" y1="299.499" x2="294.899" y2="334.625" gradientUnits="userSpaceOnUse">
<stop stop-color="#42E670"/>
<stop offset="1" stop-color="#07AA50"/>
</linearGradient>
<linearGradient id="paint2_linear_27_382" x1="161.716" y1="50.8535" x2="161.716" y2="77.7426" gradientUnits="userSpaceOnUse">
<stop stop-color="#42E670"/>
<stop offset="1" stop-color="#07AA50"/>
</linearGradient>
<linearGradient id="paint3_linear_27_382" x1="183.68" y1="142.736" x2="183.68" y2="159.762" gradientUnits="userSpaceOnUse">
<stop stop-color="#42E670"/>
<stop offset="1" stop-color="#07AA50"/>
</linearGradient>
<linearGradient id="paint4_linear_27_382" x1="162.031" y1="202.519" x2="162.031" y2="241.733" gradientUnits="userSpaceOnUse">
<stop stop-color="#42E670"/>
<stop offset="1" stop-color="#07AA50"/>
</linearGradient>
<linearGradient id="paint5_linear_27_382" x1="171.074" y1="202.221" x2="171.074" y2="280.547" gradientUnits="userSpaceOnUse">
<stop stop-color="#42E670"/>
<stop offset="1" stop-color="#07AA50"/>
</linearGradient>
<linearGradient id="paint6_linear_27_382" x1="50.7052" y1="274.207" x2="50.7052" y2="317.07" gradientUnits="userSpaceOnUse">
<stop stop-color="#42E670"/>
<stop offset="1" stop-color="#07AA50"/>
</linearGradient>
</defs>
</svg>
